<svg width="127" height="91" viewBox="0 0 127 91" fill="none" xmlns="http://www.w3.org/2000/svg">
<g opacity="0.18">
<path opacity="0.18" d="M46.8115 12.1611C28.5934 22.6426 28.4651 39.643 46.5549 50.1245C64.6446 60.606 94.1527 60.606 112.371 50.1245C130.589 39.643 130.717 22.6426 112.627 12.1611C94.5376 1.67968 65.0295 1.67968 46.8115 12.1611Z" fill="url(#paint0_linear_129_680)"/>
</g>
<path opacity="0.21" d="M46.8118 12.1611C55.0228 7.43164 65.6714 4.87518 76.4482 4.36389C69.3919 5.64212 62.7206 7.81511 57.2038 11.0107C38.9858 21.4921 38.8575 38.4926 56.9472 48.974C66.826 54.7261 80.1688 57.2825 93.1267 56.7712C77.218 59.5833 59.1282 57.4103 46.6835 50.1244C28.4655 39.643 28.5938 22.6425 46.8118 12.1611Z" fill="url(#paint1_linear_129_680)"/>
<path d="M47.3244 9.22123C48.3507 8.58212 49.5054 8.07082 50.6601 7.43171C51.0449 7.30389 51.4298 7.04824 51.8147 6.92042C52.4562 6.66477 53.226 6.28131 53.8675 6.02566C53.9958 6.02566 54.1241 5.89784 54.2524 5.89784C54.5089 5.77002 54.7655 5.64219 55.0221 5.64219C55.9202 5.25872 56.8183 5.00308 57.8446 4.74743C58.1012 4.61961 58.4861 4.49178 58.7427 4.49178C58.9993 4.49178 59.1276 4.36396 59.3842 4.23614C60.2823 3.9805 61.3086 3.72485 62.2067 3.46921C62.4633 3.46921 62.5916 3.34139 62.8482 3.34139C63.3614 3.21356 63.7463 3.08574 64.2594 3.08574C64.6443 2.95791 65.0292 2.95792 65.4141 2.83009C66.1839 2.70227 67.0819 2.57444 67.8517 2.44662C68.2366 2.44662 68.4932 2.3188 68.8781 2.3188C69.263 2.3188 69.6479 2.19098 69.9045 2.19098C70.6742 2.06316 71.444 2.06315 72.2138 1.93533C72.5987 1.93533 72.9836 1.80751 73.2402 1.80751C73.6251 1.80751 73.8816 1.80751 74.2665 1.80751C75.0363 1.80751 75.8061 1.67969 76.5759 1.67969C76.9607 1.67969 77.3456 1.67969 77.7305 1.67969C77.9871 1.67969 78.372 1.67969 78.6286 1.67969C79.5267 1.67969 80.2964 1.67969 81.1945 1.67969C81.5794 1.67969 82.0926 1.67969 82.4775 1.67969C82.8624 1.67969 83.3756 1.67969 83.7604 1.67969C84.017 1.67969 84.2736 1.67969 84.4019 1.67969C85.4283 1.67969 86.4547 1.80751 87.6093 1.93533C87.8659 1.93533 87.9942 1.93534 88.2508 2.06316C88.5074 2.06316 88.8923 2.19098 89.1489 2.19098C90.1752 2.3188 91.3299 2.44662 92.3563 2.57444C92.6129 2.57444 92.8695 2.70227 93.1261 2.70227C93.2544 2.70227 93.3826 2.70227 93.5109 2.70227C94.0241 2.8301 94.5373 2.95791 94.9222 2.95791C95.8203 3.08574 96.59 3.34138 97.4881 3.46921C98.1296 3.59703 98.6428 3.85268 99.2842 3.9805C100.054 4.23615 100.824 4.36397 101.594 4.61961C101.722 4.61961 101.978 4.74743 102.107 4.74743C103.005 5.00308 104.031 5.38654 104.929 5.77001C105.058 5.77001 105.186 5.89784 105.314 5.89784C106.341 6.28131 107.367 6.66478 108.265 7.17607C108.522 7.30389 108.778 7.43171 109.163 7.55953C110.189 8.07082 111.216 8.58212 112.242 9.22123C112.37 9.34905 112.627 9.47687 112.755 9.60469C112.884 9.73251 113.14 9.86034 113.269 9.86034C113.525 9.98817 113.782 10.2438 114.038 10.3716C114.295 10.4995 114.551 10.7551 114.808 10.8829C115.065 11.0107 115.321 11.2664 115.578 11.3942C115.834 11.522 116.091 11.7777 116.219 11.9055C116.476 12.0333 116.733 12.289 116.989 12.4168C117.246 12.5446 117.374 12.8003 117.631 12.9281C117.887 13.0559 118.015 13.3116 118.272 13.4394C118.4 13.5672 118.4 13.5672 118.529 13.695C118.657 13.8228 118.657 13.8228 118.785 13.9507C119.17 14.3341 119.427 14.5898 119.812 14.9733C119.94 15.1011 120.068 15.2289 120.197 15.3567C120.581 15.868 120.966 16.2515 121.351 16.7628C121.479 16.8906 121.479 17.0184 121.608 17.0184C121.864 17.2741 122.121 17.6575 122.249 17.9132C122.378 18.041 122.506 18.2966 122.506 18.4245C122.634 18.6801 122.891 18.9357 123.019 19.1914C123.019 19.3192 123.147 19.3192 123.147 19.447C123.147 19.5749 123.276 19.7027 123.276 19.8305C123.404 20.0862 123.532 20.3418 123.66 20.4696C123.789 20.5974 123.789 20.8531 123.917 21.1087C124.045 21.3644 124.174 21.62 124.174 21.7478C124.174 21.8757 124.302 22.0035 124.302 22.0035C124.302 22.1313 124.302 22.1313 124.43 22.2591C124.559 22.5148 124.559 22.6426 124.687 22.8983C124.687 23.1539 124.815 23.2817 124.815 23.5374C124.815 23.793 124.943 23.9208 124.943 24.1765C124.943 24.3043 124.943 24.4321 125.072 24.56C125.072 24.6878 125.072 24.6878 125.072 24.8156C125.072 25.0712 125.2 25.3269 125.2 25.4547C125.2 25.7104 125.2 25.8382 125.328 26.0938C125.328 26.3495 125.328 26.6051 125.328 26.7329C125.328 26.8608 125.328 26.9886 125.328 27.1164C125.328 27.2442 125.328 27.372 125.328 27.4999V33.7632C125.328 33.5075 125.328 33.2519 125.328 32.9963C125.328 32.7406 125.328 32.485 125.328 32.3571C125.328 32.1015 125.328 31.9737 125.2 31.718C125.2 31.4624 125.072 31.2067 125.072 31.0789C125.072 30.8233 124.943 30.6954 124.943 30.4398C124.943 30.1842 124.815 30.0563 124.815 29.8007C124.815 29.545 124.687 29.4172 124.687 29.1616C124.559 28.9059 124.559 28.7781 124.43 28.5225C124.302 28.2668 124.302 28.139 124.174 27.8833C124.045 27.6277 124.045 27.3721 123.917 27.2442C123.789 26.9886 123.789 26.8608 123.66 26.6051C123.532 26.3495 123.404 26.0938 123.276 25.966C123.147 25.8382 123.019 25.5825 123.019 25.4547C122.891 25.1991 122.634 24.9434 122.506 24.6878C122.378 24.56 122.249 24.3043 122.249 24.1765C121.993 23.9208 121.864 23.5374 121.608 23.2817C121.479 23.1539 121.479 23.0261 121.351 22.8983C120.966 22.387 120.581 22.0035 120.197 21.4922C120.068 21.3644 119.94 21.2366 119.812 21.1087C119.427 20.7253 119.17 20.4696 118.785 20.0862C118.657 19.9583 118.4 19.8305 118.272 19.5749C118.015 19.3192 117.887 19.1914 117.631 19.0636C117.374 18.9358 117.246 18.6801 116.989 18.5523C116.733 18.4245 116.476 18.1688 116.219 18.041C115.963 17.9132 115.706 17.6575 115.578 17.5297C115.321 17.4019 115.065 17.1462 114.808 17.0184C114.551 16.8906 114.295 16.6349 114.038 16.5071C113.782 16.3793 113.525 16.1236 113.269 15.9958C112.884 15.7402 112.627 15.6124 112.242 15.3567C111.216 14.8454 110.189 14.2063 109.163 13.695C108.906 13.5672 108.65 13.4394 108.265 13.3116C107.239 12.9281 106.341 12.4168 105.314 12.0333C105.186 12.0333 105.058 11.9055 104.929 11.9055C103.903 11.522 102.748 11.1386 101.594 10.7551C100.824 10.4995 100.054 10.2438 99.2842 10.116C98.6428 9.98816 98.1296 9.73251 97.4881 9.60469C96.7183 9.34905 95.8203 9.22123 94.9222 9.09341C94.2807 8.96559 93.6392 8.83776 92.9978 8.70994C92.7412 8.70994 92.4846 8.58212 92.228 8.58212C91.2016 8.45429 90.1752 8.32647 89.0206 8.19864C88.764 8.19864 88.3791 8.07082 88.1225 8.07082C86.8395 7.943 85.6849 7.81518 84.4019 7.81518C84.1453 7.81518 83.8887 7.81518 83.7604 7.81518C82.8624 7.81518 82.0926 7.81517 81.1945 7.68735C80.2964 7.68735 79.5267 7.68735 78.6286 7.68735C77.9871 7.68735 77.2173 7.68735 76.5759 7.68735C75.8061 7.68735 75.0363 7.81518 74.2665 7.81518C73.4967 7.81518 72.8553 7.943 72.2138 7.943C71.444 8.07082 70.6742 8.07082 69.9045 8.19864C69.263 8.32647 68.4932 8.32647 67.8517 8.45429C67.0819 8.58212 66.1839 8.70993 65.4141 8.83776C64.516 8.96558 63.7463 9.0934 62.8482 9.34905C62.5916 9.34905 62.4633 9.47687 62.2067 9.47687C61.052 9.73252 59.8974 10.116 58.7427 10.3716C58.3578 10.4995 58.1012 10.6273 57.7163 10.6273C56.8183 10.8829 55.7919 11.2664 54.8938 11.522C54.6372 11.6499 54.3806 11.7777 54.124 11.7777C53.3543 12.0333 52.4562 12.4168 51.6864 12.8003C51.3015 12.9281 50.9166 13.1837 50.5318 13.3116C49.3771 13.8228 48.2224 14.462 47.1961 15.1011C41.551 18.2966 37.7022 22.2591 35.5211 26.3495C35.1362 27.1164 34.7513 28.0112 34.4947 28.9059C34.3665 29.2894 34.2382 29.8007 34.1099 30.1842C33.8533 31.4624 33.5967 32.7406 33.5967 34.0188V27.7555C33.725 21.2366 38.2153 14.462 47.3244 9.22123Z" fill="url(#paint2_linear_129_680)"/>
<path d="M32.4424 28.1389C32.4424 28.3946 32.4424 28.6502 32.4424 28.9059C32.4424 29.1615 32.4424 29.4171 32.4424 29.6728C32.4424 29.9284 32.4424 30.0563 32.5707 30.3119C32.5707 30.5676 32.699 30.8232 32.699 31.0788C32.699 31.3345 32.8273 31.4623 32.8273 31.718C32.8273 31.9736 32.9556 32.2292 32.9556 32.3571C32.9556 32.6127 33.0839 32.7405 33.0839 32.9962C33.2122 33.2518 33.2122 33.5075 33.3405 33.6353C33.4687 33.8909 33.4687 34.0188 33.597 34.2744C33.7253 34.5301 33.8536 34.7857 33.8536 35.0413C33.9819 35.297 33.9819 35.4248 34.1102 35.6805C34.2385 35.9361 34.3668 36.1918 34.4951 36.4474C34.6234 36.5752 34.7517 36.8309 34.7517 36.9587C34.88 37.2143 35.1366 37.47 35.2649 37.8535C35.3932 37.9813 35.5215 38.2369 35.6498 38.3647C35.9064 38.6204 36.0347 39.0039 36.2913 39.2595C36.4196 39.3873 36.4196 39.5151 36.5479 39.643C36.9327 40.1543 37.3176 40.5377 37.8308 41.049C37.9591 41.1768 38.0874 41.3047 38.2157 41.4325C38.6006 41.816 38.8572 42.1994 39.2421 42.4551C39.3704 42.5829 39.627 42.7107 39.7553 42.9664C40.0118 43.222 40.1401 43.3498 40.3967 43.6055C40.6533 43.7333 40.7816 43.9889 41.0382 44.1168C41.2948 44.3724 41.5514 44.5002 41.808 44.6281C42.0646 44.7559 42.3212 45.0115 42.4495 45.1393C42.7061 45.2672 42.9626 45.5228 43.2192 45.6506C43.4758 45.7785 43.7324 46.0341 43.989 46.1619C44.2456 46.2898 44.5022 46.5454 44.8871 46.6732C45.272 46.9289 45.6569 47.0567 45.9135 47.3123C46.9398 47.9514 47.9662 48.4627 49.1209 48.974C49.3775 49.1019 49.634 49.2297 50.0189 49.3575C51.0453 49.8688 52.0717 50.2523 53.098 50.6357C53.2263 50.6357 53.3546 50.7635 53.4829 50.7635C54.6376 51.147 55.664 51.5305 56.8186 51.914C57.5884 52.1696 58.4865 52.4252 59.2562 52.5531C59.8977 52.6809 60.5392 52.9365 61.0524 53.0644C61.9505 53.32 62.7202 53.4478 63.6183 53.5757C64.2598 53.7035 64.9013 53.8313 65.5428 53.9591C65.7993 53.9591 66.0559 54.0869 66.3125 54.0869C67.3389 54.2148 68.4936 54.4704 69.5199 54.5982C69.7765 54.5982 70.1614 54.7261 70.418 54.7261C71.7009 54.8539 72.9839 54.9817 74.2669 54.9817C74.5235 54.9817 74.7801 54.9817 75.0367 54.9817C75.9347 54.9817 76.7045 54.9817 77.6026 55.1095C78.5006 55.1095 79.3987 55.1095 80.1685 55.1095C80.9383 55.1095 81.5797 55.1095 82.3495 55.1095C83.1193 55.1095 83.8891 54.9817 84.7872 54.9817C85.5569 54.9817 86.1984 54.8539 86.9682 54.8539C87.738 54.7261 88.5077 54.726 89.2775 54.5982C90.0473 54.4704 90.6888 54.4704 91.3302 54.3426C92.2283 54.2148 92.9981 54.0869 93.7679 53.9591C94.6659 53.8313 95.4357 53.5757 96.3338 53.4478C96.5904 53.4478 96.7187 53.32 96.9753 53.32C98.1299 53.0644 99.4129 52.6809 100.568 52.4252C100.952 52.2974 101.209 52.1696 101.594 52.1696C102.62 51.914 103.518 51.5305 104.416 51.147C104.673 51.0192 104.93 50.8914 105.186 50.8914C106.084 50.5079 106.854 50.2523 107.624 49.8688C108.009 49.741 108.394 49.4853 108.907 49.3575C110.061 48.8462 111.216 48.2071 112.371 47.568C121.608 42.1994 126.355 35.1692 126.227 28.1389V34.4022C126.227 41.4325 121.608 48.4627 112.371 53.8313C111.216 54.4704 110.061 55.1095 108.907 55.6208C108.522 55.7486 108.137 56.0043 107.752 56.1321C107.111 56.3878 106.341 56.7712 105.699 57.0269C105.571 57.0269 105.443 57.1547 105.315 57.1547C105.058 57.2825 104.801 57.4103 104.545 57.4103C103.647 57.7938 102.62 58.0494 101.722 58.4329C101.337 58.5607 101.081 58.6886 100.696 58.6886C100.439 58.8164 100.311 58.8164 100.054 58.9442C99.1563 59.1999 98.1299 59.4555 97.1036 59.7111C96.847 59.7111 96.7187 59.839 96.4621 59.839C95.9489 59.9668 95.564 60.0946 95.0508 60.0946C94.6659 60.2224 94.281 60.2224 93.8962 60.3502C93.1264 60.4781 92.2283 60.6059 91.3302 60.7337C90.9454 60.7337 90.6888 60.8616 90.3039 60.8616C89.919 60.8616 89.5341 60.9894 89.1492 60.9894C88.3794 61.1172 87.6097 61.1172 86.8399 61.245C86.455 61.245 86.0701 61.3728 85.6852 61.3728C85.3003 61.3728 84.9154 61.3728 84.6589 61.3728C83.8891 61.3728 83.1193 61.5007 82.2212 61.5007C81.8363 61.5007 81.4514 61.5007 81.0666 61.5007C80.81 61.5007 80.4251 61.5007 80.1685 61.5007C79.2704 61.5007 78.5006 61.5007 77.6026 61.5007C77.2177 61.5007 76.7045 61.5007 76.3196 61.5007C75.9347 61.5007 75.4215 61.5007 75.0367 61.3728C74.7801 61.3728 74.5235 61.3728 74.2669 61.3728C73.2405 61.3728 72.0858 61.245 71.0595 61.1172C70.8029 61.1172 70.6746 61.1172 70.418 60.9894C70.1614 60.9894 69.7765 60.8616 69.5199 60.8616C68.3653 60.7337 67.3389 60.6059 66.3125 60.3502C66.0559 60.3502 65.7993 60.2224 65.5428 60.2224C65.4145 60.2224 65.2862 60.2224 65.1579 60.2224C64.6447 60.0946 64.1315 59.9668 63.6183 59.839C62.7202 59.7111 61.8222 59.4555 61.0524 59.3277C60.4109 59.1999 59.7694 58.9442 59.2562 58.8164C58.4865 58.5607 57.5884 58.4329 56.8186 58.1773C56.6903 58.1773 56.4337 58.0495 56.3054 58.0495C55.2791 57.7938 54.381 57.4103 53.4829 57.0269C53.3546 57.0269 53.2263 56.899 53.098 56.899C52.0717 56.5156 51.0453 56.0043 50.0189 55.6208C49.7623 55.493 49.5058 55.3652 49.1209 55.2373C48.0945 54.726 46.9398 54.2148 45.9135 53.5757C45.6569 53.4478 45.5286 53.32 45.4003 53.1922C45.272 53.0644 45.0154 52.9365 44.8871 52.8087C44.6305 52.6809 44.3739 52.4253 43.989 52.2974C43.7324 52.1696 43.4758 51.914 43.2192 51.7861C42.9626 51.6583 42.7061 51.4027 42.4495 51.2748C42.1929 51.147 41.9363 50.8914 41.808 50.7635C41.5514 50.6357 41.2948 50.3801 41.0382 50.2523C40.7816 50.1244 40.6533 49.8688 40.3967 49.741C40.1401 49.4853 39.8835 49.3575 39.7553 49.1019C39.627 48.974 39.627 48.974 39.4987 48.8462C39.3704 48.7184 39.3704 48.7184 39.2421 48.5906C38.8572 48.2071 38.4723 47.9515 38.2157 47.568C38.0874 47.4402 37.9591 47.3123 37.8308 47.1845C37.4459 46.6732 36.9327 46.2898 36.5479 45.7785C36.4196 45.6506 36.4196 45.5228 36.2913 45.395C36.0347 45.1393 35.7781 44.7559 35.6498 44.5002C35.5215 44.3724 35.3932 44.1168 35.2649 43.9889C35.1366 43.7333 34.88 43.4777 34.7517 43.0942C34.7517 42.9664 34.6234 42.9664 34.6234 42.8385C34.4951 42.7107 34.4951 42.5829 34.4951 42.4551C34.3668 42.1994 34.2385 41.9438 34.1102 41.6881C33.9819 41.4325 33.9819 41.3047 33.8536 41.049C33.7253 40.7934 33.597 40.5377 33.597 40.2821C33.597 40.1543 33.4688 40.0264 33.4688 40.0264C33.4688 39.8986 33.4687 39.7708 33.3405 39.7708C33.2122 39.5152 33.2122 39.2595 33.0839 39.1317C32.9556 38.876 32.9556 38.7482 32.9556 38.4926C32.9556 38.2369 32.8273 37.9813 32.8273 37.8535C32.8273 37.7256 32.699 37.5978 32.699 37.47C32.699 37.3422 32.699 37.3422 32.699 37.2143C32.699 36.9587 32.5707 36.703 32.5707 36.4474C32.5707 36.1918 32.5707 36.0639 32.4424 35.8083C32.4424 35.5526 32.4424 35.297 32.4424 35.0413C32.4424 34.9135 32.4424 34.7857 32.4424 34.6579C32.4424 34.5301 32.4424 34.4022 32.4424 34.2744V28.1389Z" fill="url(#paint3_linear_129_680)"/>
<path d="M46.4277 8.7099C27.9531 19.3192 27.8248 36.5753 46.1711 47.1845C64.5175 57.7938 94.4104 57.7938 112.885 47.1845C131.36 36.5753 131.488 19.3192 113.142 8.7099C94.7953 -1.89939 64.7741 -1.89939 46.4277 8.7099ZM111.987 46.6732C94.0256 57.0269 64.9024 57.0269 47.0692 46.6732C29.2361 36.3196 29.3644 19.5748 47.3258 9.22119C65.2872 -1.13245 94.4104 -1.13245 112.244 9.22119C129.948 19.5748 129.82 36.3196 111.987 46.6732Z" fill="url(#paint4_linear_129_680)"/>
<path d="M16.2769 62.3954C16.1486 62.3954 15.892 62.2676 15.7637 62.2676C15.6354 62.2676 15.3788 62.2676 15.2505 62.2676C15.1222 62.2676 14.8656 62.3954 14.7373 62.3954L42.0644 46.5454C42.0644 46.5454 42.1926 46.5454 42.1926 46.4176H42.321H42.4493C42.5776 46.4176 42.5775 46.4176 42.7058 46.4176C42.8341 46.4176 42.8341 46.4176 42.9624 46.4176C42.9624 46.4176 42.9624 46.4176 43.0907 46.4176H43.219C43.3473 46.4176 43.4756 46.4176 43.4756 46.4176H43.6039H43.7322H43.8605C43.9888 46.4176 44.1171 46.5454 44.3737 46.6732C44.6303 46.8011 44.7586 46.9289 45.0152 47.0567C45.1435 47.0567 45.1435 47.1845 45.2718 47.1845C45.4001 47.3124 45.5284 47.3124 45.5284 47.4402L45.6567 47.568L45.7849 47.6958L45.9132 47.8237C46.0415 47.9515 46.0415 48.0793 46.1698 48.2071C46.1698 48.2071 46.1698 48.3349 46.2981 48.3349C46.2981 48.3349 46.2981 48.4628 46.4264 48.4628C46.5547 48.5906 46.5547 48.5906 46.683 48.7184C46.683 48.8462 46.8113 48.8462 46.8113 48.9741C46.8113 49.1019 46.9396 49.1019 46.9396 49.2297C46.9396 49.3575 47.0679 49.3575 47.0679 49.4854C47.0679 49.6132 47.1962 49.6132 47.1962 49.741C47.1962 49.8688 47.3245 49.9966 47.3245 49.9966C47.3245 50.1245 47.4528 50.2523 47.4528 50.2523V50.3801C47.4528 50.3801 47.4528 50.3801 47.4528 50.5079V50.6358C47.4528 50.7636 47.5811 50.8914 47.5811 51.0192C47.5811 51.1471 47.5811 51.147 47.5811 51.2749V51.4027V51.5305C47.5811 51.7862 47.5811 51.914 47.5811 52.1696C47.5811 53.1922 47.1962 53.9591 46.5547 54.3426L19.2277 70.1926C19.8691 69.8092 20.254 69.17 20.254 68.0196C20.254 67.764 20.254 67.5084 20.254 67.2527V67.1249C20.254 66.8692 20.1257 66.6136 20.1257 66.358C20.1257 66.358 20.1257 66.3579 20.1257 66.2301C19.9974 65.9745 19.9974 65.7188 19.8691 65.4632C19.7408 65.2075 19.6125 64.9519 19.4843 64.6963C19.356 64.4406 19.2277 64.185 18.9711 63.9293C18.8428 63.6737 18.7145 63.5458 18.4579 63.2902L18.3296 63.1624C18.2013 63.0346 18.073 62.9067 17.9447 62.7789C17.8164 62.7789 17.8164 62.6511 17.6881 62.6511C17.4315 62.5233 17.3032 62.3954 17.0466 62.2676C16.79 62.6511 16.6617 62.5233 16.2769 62.3954C16.2769 62.3954 16.4051 62.3954 16.2769 62.3954Z" fill="url(#paint5_linear_129_680)"/>
<path d="M17.0466 62.7789C15.2505 61.7563 13.7109 62.5233 13.7109 64.6963C13.7109 66.7414 15.2505 69.4257 17.0466 70.4483C18.8428 71.4709 20.3823 70.7039 20.3823 68.531C20.3823 66.358 18.8428 63.8015 17.0466 62.7789Z" fill="#AAAAAA"/>
<path d="M-9.89611 73.3882C-10.0244 73.3882 -10.1527 73.3882 -10.1527 73.2604C-10.281 73.2604 -10.281 73.2604 -10.4093 73.2604C-10.5376 73.2604 -10.6659 73.2604 -10.7942 73.2604C-10.9225 73.2604 -10.9225 73.2604 -11.0508 73.2604C-11.1791 73.2604 -11.3074 73.2604 -11.4357 73.2604H-11.564C-11.6923 73.2604 -11.9489 73.2604 -12.0772 73.2604H-12.2054C-12.3337 73.2604 -12.462 73.2604 -12.5903 73.3882H-12.7186C-12.8469 73.3882 -12.9752 73.5161 -13.1035 73.6439L25.1287 51.5305C25.257 51.5305 25.3853 51.4027 25.5136 51.4027C25.5136 51.4027 25.5136 51.4027 25.6419 51.4027H25.7702H25.8985H26.0268H26.1551C26.2834 51.4027 26.4117 51.4027 26.54 51.4027H26.6683C26.7966 51.4027 26.9249 51.4027 26.9249 51.4027H27.0532C27.1815 51.4027 27.1815 51.4027 27.3098 51.4027H27.438H27.5663C27.6946 51.4027 27.6946 51.4027 27.8229 51.4027H27.9512H28.0795C28.2078 51.4027 28.3361 51.5305 28.5927 51.5305H28.721C28.721 51.5305 28.721 51.5305 28.8493 51.5305C29.1059 51.6584 29.3625 51.7862 29.6191 51.914C30.004 52.1697 30.5172 52.4253 30.902 52.8088C31.0303 52.9366 31.1586 53.0644 31.2869 53.1922C31.5435 53.3201 31.6718 53.5757 31.9284 53.7035C32.0567 53.8313 32.0567 53.8313 32.185 53.9592C32.3133 54.087 32.3133 54.087 32.4416 54.2148C32.5699 54.3426 32.5699 54.3426 32.6982 54.4705C32.8265 54.7261 33.0831 54.8539 33.2114 55.1096C33.2114 55.2374 33.3397 55.2374 33.3397 55.3652C33.3397 55.3652 33.3397 55.4931 33.468 55.4931C33.468 55.6209 33.5963 55.6209 33.5963 55.7487C33.7245 55.8765 33.8528 56.1322 33.9811 56.26C34.1094 56.3878 34.2377 56.6435 34.366 56.7713C34.4943 56.8991 34.4943 57.0269 34.6226 57.2826C34.7509 57.4104 34.8792 57.666 34.8792 57.7938C35.0075 57.9217 35.0075 58.1773 35.1358 58.3051C35.2641 58.5608 35.2641 58.6886 35.3924 58.9443C35.5207 59.1999 35.5207 59.3277 35.649 59.5834C35.649 59.7112 35.649 59.839 35.7773 59.839V59.9668C35.7773 60.0947 35.7773 60.0947 35.9056 60.2225C36.0339 60.4781 36.0339 60.7338 36.0339 60.9894C36.0339 61.1172 36.0339 61.2451 36.1622 61.5007C36.1622 61.6285 36.1622 61.6285 36.1622 61.7564C36.1622 61.8842 36.1622 61.8842 36.1622 62.012C36.1622 62.3955 36.2905 62.9068 36.2905 63.2902C36.2905 64.8241 35.9056 66.1023 35.1358 66.8693C34.8792 67.1249 34.6226 67.3806 34.366 67.5084L-3.8662 89.6217C-2.71154 88.9826 -1.94176 87.4487 -1.94176 85.4036C-1.94176 84.8923 -1.94176 84.381 -2.07005 83.8697C-2.07005 83.7419 -2.07005 83.7419 -2.07005 83.6141C-2.19835 83.1028 -2.19835 82.7193 -2.45495 82.208V82.0802C-2.58324 81.5689 -2.83984 81.0576 -2.96813 80.5463C-3.22472 80.035 -3.48131 79.5237 -3.73791 79.0124C-3.9945 78.5011 -4.37938 78.1177 -4.63598 77.6064C-4.63598 77.6064 -4.63597 77.4786 -4.76427 77.4786C-5.02086 77.0951 -5.40575 76.7116 -5.79064 76.3281C-5.91894 76.2003 -5.91893 76.2003 -6.04723 76.0725C-6.30382 75.8169 -6.56042 75.5612 -6.81702 75.3056C-6.94531 75.1778 -7.0736 75.0499 -7.2019 74.9221C-7.58679 74.5386 -7.97167 74.283 -8.48486 74.0273C-8.74145 73.8995 -8.99804 73.7717 -9.25463 73.6439C-9.38293 73.6439 -9.38293 73.516 -9.51123 73.516C-9.63953 73.516 -9.76782 73.5161 -9.89611 73.3882Z" fill="url(#paint6_linear_129_680)"/>
<defs>
<linearGradient id="paint0_linear_129_680" x1="126.133" y1="31.1174" x2="33.1111" y2="31.1174" gradientUnits="userSpaceOnUse">
<stop stop-color="#F05670"/>
<stop offset="0.3268" stop-color="#802E3C"/>
<stop offset="0.405" stop-color="#802E3C"/>
<stop offset="1" stop-color="#802E3C"/>
</linearGradient>
<linearGradient id="paint1_linear_129_680" x1="93.1156" y1="31.1589" x2="33.1115" y2="31.1589" gradientUnits="userSpaceOnUse">
<stop stop-color="#F05670"/>
<stop offset="0.3268" stop-color="#802E3C"/>
<stop offset="0.405" stop-color="#802E3C"/>
<stop offset="1" stop-color="#802E3C"/>
</linearGradient>
<linearGradient id="paint2_linear_129_680" x1="125.474" y1="17.9727" x2="33.7704" y2="17.9727" gradientUnits="userSpaceOnUse">
<stop offset="0.1592" stop-color="#F05670"/>
<stop offset="1" stop-color="#802E3C"/>
</linearGradient>
<linearGradient id="paint3_linear_129_680" x1="126.771" y1="44.6463" x2="32.4805" y2="44.6463" gradientUnits="userSpaceOnUse">
<stop offset="0.1592" stop-color="#F05670"/>
<stop offset="1" stop-color="#802E3C"/>
</linearGradient>
<linearGradient id="paint4_linear_129_680" x1="126.754" y1="27.9727" x2="32.4816" y2="27.9727" gradientUnits="userSpaceOnUse">
<stop offset="0.1592" stop-color="#F05670"/>
<stop offset="1" stop-color="#802E3C"/>
</linearGradient>
<linearGradient id="paint5_linear_129_680" x1="47.6878" y1="58.5168" x2="14.6474" y2="58.5168" gradientUnits="userSpaceOnUse">
<stop offset="0.1592" stop-color="#F05670"/>
<stop offset="1" stop-color="#802E3C"/>
</linearGradient>
<linearGradient id="paint6_linear_129_680" x1="36.385" y1="70.3687" x2="-13.0695" y2="70.3687" gradientUnits="userSpaceOnUse">
<stop offset="0.1592" stop-color="#F05670"/>
<stop offset="1" stop-color="#802E3C"/>
</linearGradient>
</defs>
</svg>
