<svg width="144" height="120" viewBox="0 0 144 120" fill="none" xmlns="http://www.w3.org/2000/svg">
<path opacity="0.6" d="M127 64.184L27.6795 119H0L96.543 59L127 64.184Z" fill="url(#paint0_linear_133_828)"/>
<path opacity="0.6" d="M77 103.02L43.6846 120L0 118.849L55.6858 87L77 103.02Z" fill="url(#paint1_linear_133_828)"/>
<path d="M101.165 18.3264C101.165 18.3264 109.213 0.000587155 99.92 0.000587155C99.92 0.000587155 93.5014 -0.381203 101.165 18.3264Z" fill="url(#paint2_linear_133_828)"/>
<path d="M101.165 26.5348C101.165 26.5348 99.5366 9.8316 92.7348 13.554C92.8306 13.554 87.9447 15.9402 101.165 26.5348Z" fill="url(#paint3_linear_133_828)"/>
<path d="M103.273 37.5112C103.273 37.5112 95.3221 18.1354 88.6161 25.0076C88.6161 25.0076 83.6344 29.5891 103.273 37.5112Z" fill="url(#paint4_linear_133_828)"/>
<path d="M104.806 48.7739C104.806 48.7739 94.0763 28.73 87.5619 36.9385C87.5619 36.9385 82.6761 42.3789 104.806 48.7739Z" fill="url(#paint5_linear_133_828)"/>
<path d="M108.734 65.668C108.734 65.668 100.687 41.7108 92.0647 49.442C92.0647 49.442 85.6461 54.5007 108.734 65.668Z" fill="url(#paint6_linear_133_828)"/>
<path d="M102.315 29.5891C102.315 29.5891 103.944 12.8859 110.746 16.6084C110.746 16.5129 115.632 18.8991 102.315 29.5891Z" fill="url(#paint7_linear_133_828)"/>
<path d="M103.368 43.0472C103.368 43.0472 108.062 22.6215 115.822 28.3483C115.822 28.3483 121.474 31.9753 103.368 43.0472Z" fill="url(#paint8_linear_133_828)"/>
<path d="M106.626 55.4552C106.626 55.4552 109.979 32.9297 118.888 38.4657C118.888 38.5611 125.307 41.9972 106.626 55.4552Z" fill="url(#paint9_linear_133_828)"/>
<path d="M108.733 65.0953C108.733 65.0953 112.661 42.9517 122.337 49.2511C122.337 49.3466 129.33 53.3553 108.733 65.0953Z" fill="url(#paint10_linear_133_828)"/>
<path d="M95.6085 30.9255C95.4169 30.7346 95.4169 30.4482 95.6085 30.2573C95.8001 30.0664 96.0876 30.0664 96.2792 30.2573C96.4708 30.4482 100.111 33.6934 102.219 35.8887C101.931 33.7889 101.74 31.689 101.548 29.7801C101.548 29.6846 99.8238 23.3851 96.1834 18.8037C95.9918 18.6128 96.0876 18.231 96.2792 18.1356C96.4708 17.9447 96.8539 18.0401 96.9497 18.231C98.9615 20.8081 100.399 23.7669 101.261 25.9622C100.686 17.2765 100.878 11.6452 100.878 11.5497C100.878 11.2634 101.165 11.0725 101.357 11.0725C101.644 11.0725 101.836 11.3589 101.836 11.5497C101.836 11.6452 101.548 18.3265 102.41 28.2529L106.147 22.717C106.338 22.5261 106.626 22.4307 106.817 22.6216C107.009 22.8125 107.105 23.0988 106.913 23.2897L102.41 29.8755C102.698 33.4071 103.177 37.4158 103.847 41.52C105.476 38.6566 109.021 35.0297 109.212 34.8388C109.404 34.6479 109.691 34.6479 109.883 34.8388C110.074 35.0297 110.074 35.316 109.883 35.5069C109.787 35.6023 104.901 40.7565 104.039 43.2381C104.614 46.9605 105.38 50.8738 106.338 54.8826C109.5 50.0148 112.086 46.4833 112.086 46.4833C112.278 46.2924 112.565 46.1969 112.757 46.3878C112.948 46.5787 113.044 46.8651 112.853 47.056C112.853 47.056 110.074 50.8738 106.817 56.028C106.817 56.1234 106.721 56.1234 106.626 56.2189C107.2 58.4141 107.775 60.6094 108.446 62.9001C109.883 59.4641 114.098 55.0735 114.769 54.4054C114.96 54.2145 115.248 54.2145 115.439 54.4054C115.631 54.5963 115.631 54.8826 115.439 55.0735C112.757 57.746 109.116 62.232 108.925 64.5227C109.021 64.9045 109.212 65.2863 109.308 65.6681C109.404 65.7635 109.5 65.9544 109.404 66.1453C109.5 66.5271 109.691 67.0044 109.787 67.3861C109.883 67.6725 109.691 67.9588 109.5 68.0543C109.404 68.0543 109.404 68.0543 109.308 68.0543C109.116 68.0543 108.925 67.9588 108.829 67.6725C108.637 67.1953 108.542 66.718 108.35 66.3362C107.392 65.6681 105.189 63.2819 98.9616 56.4098C98.77 56.2189 98.77 55.9325 98.9616 55.7416C99.1532 55.5507 99.4406 55.5507 99.6322 55.7416C102.123 58.4141 105.763 62.4229 107.679 64.4273C106.242 59.7504 104.997 54.9781 104.135 50.4921C102.315 46.8651 96.7582 43.8108 96.7582 43.8108C96.4708 43.7153 96.4707 43.3335 96.5665 43.1426C96.6623 42.8563 97.0456 42.8563 97.2372 42.9517C97.4288 43.0472 101.165 45.147 103.656 48.0104C103.368 46.4833 103.081 44.9561 102.889 43.5244C102.889 43.429 102.889 43.429 102.889 43.3335C102.602 41.4246 102.315 39.6111 102.123 37.8931C100.973 35.6023 95.7043 30.9255 95.6085 30.9255Z" fill="#802E3C"/>
<path d="M131.63 22.4305C131.63 22.4305 148.778 12.0268 141.21 6.6818C141.21 6.77725 136.133 2.76848 131.63 22.4305Z" fill="url(#paint11_linear_133_828)"/>
<path d="M126.936 29.2073C126.936 29.2073 135.27 14.604 127.511 13.745C127.511 13.745 122.146 12.886 126.936 29.2073Z" fill="url(#paint12_linear_133_828)"/>
<path d="M122.338 39.4201C122.338 39.4201 127.032 18.9945 117.452 20.808C117.548 20.808 110.842 21.5715 122.338 39.4201Z" fill="url(#paint13_linear_133_828)"/>
<path d="M117.068 49.4421C117.068 49.4421 119.75 26.9166 109.691 29.8755C109.787 29.8755 102.602 31.5935 117.068 49.4421Z" fill="url(#paint14_linear_133_828)"/>
<path d="M110.554 65.5725C110.554 65.5725 117.835 41.329 106.147 42.7607C106.243 42.7607 98.0997 43.2379 110.554 65.5725Z" fill="url(#paint15_linear_133_828)"/>
<path d="M126.17 32.2616C126.17 32.2616 137.091 19.4717 140.54 26.4393C140.444 26.4393 143.127 31.1162 126.17 32.2616Z" fill="url(#paint16_linear_133_828)"/>
<path d="M119.176 43.9062C119.176 43.9062 134.695 29.8755 137.857 38.9429C137.857 39.0384 140.443 45.2424 119.176 43.9062Z" fill="url(#paint17_linear_133_828)"/>
<path d="M114.769 56.0279C114.769 56.0279 130.48 39.5156 134.503 49.1557C134.503 49.1557 137.856 55.6461 114.769 56.0279Z" fill="url(#paint18_linear_133_828)"/>
<path d="M110.937 65.0954C110.937 65.0954 126.839 49.1557 131.15 59.9412C131.15 59.9412 134.599 67.2906 110.937 65.0954Z" fill="url(#paint19_linear_133_828)"/>
<path d="M108.351 52.4009C108.351 52.1146 108.542 51.9237 108.734 51.8282C109.021 51.8282 109.213 52.0191 109.309 52.3055C109.788 55.9324 110.458 61.2775 110.937 64.0454C112.47 59.3685 114.194 54.7871 116.015 50.5874C116.589 46.5786 113.811 40.9473 113.811 40.8518C113.715 40.5655 113.811 40.2792 114.003 40.1837C114.29 40.0883 114.578 40.1837 114.673 40.3746C114.769 40.5655 116.685 44.4788 116.973 48.2012C117.643 46.7695 118.218 45.4333 118.889 44.097C118.889 44.0016 118.889 44.0016 118.984 43.9061C119.847 42.1881 120.613 40.5655 121.475 38.9429C121.379 36.4613 119.751 29.5891 119.655 29.5891C119.559 29.3028 119.751 29.0164 120.038 29.0164C120.326 28.921 120.613 29.1119 120.613 29.3982C120.709 29.6846 121.763 34.4569 122.242 37.4157C123.295 35.5068 124.253 33.6933 125.211 32.0707C125.211 31.9753 127.415 25.8667 127.127 19.949C127.127 19.6626 127.319 19.4718 127.606 19.4718C127.894 19.4718 128.085 19.6626 128.085 19.949C128.277 23.1942 127.702 26.4394 127.127 28.8255C131.63 21.3807 135.079 16.8947 135.175 16.7992C135.366 16.6083 135.654 16.5129 135.845 16.7038C136.037 16.8947 136.133 17.181 135.941 17.3719C135.845 17.4674 131.822 22.8124 126.744 31.4026L133.067 29.0164C133.354 28.921 133.642 29.0164 133.738 29.3028C133.833 29.5891 133.738 29.8755 133.45 29.9709L125.978 32.8343C124.158 35.9841 122.242 39.4201 120.421 43.238C123.391 41.9018 128.373 40.8518 128.66 40.7564C128.948 40.6609 129.235 40.8518 129.235 41.1382C129.331 41.4245 129.139 41.7109 128.852 41.7109C128.756 41.7109 121.763 43.1426 119.655 44.7652C118.026 48.2013 116.398 51.8282 114.865 55.5507C120.326 53.3554 124.349 51.9237 124.445 51.9237C124.732 51.8282 125.02 51.9237 125.116 52.21C125.211 52.4964 125.116 52.7827 124.828 52.8782C124.828 52.8782 120.421 54.4053 114.673 56.696C114.578 56.696 114.482 56.696 114.482 56.696C113.62 58.7959 112.853 60.9911 112.183 63.1864C115.344 61.182 121.284 60.0367 122.242 59.8458C122.529 59.7503 122.816 59.9412 122.816 60.2276C122.912 60.5139 122.721 60.8002 122.433 60.8002C118.697 61.4684 113.141 63.091 111.704 64.809C111.608 65.1908 111.416 65.5726 111.32 65.9544C111.32 66.0498 111.225 66.2407 111.225 66.3361C111.129 66.8134 110.937 67.1952 110.841 67.6724C110.746 67.9588 110.458 68.0542 110.267 68.0542C110.171 68.0542 110.171 68.0542 110.075 67.9587C109.883 67.8633 109.788 67.577 109.883 67.3861C109.979 66.9088 110.171 66.4316 110.267 65.9544C110.075 64.809 109.596 61.5638 108.351 52.4009Z" fill="#1E959B"/>
<path d="M61.5986 108.142L70.7955 102.797V95.7339L61.5986 101.079V108.142Z" fill="url(#paint20_linear_133_828)"/>
<path d="M52.881 84.4711C52.881 84.1848 52.7852 83.8984 52.7852 83.6121C52.7852 82.4667 53.0726 81.7031 53.7432 81.3213L62.94 75.9763C62.2694 76.3581 61.982 77.1217 61.982 78.2671C61.982 78.6488 61.982 78.9352 62.0778 79.317V79.4124C62.1736 79.7942 62.1736 80.0805 62.3652 80.3669C62.461 80.7487 62.6526 81.035 62.8442 81.4168C63.0358 81.7986 63.2274 82.0849 63.5148 82.3713C63.5148 82.3713 63.5148 82.3713 63.5148 82.4667C63.7064 82.7531 63.9938 83.0394 64.1854 83.3257C64.2812 83.4212 64.2812 83.5166 64.377 83.5166C64.6644 83.803 64.9518 84.0893 65.2392 84.3756C65.5266 84.662 65.9098 84.9483 66.293 85.2347C66.3888 85.3301 66.4846 85.3301 66.5804 85.4256C66.9636 85.7119 67.3468 85.9982 67.8258 86.1891L58.629 91.5341C58.15 91.2478 57.7668 90.9614 57.3836 90.7706C57.2878 90.6751 57.192 90.6751 57.0962 90.5797C56.713 90.2933 56.3298 90.007 56.0424 89.7207C55.8508 89.5298 55.5634 89.3389 55.3718 89.148C55.276 89.0525 55.1802 88.9571 55.1802 88.9571C55.0844 88.8616 55.0844 88.7662 54.9886 88.7662C54.8928 88.6708 54.8928 88.6707 54.797 88.5753C54.7012 88.3844 54.5096 88.289 54.4138 88.0981C54.318 88.0026 54.318 88.0026 54.2222 87.9072C54.2222 87.9072 54.2222 87.9072 54.2222 87.8117L54.1264 87.7163C54.0306 87.6208 53.9348 87.5254 53.9348 87.4299C53.839 87.3345 53.839 87.239 53.7432 87.1436C53.6474 87.0481 53.6474 86.9527 53.5516 86.8573C53.5516 86.7618 53.4558 86.6664 53.4558 86.5709C53.4558 86.4755 53.36 86.38 53.36 86.2846C53.36 86.1891 53.2642 86.0937 53.2642 85.9982C53.2642 85.9028 53.1684 85.9028 53.1684 85.8073C53.1684 85.8073 53.1684 85.8073 53.1684 85.7119C53.1684 85.6164 53.0726 85.521 53.0726 85.4256C53.0726 85.3301 52.9768 85.1392 52.9768 85.0438C52.9768 84.9483 52.9768 84.8529 52.9768 84.8529V84.7574C52.9768 84.5665 52.9768 84.5665 52.881 84.4711Z" fill="url(#paint21_linear_133_828)"/>
<path d="M61.1201 92.8705L70.317 87.5254V76.5491L61.1201 81.8941V92.8705Z" fill="url(#paint22_linear_133_828)"/>
<path d="M49.5283 60.323L58.7252 54.978C58.7252 54.978 58.821 54.978 58.821 54.8826L49.5283 60.323C49.6241 60.2276 49.5283 60.323 49.5283 60.323Z" fill="black"/>
<path d="M56.6176 66.0498C56.8092 65.9544 57.0008 65.859 57.1924 65.7635C57.2882 65.7635 57.2882 65.6681 57.384 65.6681C57.4798 65.6681 57.5756 65.5726 57.6714 65.5726C57.7672 65.5726 57.9588 65.4772 58.0546 65.4772C58.1504 65.4772 58.1504 65.4772 58.2462 65.4772C58.2462 65.4772 58.2462 65.4772 58.342 65.4772C58.6294 65.4772 58.9168 65.3817 59.2042 65.3817C59.3 65.3817 59.3958 65.3817 59.4916 65.3817C59.6832 65.3817 59.9706 65.3817 60.1622 65.3817C60.5454 65.3817 60.9287 65.4772 61.3119 65.4772C61.4077 65.4772 61.5034 65.4772 61.5992 65.4772C61.695 65.4772 61.6951 65.4772 61.7909 65.4772C62.4615 65.5726 63.2278 65.7635 63.9942 65.8589C64.09 65.8589 64.0901 65.8589 64.1859 65.8589C64.9523 66.0498 65.8144 66.2407 66.6766 66.4316L68.1136 66.8134L58.9168 72.1584L57.4798 71.7766C56.6176 71.5857 55.7554 71.2994 54.989 71.2039C54.8932 71.2039 54.8932 71.2039 54.7974 71.2039C54.031 71.013 53.2646 70.9176 52.594 70.8222C52.4982 70.8222 52.3066 70.8222 52.2108 70.7267C51.8276 70.6313 51.4444 70.6313 51.0612 70.6313C50.7738 70.6313 50.5822 70.6313 50.3906 70.6313C50.2948 70.6313 50.199 70.6313 50.1032 70.6313C49.8158 70.6313 49.5284 70.7267 49.241 70.7267C49.1452 70.7267 49.1452 70.7267 49.0494 70.7267C48.762 70.8222 48.5704 70.8222 48.283 70.9176C47.9956 71.0131 47.804 71.1085 47.5166 71.2994L56.6176 66.0498Z" fill="url(#paint23_linear_133_828)"/>
<path d="M61.6949 93.1567C61.5033 93.0613 61.3117 92.9659 61.1201 92.8704L70.3169 87.5254C70.9875 87.8117 71.5623 88.0981 72.2329 88.289C72.3287 88.289 72.4245 88.289 72.4245 88.3844C72.9993 88.5753 73.5741 88.7662 74.1489 88.8616C74.7238 88.9571 75.2027 89.0526 75.7775 89.148C75.8733 89.148 75.9692 89.148 76.1608 89.148C76.6398 89.2434 77.1188 89.2435 77.5978 89.2435C77.8852 89.2435 78.1726 89.2435 78.3642 89.2435C78.5558 89.2435 78.8432 89.2435 79.0348 89.2435C79.418 89.2435 79.8011 89.148 80.1844 89.148C80.376 89.148 80.4718 89.0525 80.6634 89.0525H80.7592C80.855 89.0525 80.9507 89.0525 81.0465 88.9571C81.2381 88.9571 81.334 88.8616 81.4298 88.8616C81.5256 88.8616 81.6214 88.7662 81.7172 88.7662L72.5203 94.1112C72.4245 94.1112 72.4246 94.2067 72.3288 94.2067C72.233 94.2067 72.0413 94.3021 71.9455 94.3021C71.8497 94.3021 71.7539 94.3021 71.6581 94.3976H71.5623C71.3707 94.3976 71.2749 94.493 71.0833 94.493C70.7959 94.5885 70.5085 94.5884 70.1253 94.5884H70.0295C69.8379 94.5884 69.5505 94.5884 69.3589 94.5884C69.1673 94.5884 68.9757 94.5884 68.7841 94.5884C68.6883 94.5884 68.5925 94.5884 68.5925 94.5884C68.1135 94.5884 67.6345 94.493 67.1555 94.493C67.0597 94.493 66.9639 94.493 66.7723 94.493C66.6765 94.493 66.5807 94.493 66.4849 94.493C66.1017 94.3976 65.6227 94.3976 65.2395 94.3021C64.9521 94.2067 64.5689 94.1112 64.2815 94.1112C63.9941 94.0158 63.8025 93.9203 63.5151 93.9203C63.4193 93.9203 63.3235 93.9203 63.3235 93.8249C62.5571 93.4431 62.1739 93.2522 61.6949 93.1567Z" fill="url(#paint24_linear_133_828)"/>
<path d="M75.8735 103.56L85.0703 98.2155L81.7173 88.6708L72.5205 94.0158L75.8735 103.56Z" fill="url(#paint25_linear_133_828)"/>
<path d="M62.6528 73.2084H62.557C62.1738 73.1129 61.6948 73.0175 61.2158 72.922L70.4127 67.577C70.8917 67.6725 71.3707 67.7679 71.7539 67.8634C71.9455 67.8634 72.0413 67.8634 72.2329 67.9588C72.4245 67.9588 72.6161 68.0543 72.8077 68.0543C73.0951 68.0543 73.3825 68.0543 73.5741 68.0543C73.8615 68.0543 74.0531 67.9588 74.3405 67.9588C74.4363 67.9588 74.6279 67.8634 74.7237 67.7679L65.5268 73.1129C65.431 73.1129 65.431 73.2084 65.3352 73.2084C65.2394 73.2084 65.2394 73.2084 65.1436 73.3038C65.0478 73.3038 64.952 73.3038 64.8562 73.3993C64.7604 73.3993 64.5688 73.3993 64.3772 73.4947C64.1856 73.4947 63.8982 73.4947 63.7066 73.4947H63.6108C63.4192 73.4947 63.2276 73.4947 63.036 73.3993C62.8444 73.2084 62.7486 73.2084 62.6528 73.2084Z" fill="url(#paint26_linear_133_828)"/>
<path d="M61.1201 72.9221L70.4128 67.577V57.2688L61.2159 62.6138L61.1201 72.9221Z" fill="url(#paint27_linear_133_828)"/>
<path d="M48.2835 50.9693C48.0919 50.9693 47.9003 50.9693 47.7087 50.9693C47.4213 50.9693 47.1339 51.0647 46.8465 51.0647C46.5591 51.0647 46.3675 51.1602 46.0801 51.1602L55.2769 45.8152C55.4685 45.8152 55.5643 45.7197 55.7559 45.7197C55.8517 45.7197 55.9475 45.7197 56.0433 45.7197C56.3307 45.7197 56.6181 45.6243 56.9055 45.6243C57.0013 45.6243 57.0971 45.6243 57.1929 45.6243C57.2887 45.6243 57.3845 45.6243 57.4803 45.6243C57.9593 45.6243 58.3425 45.6243 58.8215 45.6243C58.9173 45.6243 59.0131 45.6243 59.1089 45.6243H59.2047C59.6837 45.6243 60.2585 45.7197 60.8333 45.7197C60.9291 45.7197 61.1207 45.7197 61.2165 45.8152C61.3123 45.8152 61.5039 45.9106 61.6955 45.9106C62.0787 46.0061 62.4619 46.1015 62.8451 46.197C62.9409 46.197 63.0367 46.1969 63.1325 46.2924C63.3241 46.3878 63.5157 46.3878 63.7073 46.4833C63.8989 46.5787 64.0905 46.5787 64.1863 46.6742C64.5695 46.7696 65.0485 46.9605 65.5275 47.1514C65.6233 47.1514 65.7191 47.2469 65.8149 47.2469C65.8149 47.2469 65.8149 47.2469 65.9107 47.2469C66.4855 47.4378 67.0603 47.7241 67.6351 48.0104L58.4383 53.3555C57.8635 53.0691 57.2887 52.7828 56.7139 52.5919C56.6181 52.5919 56.5223 52.4964 56.4265 52.4964C55.9475 52.3055 55.5643 52.2101 55.0853 52.0192C54.8937 51.9237 54.7021 51.9238 54.6063 51.8283C54.3189 51.7329 54.0315 51.6374 53.7441 51.542C53.3609 51.4465 52.9777 51.3511 52.5945 51.2556C52.3071 51.1602 52.0197 51.1602 51.7323 51.0647C51.1575 50.9693 50.6785 50.9693 50.1037 50.9693C50.0079 50.9693 49.9121 50.9693 49.8163 50.9693C49.2415 50.9693 48.7625 50.9693 48.2835 50.9693Z" fill="url(#paint28_linear_133_828)"/>
<path d="M63.9945 56.8871C63.2281 56.3144 62.5575 55.7417 61.6953 55.169L70.8921 49.824C71.6585 50.3012 72.4249 50.8739 73.1913 51.542C73.2871 51.6375 73.2871 51.6375 73.3829 51.7329C74.0535 52.3056 74.7241 52.8783 75.3947 53.5464C75.4905 53.6419 75.4906 53.6419 75.5864 53.7373C75.6822 53.8327 75.7779 53.9282 75.9696 54.1191C76.3528 54.5009 76.736 54.9781 77.1192 55.3599C77.1192 55.3599 77.1191 55.3599 77.2149 55.4553C77.4065 55.6462 77.5981 55.8371 77.6939 56.1235C77.8855 56.3144 77.9813 56.5053 78.1729 56.6962C78.1729 56.6962 78.1729 56.6962 78.1729 56.7916C78.4603 57.1734 78.7478 57.4597 78.9394 57.8415C78.9394 57.8415 78.9394 57.937 79.0352 57.937C79.131 58.0324 79.131 58.1279 79.2268 58.2233C79.4184 58.4142 79.5142 58.6051 79.7058 58.8914C79.8016 59.0823 79.8974 59.2732 79.9932 59.4641C80.089 59.655 80.1848 59.7505 80.2806 59.9413C80.4722 60.2277 80.6638 60.514 80.7596 60.8004C80.9512 61.0867 81.047 61.3731 81.2386 61.6594C81.3344 61.7548 81.3344 61.9457 81.4302 62.0412C81.4302 62.1366 81.526 62.2321 81.526 62.3275C81.526 62.423 81.6218 62.5184 81.6218 62.6139C81.8134 62.9957 81.9092 63.282 82.005 63.6638C82.005 63.7592 82.005 63.7592 82.1008 63.8547C82.1966 64.141 82.2924 64.5228 82.484 64.8091C82.5798 65 82.5798 65.0955 82.5798 65.2864C82.6756 65.4773 82.6756 65.6682 82.7714 65.9545C82.8672 66.1454 82.8672 66.3363 82.963 66.5272C82.963 66.7181 83.0588 66.8135 83.0588 67.0044C83.0588 67.0999 83.0588 67.0999 83.0588 67.1953C83.0588 67.3862 83.1546 67.5771 83.1546 67.768C83.2504 68.0543 83.2504 68.3407 83.3462 68.7225C83.3462 68.8179 83.3462 68.8179 83.3462 68.9133C83.3462 69.1997 83.442 69.3906 83.442 69.6769C83.442 69.8678 83.442 69.9633 83.442 70.1542C83.442 70.6314 83.5378 71.1086 83.5378 71.6813C83.5378 73.3993 83.3462 74.8311 82.8672 75.7855C82.484 76.6446 81.9092 77.3127 81.1428 77.6945L71.9459 83.0395C72.7123 82.5623 73.2871 81.9896 73.6703 81.1306C74.1494 80.1761 74.3409 78.7444 74.3409 77.0263C74.3409 76.5491 74.341 76.0719 74.2452 75.4992C74.2452 75.3083 74.2452 75.2128 74.2452 75.0219C74.2452 74.7356 74.1494 74.3538 74.1494 74.0675C74.1494 73.7811 74.0535 73.4948 73.9577 73.113C73.9577 72.8267 73.8619 72.6358 73.8619 72.3494C73.8619 72.1585 73.7662 72.0631 73.7662 71.8722C73.6704 71.4904 73.5745 71.0132 73.3829 70.6314C73.1913 70.1542 73.0955 69.6769 72.9039 69.1997C72.9039 69.1043 72.904 69.1042 72.8082 69.0088C72.6166 68.5316 72.4249 68.1498 72.2333 67.6726C72.2333 67.5771 72.1375 67.4817 72.1375 67.3862C71.9459 67.0044 71.7543 66.5272 71.5627 66.1454C71.2753 65.6682 71.0837 65.1909 70.7963 64.7137C70.5089 64.3319 70.3173 63.9501 70.0299 63.5683C69.9341 63.4729 69.9341 63.3774 69.8383 63.3774C69.5509 62.9957 69.2635 62.6139 68.9761 62.1366C68.8803 61.9457 68.6887 61.7548 68.4971 61.5639C68.3055 61.373 68.1139 61.0867 67.9223 60.8958C67.5391 60.4186 67.1559 60.0368 66.7727 59.655C66.5811 59.4641 66.3895 59.2732 66.2937 59.1778C65.6231 58.5096 64.9525 57.937 64.2819 57.3643C64.0903 56.9825 63.9945 56.9825 63.9945 56.8871Z" fill="url(#paint29_linear_133_828)"/>
<path d="M61.6948 48.774L70.9874 43.429L67.6344 41.52L58.3418 46.7696L61.6948 48.774Z" fill="url(#paint30_linear_133_828)"/>
<path d="M61.6953 55.2644L70.8921 49.9194L70.9879 43.429L61.6953 48.774V55.2644Z" fill="url(#paint31_linear_133_828)"/>
<path d="M45.6005 73.2084C45.0257 74.2583 44.7383 75.8809 44.7383 77.9808C44.7383 80.3669 45.1215 82.5622 45.7921 84.5666C46.5585 86.6664 47.5165 88.5754 48.7619 90.3889C50.0073 92.2023 51.4443 93.8249 53.0729 95.2566C54.7015 96.7838 56.4259 98.0246 58.2461 99.17V106.138L61.5991 108.047V100.983C64.1857 102.224 66.7723 103.083 69.1673 103.561C71.6581 103.942 73.8615 103.942 75.8734 103.465L72.5203 93.9204C72.2329 94.1113 71.7539 94.2067 70.9875 94.3976C70.2211 94.4931 69.359 94.5885 68.4009 94.4931C67.3471 94.3976 66.1975 94.3022 65.0479 94.0159C63.8025 93.7295 62.5571 93.3477 61.2159 92.775V81.7986C61.5033 81.8941 61.8865 81.9895 62.1739 82.085C62.5571 82.1804 62.8445 82.2759 63.2277 82.2759C65.1437 82.7531 66.7723 83.0394 68.1135 83.1349C69.5505 83.2303 70.7001 83.0394 71.5623 82.6576C72.5203 82.2759 73.191 81.5123 73.67 80.5578C74.149 79.6034 74.3405 78.1716 74.3405 76.4536C74.3405 74.3538 74.0531 72.254 73.3825 70.1541C72.7119 68.0543 71.8498 66.1454 70.7001 64.3319C69.5505 62.5184 68.2093 60.8003 66.6765 59.1777C65.1437 57.6506 63.4193 56.2189 61.6949 55.0735V48.5831L58.3419 46.6742V53.0691C55.8511 51.8283 53.6477 51.1602 51.5401 50.8739C49.4325 50.5875 47.7081 50.683 46.0795 50.9693L49.4325 60.0368C49.6241 59.8459 50.1031 59.7504 50.6779 59.655C51.2527 59.5595 52.0191 59.5595 52.8813 59.5595C53.7435 59.5595 54.6057 59.7504 55.6595 59.9413C56.6175 60.1322 57.6713 60.514 58.8209 60.9912V71.9676L57.3839 71.5858C55.4679 71.1086 53.7435 70.7268 52.1149 70.4405C50.5821 70.2496 49.2409 70.2496 48.0913 70.6314C47.0375 71.3949 46.1753 72.1585 45.6005 73.2084ZM58.7251 91.6297C54.7973 89.2435 52.7855 86.571 52.8813 83.6121C52.8813 82.1804 53.3603 81.3214 54.4141 81.1305C55.4679 80.9396 56.9049 81.0351 58.7251 81.4169V91.6297ZM61.1201 72.9221V62.6138C64.6647 64.9045 66.3891 67.577 66.3891 70.7268C66.3891 72.1585 65.9101 73.0175 65.0479 73.2084C64.2815 73.3993 62.9403 73.3039 61.1201 72.9221Z" fill="white"/>
<defs>
<linearGradient id="paint0_linear_133_828" x1="35.7792" y1="139.688" x2="91.4128" y2="43.5519" gradientUnits="userSpaceOnUse">
<stop offset="0.348958" stop-color="#4BF6FF" stop-opacity="0.03"/>
<stop offset="0.8542" stop-color="#1E959B"/>
<stop offset="1" stop-color="#026D73"/>
</linearGradient>
<linearGradient id="paint1_linear_133_828" x1="21.6929" y1="131.378" x2="50.7406" y2="76.0452" gradientUnits="userSpaceOnUse">
<stop offset="0.421875" stop-color="#4BF6FF" stop-opacity="0.03"/>
<stop offset="0.8542" stop-color="#1E959B"/>
<stop offset="1" stop-color="#026D73"/>
</linearGradient>
<linearGradient id="paint2_linear_133_828" x1="104.405" y1="9.18086" x2="97.4239" y2="9.18086" gradientUnits="userSpaceOnUse">
<stop offset="0.1592" stop-color="#F05670"/>
<stop offset="1" stop-color="#802E3C"/>
</linearGradient>
<linearGradient id="paint3_linear_133_828" x1="101.212" y1="19.8032" x2="91.9388" y2="19.8032" gradientUnits="userSpaceOnUse">
<stop offset="0.1592" stop-color="#F05670"/>
<stop offset="1" stop-color="#802E3C"/>
</linearGradient>
<linearGradient id="paint4_linear_133_828" x1="103.313" y1="30.524" x2="88.0681" y2="30.524" gradientUnits="userSpaceOnUse">
<stop offset="0.1592" stop-color="#F05670"/>
<stop offset="1" stop-color="#802E3C"/>
</linearGradient>
<linearGradient id="paint5_linear_133_828" x1="104.803" y1="41.8531" x2="87.0713" y2="41.8531" gradientUnits="userSpaceOnUse">
<stop offset="0.1592" stop-color="#F05670"/>
<stop offset="1" stop-color="#802E3C"/>
</linearGradient>
<linearGradient id="paint6_linear_133_828" x1="108.73" y1="56.775" x2="91.2181" y2="56.775" gradientUnits="userSpaceOnUse">
<stop offset="0.1592" stop-color="#F05670"/>
<stop offset="1" stop-color="#802E3C"/>
</linearGradient>
<linearGradient id="paint7_linear_133_828" x1="111.6" y1="22.7728" x2="102.326" y2="22.7728" gradientUnits="userSpaceOnUse">
<stop offset="0.1592" stop-color="#F05670"/>
<stop offset="1" stop-color="#802E3C"/>
</linearGradient>
<linearGradient id="paint8_linear_133_828" x1="116.638" y1="35.1854" x2="103.355" y2="35.1854" gradientUnits="userSpaceOnUse">
<stop offset="0.1592" stop-color="#F05670"/>
<stop offset="1" stop-color="#802E3C"/>
</linearGradient>
<linearGradient id="paint9_linear_133_828" x1="119.963" y1="46.5536" x2="106.649" y2="46.5536" gradientUnits="userSpaceOnUse">
<stop offset="0.1592" stop-color="#F05670"/>
<stop offset="1" stop-color="#802E3C"/>
</linearGradient>
<linearGradient id="paint10_linear_133_828" x1="123.48" y1="56.6483" x2="108.718" y2="56.6483" gradientUnits="userSpaceOnUse">
<stop offset="0.1592" stop-color="#F05670"/>
<stop offset="1" stop-color="#802E3C"/>
</linearGradient>
<linearGradient id="paint11_linear_133_828" x1="143.115" y1="14.4409" x2="131.633" y2="14.4409" gradientUnits="userSpaceOnUse">
<stop offset="0.00558659" stop-color="#67C5C9"/>
<stop offset="0.4428" stop-color="#65C4C8"/>
<stop offset="0.6236" stop-color="#5EBFC3"/>
<stop offset="0.7571" stop-color="#52B7BB"/>
<stop offset="0.8672" stop-color="#40ABB0"/>
<stop offset="0.962" stop-color="#299DA2"/>
<stop offset="1" stop-color="#1E959B"/>
</linearGradient>
<linearGradient id="paint12_linear_133_828" x1="130.818" y1="21.504" x2="124.964" y2="21.504" gradientUnits="userSpaceOnUse">
<stop offset="0.00558659" stop-color="#67C5C9"/>
<stop offset="0.4428" stop-color="#65C4C8"/>
<stop offset="0.6236" stop-color="#5EBFC3"/>
<stop offset="0.7571" stop-color="#52B7BB"/>
<stop offset="0.8672" stop-color="#40ABB0"/>
<stop offset="0.962" stop-color="#299DA2"/>
<stop offset="1" stop-color="#1E959B"/>
</linearGradient>
<linearGradient id="paint13_linear_133_828" x1="123.5" y1="30.0242" x2="115.581" y2="30.0242" gradientUnits="userSpaceOnUse">
<stop offset="0.00558659" stop-color="#67C5C9"/>
<stop offset="0.4428" stop-color="#65C4C8"/>
<stop offset="0.6236" stop-color="#5EBFC3"/>
<stop offset="0.7571" stop-color="#52B7BB"/>
<stop offset="0.8672" stop-color="#40ABB0"/>
<stop offset="0.962" stop-color="#299DA2"/>
<stop offset="1" stop-color="#1E959B"/>
</linearGradient>
<linearGradient id="paint14_linear_133_828" x1="117.438" y1="39.5345" x2="107.996" y2="39.5345" gradientUnits="userSpaceOnUse">
<stop offset="0.00558659" stop-color="#67C5C9"/>
<stop offset="0.4428" stop-color="#65C4C8"/>
<stop offset="0.6236" stop-color="#5EBFC3"/>
<stop offset="0.7571" stop-color="#52B7BB"/>
<stop offset="0.8672" stop-color="#40ABB0"/>
<stop offset="0.962" stop-color="#299DA2"/>
<stop offset="1" stop-color="#1E959B"/>
</linearGradient>
<linearGradient id="paint15_linear_133_828" x1="112.828" y1="54.1016" x2="103.632" y2="54.1016" gradientUnits="userSpaceOnUse">
<stop offset="0.00558659" stop-color="#67C5C9"/>
<stop offset="0.4428" stop-color="#65C4C8"/>
<stop offset="0.6236" stop-color="#5EBFC3"/>
<stop offset="0.7571" stop-color="#52B7BB"/>
<stop offset="0.8672" stop-color="#40ABB0"/>
<stop offset="0.962" stop-color="#299DA2"/>
<stop offset="1" stop-color="#1E959B"/>
</linearGradient>
<linearGradient id="paint16_linear_133_828" x1="140.638" y1="28.3345" x2="126.132" y2="28.3345" gradientUnits="userSpaceOnUse">
<stop offset="0.00558659" stop-color="#67C5C9"/>
<stop offset="0.4428" stop-color="#65C4C8"/>
<stop offset="0.6236" stop-color="#5EBFC3"/>
<stop offset="0.7571" stop-color="#52B7BB"/>
<stop offset="0.8672" stop-color="#40ABB0"/>
<stop offset="0.962" stop-color="#299DA2"/>
<stop offset="1" stop-color="#1E959B"/>
</linearGradient>
<linearGradient id="paint17_linear_133_828" x1="137.954" y1="40.0221" x2="119.21" y2="40.0221" gradientUnits="userSpaceOnUse">
<stop offset="0.00558659" stop-color="#67C5C9"/>
<stop offset="0.4428" stop-color="#65C4C8"/>
<stop offset="0.6236" stop-color="#5EBFC3"/>
<stop offset="0.7571" stop-color="#52B7BB"/>
<stop offset="0.8672" stop-color="#40ABB0"/>
<stop offset="0.962" stop-color="#299DA2"/>
<stop offset="1" stop-color="#1E959B"/>
</linearGradient>
<linearGradient id="paint18_linear_133_828" x1="134.694" y1="51.0502" x2="114.756" y2="51.0502" gradientUnits="userSpaceOnUse">
<stop offset="0.00558659" stop-color="#67C5C9"/>
<stop offset="0.4428" stop-color="#65C4C8"/>
<stop offset="0.6236" stop-color="#5EBFC3"/>
<stop offset="0.7571" stop-color="#52B7BB"/>
<stop offset="0.8672" stop-color="#40ABB0"/>
<stop offset="0.962" stop-color="#299DA2"/>
<stop offset="1" stop-color="#1E959B"/>
</linearGradient>
<linearGradient id="paint19_linear_133_828" x1="131.309" y1="60.8467" x2="110.891" y2="60.8467" gradientUnits="userSpaceOnUse">
<stop offset="0.00558659" stop-color="#67C5C9"/>
<stop offset="0.4428" stop-color="#65C4C8"/>
<stop offset="0.6236" stop-color="#5EBFC3"/>
<stop offset="0.7571" stop-color="#52B7BB"/>
<stop offset="0.8672" stop-color="#40ABB0"/>
<stop offset="0.962" stop-color="#299DA2"/>
<stop offset="1" stop-color="#1E959B"/>
</linearGradient>
<linearGradient id="paint20_linear_133_828" x1="70.7907" y1="101.914" x2="61.5552" y2="101.914" gradientUnits="userSpaceOnUse">
<stop stop-color="#1E959B"/>
<stop offset="1" stop-color="#0F4A4D"/>
</linearGradient>
<linearGradient id="paint21_linear_133_828" x1="57.2051" y1="79.4465" x2="63.4906" y2="90.0928" gradientUnits="userSpaceOnUse">
<stop stop-color="#1E959B"/>
<stop offset="1" stop-color="#0F4A4D"/>
</linearGradient>
<linearGradient id="paint22_linear_133_828" x1="77.0442" y1="75.8819" x2="65.7197" y2="84.7773" gradientUnits="userSpaceOnUse">
<stop stop-color="#1E959B"/>
<stop offset="1" stop-color="#0F4A4D"/>
</linearGradient>
<linearGradient id="paint23_linear_133_828" x1="68.028" y1="68.8409" x2="47.383" y2="68.8409" gradientUnits="userSpaceOnUse">
<stop stop-color="#1E959B"/>
<stop offset="1" stop-color="#0F4A4D"/>
</linearGradient>
<linearGradient id="paint24_linear_133_828" x1="81.7156" y1="91.0596" x2="61.0949" y2="91.0596" gradientUnits="userSpaceOnUse">
<stop stop-color="#1E959B"/>
<stop offset="1" stop-color="#0F4A4D"/>
</linearGradient>
<linearGradient id="paint25_linear_133_828" x1="85.1064" y1="96.1001" x2="72.5165" y2="96.1001" gradientUnits="userSpaceOnUse">
<stop stop-color="#1E959B"/>
<stop offset="1" stop-color="#0F4A4D"/>
</linearGradient>
<linearGradient id="paint26_linear_133_828" x1="74.7301" y1="70.4515" x2="61.1516" y2="70.4515" gradientUnits="userSpaceOnUse">
<stop stop-color="#1E959B"/>
<stop offset="1" stop-color="#0F4A4D"/>
</linearGradient>
<linearGradient id="paint27_linear_133_828" x1="66.3602" y1="64.8218" x2="51.3687" y2="71.5534" gradientUnits="userSpaceOnUse">
<stop stop-color="#1E959B"/>
<stop offset="1" stop-color="#0F4A4D"/>
</linearGradient>
<linearGradient id="paint28_linear_133_828" x1="67.5786" y1="49.4232" x2="46.1619" y2="49.4232" gradientUnits="userSpaceOnUse">
<stop stop-color="#1E959B"/>
<stop offset="1" stop-color="#0F4A4D"/>
</linearGradient>
<linearGradient id="paint29_linear_133_828" x1="69.6581" y1="66.3472" x2="86.5442" y2="65.5542" gradientUnits="userSpaceOnUse">
<stop stop-color="#1E959B"/>
<stop offset="1" stop-color="#0F4A4D"/>
</linearGradient>
<linearGradient id="paint30_linear_133_828" x1="70.9398" y1="45.1079" x2="58.3809" y2="45.1079" gradientUnits="userSpaceOnUse">
<stop stop-color="#1E959B"/>
<stop offset="1" stop-color="#0F4A4D"/>
</linearGradient>
<linearGradient id="paint31_linear_133_828" x1="64.6368" y1="45.6548" x2="66.7961" y2="50.3833" gradientUnits="userSpaceOnUse">
<stop stop-color="#1E959B"/>
<stop offset="1" stop-color="#0F4A4D"/>
</linearGradient>
</defs>
</svg>
