<svg width="350" height="119" viewBox="0 0 350 119" fill="none" xmlns="http://www.w3.org/2000/svg" id="addApplication">
<g filter="url(#filter0_d_330_1128)">
<path d="M10 25C10 13.9543 18.9543 5 30 5H319.529C330.574 5 339.529 13.9543 339.529 25V84C339.529 95.0457 330.574 104 319.529 104H30C18.9543 104 10 95.0457 10 84V25Z" fill="#F05670"/>
</g>
<path d="M82.8952 61.816C81.1992 63.496 79.1352 64.336 76.7032 64.336C74.2712 64.336 72.2072 63.496 70.5112 61.816C68.8312 60.104 67.9912 58.032 67.9912 55.6C67.9912 53.152 68.8312 51.088 70.5112 49.408C72.2072 47.712 74.2712 46.864 76.7032 46.864C79.1352 46.864 81.1992 47.712 82.8952 49.408C84.5912 51.088 85.4392 53.152 85.4392 55.6C85.4392 58.048 84.5912 60.12 82.8952 61.816ZM72.8392 59.56C73.8632 60.584 75.1512 61.096 76.7032 61.096C78.2552 61.096 79.5432 60.584 80.5672 59.56C81.6072 58.52 82.1272 57.2 82.1272 55.6C82.1272 54 81.6072 52.68 80.5672 51.64C79.5272 50.6 78.2392 50.08 76.7032 50.08C75.1672 50.08 73.8792 50.6 72.8392 51.64C71.7992 52.68 71.2792 54 71.2792 55.6C71.2792 57.2 71.7992 58.52 72.8392 59.56ZM95.735 64.336C93.223 64.336 91.135 63.496 89.471 61.816C87.823 60.152 86.999 58.08 86.999 55.6C86.999 53.104 87.823 51.032 89.471 49.384C91.135 47.704 93.223 46.864 95.735 46.864C97.255 46.864 98.655 47.224 99.935 47.944C101.231 48.648 102.239 49.608 102.959 50.824L100.103 52.48C99.687 51.728 99.095 51.144 98.327 50.728C97.559 50.296 96.695 50.08 95.735 50.08C94.103 50.08 92.783 50.592 91.775 51.616C90.783 52.656 90.287 53.984 90.287 55.6C90.287 57.2 90.783 58.52 91.775 59.56C92.783 60.584 94.103 61.096 95.735 61.096C96.695 61.096 97.559 60.888 98.327 60.472C99.111 60.04 99.703 59.456 100.103 58.72L102.959 60.376C102.239 61.592 101.231 62.56 99.935 63.28C98.655 63.984 97.255 64.336 95.735 64.336ZM103.675 47.2H116.035V50.368H111.499V64H108.187V50.368H103.675V47.2ZM131.065 64H127.465L126.457 60.976H119.761L118.753 64H115.177L121.057 47.2H125.161L131.065 64ZM123.121 51.016L120.817 57.88H125.425L123.121 51.016ZM142.849 55.288C144.321 56.136 145.057 57.416 145.057 59.128C145.057 60.552 144.553 61.72 143.545 62.632C142.537 63.544 141.297 64 139.825 64H132.697V47.2H139.321C140.745 47.2 141.953 47.648 142.945 48.544C143.937 49.44 144.433 50.568 144.433 51.928C144.433 53.32 143.905 54.44 142.849 55.288ZM139.321 50.296H136.009V53.992H139.321C139.833 53.992 140.257 53.816 140.593 53.464C140.945 53.112 141.121 52.672 141.121 52.144C141.121 51.616 140.953 51.176 140.617 50.824C140.281 50.472 139.849 50.296 139.321 50.296ZM136.009 60.904H139.825C140.385 60.904 140.849 60.72 141.217 60.352C141.585 59.968 141.769 59.488 141.769 58.912C141.769 58.352 141.585 57.888 141.217 57.52C140.849 57.136 140.385 56.944 139.825 56.944H136.009V60.904ZM160.26 64H156.948V53.752L149.748 64H147.228V47.2H150.54V57.472L157.74 47.2H160.26V64ZM162.128 47.2H174.488V50.368H169.952V64H166.64V50.368H162.128V47.2ZM179.649 52.72H182.601C184.201 52.72 185.561 53.264 186.681 54.352C187.785 55.44 188.337 56.776 188.337 58.36C188.337 59.944 187.785 61.28 186.681 62.368C185.561 63.456 184.201 64 182.601 64H176.337V47.2H179.649V52.72ZM179.649 60.904H182.601C183.305 60.904 183.889 60.664 184.353 60.184C184.817 59.704 185.049 59.096 185.049 58.36C185.049 57.64 184.817 57.04 184.353 56.56C183.889 56.064 183.305 55.816 182.601 55.816H179.649V60.904ZM205.398 55.312C206.998 56.144 207.798 57.472 207.798 59.296C207.798 60.784 207.23 62 206.094 62.944C204.974 63.872 203.51 64.336 201.702 64.336C198.582 64.336 196.494 63.016 195.438 60.376L198.294 58.768C198.79 60.4 199.926 61.216 201.702 61.216C202.598 61.216 203.286 61.032 203.766 60.664C204.262 60.28 204.51 59.752 204.51 59.08C204.51 58.408 204.27 57.888 203.79 57.52C203.31 57.136 202.638 56.944 201.774 56.944H199.686V53.992H201.27C202.102 53.992 202.75 53.816 203.214 53.464C203.678 53.096 203.91 52.6 203.91 51.976C203.91 51.336 203.702 50.84 203.286 50.488C202.886 50.136 202.302 49.96 201.534 49.96C200.094 49.96 199.086 50.664 198.51 52.072L195.702 50.44C196.838 48.056 198.782 46.864 201.534 46.864C203.182 46.864 204.542 47.312 205.614 48.208C206.67 49.088 207.198 50.272 207.198 51.76C207.198 53.264 206.598 54.448 205.398 55.312ZM224.347 64H220.747L219.739 60.976H213.043L212.035 64H208.459L214.339 47.2H218.443L224.347 64ZM216.403 51.016L214.099 57.88H218.707L216.403 51.016ZM231.301 47.2H238.021V64H234.709V58.168H232.813L228.949 64H225.229L229.333 57.808C228.261 57.424 227.389 56.768 226.717 55.84C226.045 54.912 225.709 53.888 225.709 52.768C225.709 51.232 226.253 49.92 227.341 48.832C228.429 47.744 229.749 47.2 231.301 47.2ZM231.301 55.264H234.709V50.296H231.301C230.677 50.296 230.141 50.536 229.693 51.016C229.245 51.496 229.021 52.08 229.021 52.768C229.021 53.456 229.245 54.048 229.693 54.544C230.141 55.024 230.677 55.264 231.301 55.264ZM251.294 55.288C252.766 56.136 253.502 57.416 253.502 59.128C253.502 60.552 252.998 61.72 251.99 62.632C250.982 63.544 249.742 64 248.27 64H241.142V47.2H247.766C249.19 47.2 250.398 47.648 251.39 48.544C252.382 49.44 252.878 50.568 252.878 51.928C252.878 53.32 252.35 54.44 251.294 55.288ZM247.766 50.296H244.454V53.992H247.766C248.278 53.992 248.702 53.816 249.038 53.464C249.39 53.112 249.566 52.672 249.566 52.144C249.566 51.616 249.398 51.176 249.062 50.824C248.726 50.472 248.294 50.296 247.766 50.296ZM244.454 60.904H248.27C248.83 60.904 249.294 60.72 249.662 60.352C250.03 59.968 250.214 59.488 250.214 58.912C250.214 58.352 250.03 57.888 249.662 57.52C249.294 57.136 248.83 56.944 248.27 56.944H244.454V60.904ZM262.345 55.36L268.801 64H264.985L258.985 56.128V64H255.673V47.2H258.985V54.616L264.745 47.2H268.561L262.345 55.36ZM275.946 55.312L279.258 47.2H282.57L277.53 59.368C276.186 62.632 273.978 64.176 270.906 64V60.904C271.786 60.984 272.498 60.864 273.042 60.544C273.602 60.224 274.074 59.688 274.458 58.936L268.962 47.2H272.274L275.946 55.312Z" fill="white"/>
<defs>
<filter id="filter0_d_330_1128" x="0" y="0" width="349.528" height="119" filterUnits="userSpaceOnUse" color-interpolation-filters="sRGB">
<feFlood flood-opacity="0" result="BackgroundImageFix"/>
<feColorMatrix in="SourceAlpha" type="matrix" values="0 0 0 0 0 0 0 0 0 0 0 0 0 0 0 0 0 0 127 0" result="hardAlpha"/>
<feOffset dy="5"/>
<feGaussianBlur stdDeviation="5"/>
<feColorMatrix type="matrix" values="0 0 0 0 0.117647 0 0 0 0 0.584314 0 0 0 0 0.607843 0 0 0 0.5 0"/>
<feBlend mode="normal" in2="BackgroundImageFix" result="effect1_dropShadow_330_1128"/>
<feBlend mode="normal" in="SourceGraphic" in2="effect1_dropShadow_330_1128" result="shape"/>
</filter>
</defs>
</svg>
