<svg width="227" height="83" viewBox="0 0 227 83" fill="none" xmlns="http://www.w3.org/2000/svg" id="order">
<g filter="url(#filter0_d_330_783)">
<path d="M10 25C10 13.9543 18.9543 5 30 5H196.582C207.628 5 216.582 13.9543 216.582 25V47.0632C216.582 58.1089 207.627 67.0632 196.582 67.0632H30C18.9543 67.0632 10 58.1089 10 47.0632V25Z" fill="#F05670"/>
</g>
<path d="M85.9286 35.7821C86.8619 36.2674 87.3286 37.0421 87.3286 38.1061C87.3286 38.9741 86.9973 39.6834 86.3346 40.2341C85.6813 40.7754 84.8273 41.0461 83.7726 41.0461C81.9526 41.0461 80.7346 40.2761 80.1186 38.7361L81.7846 37.7981C82.0739 38.7501 82.7366 39.2261 83.7726 39.2261C84.2953 39.2261 84.6966 39.1188 84.9766 38.9041C85.2659 38.6801 85.4106 38.3721 85.4106 37.9801C85.4106 37.5881 85.2706 37.2848 84.9906 37.0701C84.7106 36.8461 84.3186 36.7341 83.8146 36.7341H82.5966V35.0121H83.5206C84.0059 35.0121 84.3839 34.9094 84.6546 34.7041C84.9253 34.4894 85.0606 34.2001 85.0606 33.8361C85.0606 33.4628 84.9393 33.1734 84.6966 32.9681C84.4633 32.7628 84.1226 32.6601 83.6746 32.6601C82.8346 32.6601 82.2466 33.0708 81.9106 33.8921L80.2726 32.9401C80.9353 31.5494 82.0693 30.8541 83.6746 30.8541C84.6359 30.8541 85.4293 31.1154 86.0546 31.6381C86.6706 32.1514 86.9786 32.8421 86.9786 33.7101C86.9786 34.5874 86.6286 35.2781 85.9286 35.7821ZM96.9823 40.8501H94.8823L94.2943 39.0861H90.3883L89.8003 40.8501H87.7143L91.1443 31.0501H93.5383L96.9823 40.8501ZM92.3483 33.2761L91.0043 37.2801H93.6923L92.3483 33.2761ZM101.826 35.8101L105.592 40.8501H103.366L99.8658 36.2581V40.8501H97.9338V31.0501H99.8658V35.3761L103.226 31.0501H105.452L101.826 35.8101ZM115.193 40.8501H113.093L112.505 39.0861H108.599L108.011 40.8501H105.925L109.355 31.0501H111.749L115.193 40.8501ZM110.559 33.2761L109.215 37.2801H111.903L110.559 33.2761ZM121.339 35.7821C122.272 36.2674 122.739 37.0421 122.739 38.1061C122.739 38.9741 122.407 39.6834 121.745 40.2341C121.091 40.7754 120.237 41.0461 119.183 41.0461C117.363 41.0461 116.145 40.2761 115.529 38.7361L117.195 37.7981C117.484 38.7501 118.147 39.2261 119.183 39.2261C119.705 39.2261 120.107 39.1188 120.387 38.9041C120.676 38.6801 120.821 38.3721 120.821 37.9801C120.821 37.5881 120.681 37.2848 120.401 37.0701C120.121 36.8461 119.729 36.7341 119.225 36.7341H118.007V35.0121H118.931C119.416 35.0121 119.794 34.9094 120.065 34.7041C120.335 34.4894 120.471 34.2001 120.471 33.8361C120.471 33.4628 120.349 33.1734 120.107 32.9681C119.873 32.7628 119.533 32.6601 119.085 32.6601C118.245 32.6601 117.657 33.0708 117.321 33.8921L115.683 32.9401C116.345 31.5494 117.479 30.8541 119.085 30.8541C120.046 30.8541 120.839 31.1154 121.465 31.6381C122.081 32.1514 122.389 32.8421 122.389 33.7101C122.389 34.5874 122.039 35.2781 121.339 35.7821ZM132.392 40.8501H130.292L129.704 39.0861H125.798L125.21 40.8501H123.124L126.554 31.0501H128.948L132.392 40.8501ZM127.758 33.2761L126.414 37.2801H129.102L127.758 33.2761ZM131.905 31.0501H139.115V32.8981H136.469V40.8501H134.537V32.8981H131.905V31.0501ZM142.126 34.2701H143.848C144.781 34.2701 145.574 34.5874 146.228 35.2221C146.872 35.8568 147.194 36.6361 147.194 37.5601C147.194 38.4841 146.872 39.2634 146.228 39.8981C145.574 40.5328 144.781 40.8501 143.848 40.8501H140.194V31.0501H142.126V34.2701ZM142.126 39.0441H143.848C144.258 39.0441 144.599 38.9041 144.87 38.6241C145.14 38.3441 145.276 37.9894 145.276 37.5601C145.276 37.1401 145.14 36.7901 144.87 36.5101C144.599 36.2208 144.258 36.0761 143.848 36.0761H142.126V39.0441Z" fill="white"/>
<defs>
<filter id="filter0_d_330_783" x="0" y="0" width="226.582" height="82.0632" filterUnits="userSpaceOnUse" color-interpolation-filters="sRGB">
<feFlood flood-opacity="0" result="BackgroundImageFix"/>
<feColorMatrix in="SourceAlpha" type="matrix" values="0 0 0 0 0 0 0 0 0 0 0 0 0 0 0 0 0 0 127 0" result="hardAlpha"/>
<feOffset dy="5"/>
<feGaussianBlur stdDeviation="5"/>
<feColorMatrix type="matrix" values="0 0 0 0 0.117647 0 0 0 0 0.584314 0 0 0 0 0.607843 0 0 0 0.5 0"/>
<feBlend mode="normal" in2="BackgroundImageFix" result="effect1_dropShadow_330_783"/>
<feBlend mode="normal" in="SourceGraphic" in2="effect1_dropShadow_330_783" result="shape"/>
</filter>
</defs>
</svg>
