<svg width="232" height="56" viewBox="0 0 232 56" fill="none" xmlns="http://www.w3.org/2000/svg" id="logo">
<g clip-path="url(#clip0_120_1417)">
<path d="M205.128 55.2285H204.948L133.431 50.0551L45.4854 54.094L45.3954 54.0486L1.5127 27.3193L2.18781 27.0016L61.5982 1.31604H61.6432L130.055 5.30956L209.584 3.04051L209.719 3.17666L230.018 27.3647L229.793 27.6369L205.128 55.2285ZM133.476 49.2836L204.813 54.457L229.028 27.3647L209.269 3.85737L130.055 6.12641L61.7333 2.1329L3.17799 27.4554L45.6654 53.3225L133.476 49.2836Z" fill="url(#paint0_linear_120_1417)"/>
<path d="M205.443 55.5463L204.767 55.0924L180.373 39.073L134.15 49.7829L134.555 50.0552L133.79 49.919V50.2367L133.385 49.9644L133.25 50.0552V49.9644L131.81 50.2821L132.62 49.8283L71.3191 39.3907L44.9895 54.321L45.2595 53.5495L50.7505 35.8963L0.431641 27.3647L56.3314 17.8801L61.5073 1.22534L61.8674 1.45225L80.3656 13.7958L129.199 5.49114L128.479 4.99195L129.739 5.26424V5.17348L129.964 5.30962L130.279 5.1281V5.355L131.315 5.17348L130.865 5.44576L196.216 14.5219H196.261L196.441 14.5673L209.448 3.04058L209.898 3.53977L197.386 14.6127H197.791L197.341 14.885L229.612 27.0924L229.792 27.1378L230.152 27.274L230.647 27.3647L230.512 27.4101L230.602 27.4555L229.567 27.7278L200.942 34.3534L205.443 55.5463ZM181.228 38.9369L204.452 54.1848L200.312 34.4895L181.228 38.9369ZM51.3806 36.0325L46.1147 53.0049L70.2839 39.2545L51.3806 36.0325ZM130.414 6.35338L133.745 49.1476L167.366 30.5868L130.414 6.35338ZM72.2192 38.9369L131.99 49.1022L96.2984 25.2318L72.2192 38.9369ZM96.9286 24.8688L133.07 49.0114L129.739 6.21724L96.9286 24.8688ZM167.996 30.9952L135.68 48.8299L179.653 38.6192L167.996 30.9952ZM51.5606 35.3971L71.184 38.7553L95.6683 24.8234L80.1856 14.4766L56.8265 18.4247L51.5606 35.3971ZM168.626 30.6322L180.508 38.3923L200.222 33.8088L197.476 20.6937L189.735 19.0146L168.626 30.6322ZM4.30232 27.3647L50.9305 35.3064L56.1064 18.5608L4.30232 27.3647ZM198.106 20.8753L200.807 33.7181L227.992 27.4101L198.106 20.8753ZM131.675 6.39876L167.996 30.2237L188.7 18.8331L131.675 6.39876ZM197.971 20.1492L225.246 26.0941L196.936 15.3842L197.971 20.1492ZM81.1308 14.3404L96.3435 24.5057L128.299 6.35338L81.1308 14.3404ZM190.545 18.5608L197.296 20.013L196.306 15.3842L190.545 18.5608ZM138.336 7.17024L189.555 18.3339L195.496 15.0665L191.67 14.5219L138.336 7.17024ZM61.8674 2.22372L57.0516 17.744L79.4205 13.932L61.8674 2.22372Z" fill="url(#paint1_linear_120_1417)"/>
<path d="M130.055 6.85254C130.676 6.85254 131.18 6.3446 131.18 5.71802C131.18 5.09144 130.676 4.5835 130.055 4.5835C129.433 4.5835 128.93 5.09144 128.93 5.71802C128.93 6.3446 129.433 6.85254 130.055 6.85254Z" fill="#1E959B"/>
<path d="M45.5755 55.41C46.5201 55.41 47.2858 54.6379 47.2858 53.6855C47.2858 52.7331 46.5201 51.9611 45.5755 51.9611C44.631 51.9611 43.8652 52.7331 43.8652 53.6855C43.8652 54.6379 44.631 55.41 45.5755 55.41Z" fill="#1E959B"/>
<path d="M204.948 56C205.57 56 206.074 55.4921 206.074 54.8655C206.074 54.2389 205.57 53.731 204.948 53.731C204.327 53.731 203.823 54.2389 203.823 54.8655C203.823 55.4921 204.327 56 204.948 56Z" fill="#1E959B"/>
<path d="M229.523 29.0892C230.467 29.0892 231.233 28.3171 231.233 27.3647C231.233 26.4123 230.467 25.6403 229.523 25.6403C228.578 25.6403 227.812 26.4123 227.812 27.3647C227.812 28.3171 228.578 29.0892 229.523 29.0892Z" fill="#1E959B"/>
<path d="M209.449 5.49114C210.568 5.49114 211.475 4.57684 211.475 3.449C211.475 2.32116 210.568 1.40686 209.449 1.40686C208.331 1.40686 207.424 2.32116 207.424 3.449C207.424 4.57684 208.331 5.49114 209.449 5.49114Z" fill="#1E959B"/>
<path d="M133.476 52.0064C134.744 52.0064 135.771 50.9702 135.771 49.692C135.771 48.4138 134.744 47.3776 133.476 47.3776C132.208 47.3776 131.181 48.4138 131.181 49.692C131.181 50.9702 132.208 52.0064 133.476 52.0064Z" fill="#1E959B"/>
<path d="M2.36767 29.6791C3.63538 29.6791 4.66307 28.6429 4.66307 27.3647C4.66307 26.0865 3.63538 25.0503 2.36767 25.0503C1.09995 25.0503 0.0722656 26.0865 0.0722656 27.3647C0.0722656 28.6429 1.09995 29.6791 2.36767 29.6791Z" fill="#1E959B"/>
<path d="M61.6878 3.44895C62.6324 3.44895 63.3981 2.67687 63.3981 1.72447C63.3981 0.772073 62.6324 0 61.6878 0C60.7433 0 59.9775 0.772073 59.9775 1.72447C59.9775 2.67687 60.7433 3.44895 61.6878 3.44895Z" fill="#1E959B"/>
<path d="M31.1279 14.8395C32.7032 15.5656 33.8734 16.564 34.7286 17.8801C35.5837 19.1961 35.9888 20.739 35.9888 22.5089C35.9888 24.2788 35.5837 25.8217 34.7286 27.1377C33.8734 28.4538 32.7032 29.4522 31.1279 30.1783C29.5527 30.859 27.7523 31.222 25.637 31.222H20.7761V37.8476H15.2852V13.7958H25.592C27.7073 13.7958 29.5527 14.1134 31.1279 14.8395ZM29.1026 25.5948C29.9577 24.8687 30.4078 23.8703 30.4078 22.5089C30.4078 21.1475 29.9577 20.1037 29.1026 19.3776C28.2474 18.6515 26.9872 18.2885 25.3219 18.2885H20.8211V26.6386H25.3219C26.9422 26.6839 28.2024 26.3209 29.1026 25.5948ZM48.726 32.5381H45.4404V37.8476H40.0395V18.0616H48.9511C51.6515 18.0616 53.8119 18.6969 55.3872 20.013C56.9625 21.329 57.7726 23.0989 57.7726 25.3679C57.7726 26.8201 57.4126 28.0454 56.7374 29.1345C56.0623 30.1783 55.0721 31.0405 53.8119 31.6305L58.1777 37.8476H52.3717L48.726 32.5381ZM51.4265 23.0989C50.7964 22.5543 49.8512 22.3274 48.591 22.3274H45.4404V28.4538H48.591C49.8512 28.4538 50.7964 28.1815 51.4265 27.6823C52.0566 27.1377 52.3717 26.4117 52.3717 25.4133C52.3717 24.3695 52.0566 23.598 51.4265 23.0989ZM65.919 36.8946C64.2988 36.0778 62.9485 34.8071 62.0034 33.2188C61.0582 31.6758 60.5631 29.906 60.5631 27.9546C60.5631 26.0032 61.0582 24.2334 62.0034 22.6904C62.9485 21.1021 64.2988 19.8314 65.919 19.0146C67.5843 18.1523 69.4747 17.6985 71.545 17.6985C73.6154 17.6985 75.5057 18.1523 77.171 19.0146C78.7913 19.8314 80.1415 21.1475 81.0867 22.6904C82.0319 24.2788 82.5269 26.0032 82.5269 27.9546C82.5269 29.906 82.0319 31.6758 81.0867 33.2188C80.1415 34.7617 78.7913 36.0324 77.171 36.8946C75.5057 37.7569 73.6154 38.2107 71.545 38.2107C69.4747 38.2107 67.5843 37.7569 65.919 36.8946ZM74.4255 33.0373C75.2807 32.5381 75.9558 31.812 76.4059 30.9497C76.901 30.0421 77.126 28.9984 77.126 27.9546C77.126 26.8201 76.901 25.8217 76.4059 24.9595C75.9558 24.0972 75.2357 23.3711 74.4255 22.8719C72.6702 21.8736 70.5098 21.8736 68.7545 22.8719C67.8994 23.3711 67.2243 24.0972 66.7292 24.9595C66.2341 25.8217 66.0091 26.8655 66.0091 27.9546C66.0091 28.9984 66.2341 29.9967 66.7292 30.9497C67.1793 31.812 67.8994 32.5381 68.7545 33.0373C70.4648 34.0356 72.6252 34.0356 74.4255 33.0373ZM86.3976 18.0616H95.6243C97.8296 18.0616 99.81 18.47 101.475 19.2415C103.141 20.013 104.446 21.1929 105.391 22.6904C106.291 24.188 106.786 25.9125 106.786 27.9546C106.786 29.9514 106.336 31.6758 105.391 33.1734C104.491 34.671 103.186 35.8055 101.475 36.6224C99.81 37.4392 97.8296 37.8476 95.6243 37.8476H86.3976V18.0616ZM95.4442 33.5818C97.2445 33.5818 98.6848 33.0826 99.72 32.1296C100.755 31.1766 101.295 29.7698 101.295 28C101.295 26.2301 100.755 24.8233 99.72 23.8249C98.6848 22.8266 97.2445 22.3274 95.4442 22.3274H91.7536V33.5818H95.4442ZM112.862 35.8509C111.242 34.2625 110.432 32.0843 110.432 29.316V18.0616H115.833V29.1345C115.833 30.6775 116.148 31.812 116.823 32.5835C117.498 33.3549 118.488 33.7634 119.793 33.7634C121.054 33.7634 122.044 33.3549 122.674 32.5835C123.349 31.812 123.664 30.6321 123.664 29.1345V18.0616H128.975V29.316C128.975 32.0843 128.165 34.2625 126.545 35.8509C124.924 37.4392 122.629 38.2107 119.703 38.2107C116.778 38.2107 114.483 37.4392 112.862 35.8509ZM137.887 36.8946C136.266 36.0778 134.916 34.8071 133.971 33.2188C133.026 31.6758 132.531 29.906 132.531 27.9546C132.531 26.0032 133.026 24.2334 133.971 22.6904C134.916 21.1475 136.266 19.8768 137.887 19.0146C139.552 18.1523 141.397 17.6985 143.468 17.6985C145.358 17.6985 146.978 17.9708 148.374 18.5608C149.769 19.1507 150.939 20.0583 151.929 21.329L148.464 24.5057C147.158 22.9173 145.583 22.1459 143.693 22.1459C142.027 22.1459 140.677 22.6904 139.597 23.7796C138.517 24.8687 137.977 26.2755 137.977 28C137.977 29.1345 138.202 30.1783 138.697 31.0405C139.147 31.9027 139.867 32.6288 140.722 33.0826C141.622 33.5818 142.658 33.8087 143.693 33.8087C145.583 33.8087 147.158 33.0373 148.464 31.4489L151.929 34.6256C150.984 35.8509 149.769 36.7585 148.374 37.3484C146.978 37.9384 145.358 38.2107 143.468 38.2107C141.442 38.2107 139.552 37.7569 137.887 36.8946ZM158.995 22.282H152.829V18.0616H170.562V22.282H164.396V37.8023H158.995V22.282ZM177.134 15.9741V25.4133H189.466V27.5916H177.134V37.8023H174.613V13.7504H190.951V15.9287L177.134 15.9741ZM195.587 18.4246H198.017V37.8476H195.587V18.4246ZM208.549 20.4668H201.753V18.4246H217.776V20.4668H210.979V37.8476H208.549V20.4668ZM195.272 14.4311C194.867 15.2933 195.272 16.3371 196.127 16.7001C196.982 17.1086 198.017 16.7001 198.377 15.8379C198.782 14.9757 198.377 13.9319 197.522 13.5689C196.667 13.1604 195.632 13.5235 195.272 14.4311Z" fill="#1E959B"/>
</g>
<defs>
<linearGradient id="paint0_linear_120_1417" x1="1.51315" y1="28.2908" x2="230.015" y2="28.2908" gradientUnits="userSpaceOnUse">
<stop stop-color="#AFDBDE"/>
<stop offset="1" stop-color="#C7E5E7"/>
</linearGradient>
<linearGradient id="paint1_linear_120_1417" x1="0.409722" y1="28.386" x2="230.626" y2="28.386" gradientUnits="userSpaceOnUse">
<stop stop-color="#AFDBDE"/>
<stop offset="1" stop-color="#C7E5E7"/>
</linearGradient>
<clipPath id="clip0_120_1417">
<rect width="231.161" height="56" fill="white" transform="translate(0.0722656)"/>
</clipPath>
</defs>
</svg>
