<svg width="66" height="118" viewBox="0 0 66 118" fill="none" xmlns="http://www.w3.org/2000/svg">
<path d="M42.2963 24.6178C42.2963 24.6178 56.6654 1.99313 44.4774 0.0757934C44.4774 0.0757934 36.1382 -1.71373 42.2963 24.6178Z" fill="url(#paint0_linear_129_40)"/>
<path d="M40.7574 35.4827C40.7574 35.4827 42.1686 12.9859 32.2898 16.5649C32.2898 16.5649 25.3618 18.6101 40.7574 35.4827Z" fill="url(#paint1_linear_129_40)"/>
<path d="M41.2706 50.438C41.2706 50.438 34.7275 23.2117 24.4638 30.8811C24.3355 30.8811 16.766 35.8662 41.2706 50.438Z" fill="url(#paint2_linear_129_40)"/>
<path d="M40.8854 65.6488C40.8854 65.6488 30.75 36.8887 20.4863 46.4754C20.4863 46.4754 12.9168 52.6109 40.8854 65.6488Z" fill="url(#paint3_linear_129_40)"/>
<path d="M42.5529 88.7848C42.5529 88.7848 36.9079 55.423 23.8217 63.9872C23.8217 63.8593 14.3278 69.2279 42.5529 88.7848Z" fill="url(#paint4_linear_129_40)"/>
<path d="M41.5264 39.701C41.5264 39.701 47.0431 17.8433 55.254 24.2344C55.3823 24.2344 61.4122 28.3247 41.5264 39.701Z" fill="url(#paint5_linear_129_40)"/>
<path d="M40.1152 57.724C40.1152 57.724 50.5072 31.6481 59.6163 40.8513C59.6163 40.8513 66.4159 46.859 40.1152 57.724Z" fill="url(#paint6_linear_129_40)"/>
<path d="M41.9121 74.8521C41.9121 74.8521 51.0211 45.8363 61.5414 54.9117C61.6697 54.9117 69.4957 60.9194 41.9121 74.8521Z" fill="url(#paint7_linear_129_40)"/>
<path d="M42.6816 88.0179C42.6816 88.0179 52.4322 59.5134 63.9789 69.867C63.9789 69.9949 72.4464 76.7695 42.6816 88.0179Z" fill="url(#paint8_linear_129_40)"/>
<path d="M32.4178 40.0843C32.1612 39.8287 32.1612 39.4452 32.5461 39.1896C32.8027 38.9339 33.1876 39.0617 33.4442 39.3174C33.7008 39.573 37.8062 44.6859 40.2439 48.0093C40.3722 45.0694 40.5005 42.3851 40.6288 39.8287C40.6288 39.7009 39.6024 31.0089 35.7535 24.1065C35.6252 23.723 35.6252 23.3395 36.0101 23.2117C36.395 23.0839 36.7799 23.0839 36.9082 23.4674C38.9609 27.1742 40.2439 31.3924 41.0136 34.588C42.04 23.0839 43.4513 15.5424 43.4513 15.4145C43.5796 15.0311 43.8362 14.7754 44.221 14.9032C44.6059 15.0311 44.8625 15.2867 44.7342 15.6702C44.7342 15.798 43.0664 24.6178 42.04 37.9113L48.1982 31.2646C48.4548 31.0089 48.8397 31.0089 49.0963 31.2646C49.3529 31.5202 49.3529 31.9037 49.0963 32.1593L41.7834 39.9565C41.5268 44.6859 41.2702 50.0545 41.2702 55.6787C43.9644 52.2275 49.4812 48.1372 49.7378 47.8815C49.9943 47.6259 50.5075 47.7537 50.6358 48.0093C50.8924 48.265 50.7641 48.7763 50.5075 48.9041C50.3792 48.9041 42.9381 54.7839 41.2702 57.9795C41.2702 63.0924 41.5268 68.3332 41.9117 73.8295C47.1718 68.0775 51.2773 63.8594 51.2773 63.8594C51.5339 63.6037 51.9188 63.6037 52.1754 63.8594C52.432 64.115 52.432 64.4985 52.1754 64.7541C52.1754 64.7541 47.8133 69.2279 42.2966 75.3634C42.1683 75.4912 42.1683 75.4912 42.04 75.4912C42.2966 78.559 42.6815 81.6267 43.0664 84.6945C45.6323 80.3485 52.1754 75.4912 53.2018 74.8521C53.4583 74.5965 53.9715 74.7243 54.0998 74.9799C54.3564 75.2356 54.2281 75.7469 53.9715 75.8747C49.8661 78.8146 44.0927 84.0554 43.4513 87.1231C43.5796 87.6344 43.5796 88.2735 43.7079 88.7848C43.8361 89.0404 43.8362 89.1683 43.8362 89.4239C43.9645 90.063 43.9644 90.5743 44.0927 91.2134C44.0927 91.5969 43.9645 91.9804 43.5796 91.9804C43.4513 91.9804 43.4513 91.9804 43.323 91.9804C43.0664 91.9804 42.8098 91.7247 42.8098 91.4691C42.6815 90.83 42.5532 90.1909 42.4249 89.5517C41.3985 88.4013 38.8326 84.8223 32.0329 74.4686C31.7763 74.213 31.9046 73.7017 32.1612 73.5739C32.4178 73.3182 32.931 73.4461 33.0593 73.7017C35.7535 77.792 39.7307 83.7997 41.9117 86.8675C40.8854 80.3485 40.3722 73.8295 39.9873 67.694C38.3194 62.5811 31.648 57.3404 31.648 57.3404C31.3915 57.0848 31.2632 56.7013 31.5197 56.4456C31.7763 56.19 32.1612 56.0622 32.4178 56.3178C32.6744 56.4456 37.1648 60.0247 39.859 64.3706C39.7307 62.3255 39.7307 60.2803 39.7307 58.2352C39.7307 58.1073 39.7307 58.1073 39.7307 57.9795C39.7307 55.4231 39.7307 52.9944 39.859 50.5658C38.4477 47.498 32.4178 40.2122 32.4178 40.0843Z" fill="#802E3C"/>
<path d="M13.6868 56.9569C13.6868 56.9569 16.5093 30.3698 4.7061 34.0767C4.7061 33.9488 -3.63314 36.1218 13.6868 56.9569Z" fill="url(#paint9_linear_129_40)"/>
<path d="M17.1492 67.4384C17.1492 67.4384 8.29676 46.7311 1.11218 54.2727C1.11218 54.1448 -4.14796 59.1299 17.1492 67.4384Z" fill="url(#paint10_linear_129_40)"/>
<path d="M24.2064 80.4763C24.2064 80.4763 6.2449 59.002 0.343278 70.5061C0.471574 70.5061 -4.14708 78.3033 24.2064 80.4763Z" fill="url(#paint11_linear_129_40)"/>
<path d="M30.7495 94.2811C30.7495 94.2811 8.8109 73.0626 3.93565 86.2283C3.93565 86.1005 -0.169812 95.0481 30.7495 94.2811Z" fill="url(#paint12_linear_129_40)"/>
<path d="M42.5531 114.222C42.5531 114.222 22.5389 86.8674 14.7128 100.289C14.7128 100.289 8.55463 109.364 42.5531 114.222Z" fill="url(#paint13_linear_129_40)"/>
<path d="M19.7159 70.7617C19.7159 70.7617 14.9689 48.7762 25.1044 50.8213C25.2327 50.6935 32.4173 51.7161 19.7159 70.7617Z" fill="url(#paint14_linear_129_40)"/>
<path d="M26.5152 87.5065C26.5152 87.5065 24.2059 59.6412 36.394 63.7315C36.5223 63.7315 45.2465 66.1601 26.5152 87.5065Z" fill="url(#paint15_linear_129_40)"/>
<path d="M35.7525 102.078C35.7525 102.078 30.8772 72.04 44.4766 75.4912C44.6049 75.4912 54.2271 77.2807 35.7525 102.078Z" fill="url(#paint16_linear_129_40)"/>
<path d="M42.4239 113.582C42.4239 113.582 38.4468 83.6719 53.3291 87.89C53.3291 87.89 63.9777 90.1908 42.4239 113.582Z" fill="url(#paint17_linear_129_40)"/>
<path d="M26.7717 105.913C26.5151 105.785 26.3868 105.274 26.5151 105.018C26.6434 104.763 27.1566 104.635 27.4132 104.763C31.647 107.191 37.9335 110.77 41.2692 112.56C37.4203 107.191 34.0846 101.567 31.0055 96.1984C27.1566 92.3638 18.9457 90.7021 18.8174 90.7021C18.4325 90.5742 18.1759 90.3186 18.3042 89.9351C18.4325 89.5517 18.6891 89.296 19.074 89.4238C19.3305 89.4238 24.9756 90.5742 29.3376 93.3863C28.3113 91.5968 27.4132 89.8073 26.5151 88.0178C26.5151 88.0178 26.3868 87.89 26.3868 87.7621C25.2322 85.4613 24.2058 83.2883 23.1794 81.1154C20.4852 79.198 11.7611 75.3633 11.7611 75.3633C11.3762 75.2355 11.2479 74.852 11.3762 74.4686C11.5045 74.0851 11.8894 73.9573 12.2743 74.0851C12.5309 74.2129 18.5608 76.8972 22.1531 78.9424C20.9984 76.2581 19.8437 73.8294 18.8174 71.4008C18.8174 71.273 13.9421 63.9871 7.39901 59.5133C7.14242 59.2577 7.01414 58.8742 7.27073 58.6185C7.52732 58.3629 7.9122 58.2351 8.1688 58.4907C11.7611 60.9193 14.7119 64.1149 16.8929 66.6714C12.6592 55.8064 10.6064 48.5205 10.4781 48.3927C10.3498 48.0093 10.6064 47.6258 10.9913 47.6258C11.3762 47.498 11.7611 47.7536 11.7611 48.1371C11.7611 48.2649 14.1987 56.9568 19.2023 69.2278L21.7682 60.5359C21.8965 60.1524 22.2814 60.0246 22.5379 60.0246C22.9228 60.1524 23.0511 60.5359 23.0511 60.7915L19.972 71.0174C21.7682 75.4912 23.9492 80.3484 26.5151 85.3335C27.4132 81.1154 30.4923 74.852 30.6206 74.5964C30.7489 74.2129 31.1338 74.0851 31.5187 74.3407C31.9036 74.4686 32.0318 74.852 31.7753 75.2355C31.7753 75.3633 27.5415 83.9275 27.5415 87.5065C29.8508 91.9803 32.4167 96.7097 35.2393 101.439C37.292 93.8976 39.0881 88.4013 39.0881 88.2734C39.2164 87.89 39.6013 87.7621 39.9862 87.89C40.3711 88.0178 40.4994 88.4013 40.3711 88.7847C40.3711 88.7847 38.4466 94.7924 36.2656 102.717C36.2656 102.845 36.1373 102.973 36.1373 102.973C37.6769 105.53 39.3447 108.086 41.1409 110.77C41.5258 105.785 45.2463 98.4993 45.7595 97.4767C45.8878 97.0932 46.2727 96.9654 46.6576 97.221C47.0425 97.3488 47.1708 97.7323 46.9142 98.1158C44.6049 102.59 41.7823 109.875 42.4238 112.815C42.6804 113.327 43.0653 113.71 43.4502 114.221C43.5785 114.349 43.7068 114.477 43.7068 114.605C44.0917 115.116 44.4766 115.628 44.7332 116.139C44.9897 116.394 44.8614 116.906 44.6049 117.034C44.6049 117.034 44.4766 117.161 44.3483 117.161C44.0917 117.289 43.8351 117.161 43.5785 116.906C43.1936 116.394 42.8087 115.883 42.4238 115.372C41.3975 114.221 37.5486 112.048 26.7717 105.913Z" fill="#1E959B"/>
<defs>
<linearGradient id="paint0_linear_129_40" x1="48.5282" y1="13.1568" x2="39.2919" y2="11.7147" gradientUnits="userSpaceOnUse">
<stop offset="0.1592" stop-color="#F05670"/>
<stop offset="1" stop-color="#802E3C"/>
</linearGradient>
<linearGradient id="paint1_linear_129_40" x1="42.11" y1="26.5587" x2="29.8406" y2="24.6431" gradientUnits="userSpaceOnUse">
<stop offset="0.1592" stop-color="#F05670"/>
<stop offset="1" stop-color="#802E3C"/>
</linearGradient>
<linearGradient id="paint2_linear_129_40" x1="42.6751" y1="41.1763" x2="22.5048" y2="38.0272" gradientUnits="userSpaceOnUse">
<stop offset="0.1592" stop-color="#F05670"/>
<stop offset="1" stop-color="#802E3C"/>
</linearGradient>
<linearGradient id="paint3_linear_129_40" x1="42.3073" y1="56.4738" x2="18.8464" y2="52.8109" gradientUnits="userSpaceOnUse">
<stop offset="0.1592" stop-color="#F05670"/>
<stop offset="1" stop-color="#802E3C"/>
</linearGradient>
<linearGradient id="paint4_linear_129_40" x1="44.4216" y1="77.0249" x2="21.2511" y2="73.4074" gradientUnits="userSpaceOnUse">
<stop offset="0.1592" stop-color="#F05670"/>
<stop offset="1" stop-color="#802E3C"/>
</linearGradient>
<linearGradient id="paint5_linear_129_40" x1="55.2406" y1="32.6182" x2="42.9719" y2="30.7028" gradientUnits="userSpaceOnUse">
<stop offset="0.1592" stop-color="#F05670"/>
<stop offset="1" stop-color="#802E3C"/>
</linearGradient>
<linearGradient id="paint6_linear_129_40" x1="59.346" y1="50.077" x2="41.7727" y2="47.3333" gradientUnits="userSpaceOnUse">
<stop offset="0.1592" stop-color="#F05670"/>
<stop offset="1" stop-color="#802E3C"/>
</linearGradient>
<linearGradient id="paint7_linear_129_40" x1="61.3978" y1="65.8021" x2="43.7825" y2="63.0519" gradientUnits="userSpaceOnUse">
<stop offset="0.1592" stop-color="#F05670"/>
<stop offset="1" stop-color="#802E3C"/>
</linearGradient>
<linearGradient id="paint8_linear_129_40" x1="63.9665" y1="79.8817" x2="44.4362" y2="76.8325" gradientUnits="userSpaceOnUse">
<stop offset="0.1592" stop-color="#F05670"/>
<stop offset="1" stop-color="#802E3C"/>
</linearGradient>
<linearGradient id="paint9_linear_129_40" x1="14.517" y1="38.203" x2="5.21834" y2="50.4059" gradientUnits="userSpaceOnUse">
<stop offset="0.00558659" stop-color="#67C5C9"/>
<stop offset="0.4428" stop-color="#65C4C8"/>
<stop offset="0.6236" stop-color="#5EBFC3"/>
<stop offset="0.7571" stop-color="#52B7BB"/>
<stop offset="0.8672" stop-color="#40ABB0"/>
<stop offset="0.962" stop-color="#299DA2"/>
<stop offset="1" stop-color="#1E959B"/>
</linearGradient>
<linearGradient id="paint10_linear_129_40" x1="12.0518" y1="56.9819" x2="7.31084" y2="63.2036" gradientUnits="userSpaceOnUse">
<stop offset="0.00558659" stop-color="#67C5C9"/>
<stop offset="0.4428" stop-color="#65C4C8"/>
<stop offset="0.6236" stop-color="#5EBFC3"/>
<stop offset="0.7571" stop-color="#52B7BB"/>
<stop offset="0.8672" stop-color="#40ABB0"/>
<stop offset="0.962" stop-color="#299DA2"/>
<stop offset="1" stop-color="#1E959B"/>
</linearGradient>
<linearGradient id="paint11_linear_129_40" x1="15.1947" y1="71.6706" x2="8.78235" y2="80.0857" gradientUnits="userSpaceOnUse">
<stop offset="0.00558659" stop-color="#67C5C9"/>
<stop offset="0.4428" stop-color="#65C4C8"/>
<stop offset="0.6236" stop-color="#5EBFC3"/>
<stop offset="0.7571" stop-color="#52B7BB"/>
<stop offset="0.8672" stop-color="#40ABB0"/>
<stop offset="0.962" stop-color="#299DA2"/>
<stop offset="1" stop-color="#1E959B"/>
</linearGradient>
<linearGradient id="paint12_linear_129_40" x1="20.4176" y1="85.8314" x2="12.7714" y2="95.8658" gradientUnits="userSpaceOnUse">
<stop offset="0.00558659" stop-color="#67C5C9"/>
<stop offset="0.4428" stop-color="#65C4C8"/>
<stop offset="0.6236" stop-color="#5EBFC3"/>
<stop offset="0.7571" stop-color="#52B7BB"/>
<stop offset="0.8672" stop-color="#40ABB0"/>
<stop offset="0.962" stop-color="#299DA2"/>
<stop offset="1" stop-color="#1E959B"/>
</linearGradient>
<linearGradient id="paint13_linear_129_40" x1="32.2201" y1="102.569" x2="24.7731" y2="112.342" gradientUnits="userSpaceOnUse">
<stop offset="0.00558659" stop-color="#67C5C9"/>
<stop offset="0.4428" stop-color="#65C4C8"/>
<stop offset="0.6236" stop-color="#5EBFC3"/>
<stop offset="0.7571" stop-color="#52B7BB"/>
<stop offset="0.8672" stop-color="#40ABB0"/>
<stop offset="0.962" stop-color="#299DA2"/>
<stop offset="1" stop-color="#1E959B"/>
</linearGradient>
<linearGradient id="paint14_linear_129_40" x1="27.3338" y1="52.133" x2="15.5873" y2="67.5483" gradientUnits="userSpaceOnUse">
<stop offset="0.00558659" stop-color="#67C5C9"/>
<stop offset="0.4428" stop-color="#65C4C8"/>
<stop offset="0.6236" stop-color="#5EBFC3"/>
<stop offset="0.7571" stop-color="#52B7BB"/>
<stop offset="0.8672" stop-color="#40ABB0"/>
<stop offset="0.962" stop-color="#299DA2"/>
<stop offset="1" stop-color="#1E959B"/>
</linearGradient>
<linearGradient id="paint15_linear_129_40" x1="37.6291" y1="64.4851" x2="22.4504" y2="84.4047" gradientUnits="userSpaceOnUse">
<stop offset="0.00558659" stop-color="#67C5C9"/>
<stop offset="0.4428" stop-color="#65C4C8"/>
<stop offset="0.6236" stop-color="#5EBFC3"/>
<stop offset="0.7571" stop-color="#52B7BB"/>
<stop offset="0.8672" stop-color="#40ABB0"/>
<stop offset="0.962" stop-color="#299DA2"/>
<stop offset="1" stop-color="#1E959B"/>
</linearGradient>
<linearGradient id="paint16_linear_129_40" x1="46.7512" y1="76.9125" x2="30.6055" y2="98.101" gradientUnits="userSpaceOnUse">
<stop offset="0.00558659" stop-color="#67C5C9"/>
<stop offset="0.4428" stop-color="#65C4C8"/>
<stop offset="0.6236" stop-color="#5EBFC3"/>
<stop offset="0.7571" stop-color="#52B7BB"/>
<stop offset="0.8672" stop-color="#40ABB0"/>
<stop offset="0.962" stop-color="#299DA2"/>
<stop offset="1" stop-color="#1E959B"/>
</linearGradient>
<linearGradient id="paint17_linear_129_40" x1="54.4571" y1="88.47" x2="37.9228" y2="110.168" gradientUnits="userSpaceOnUse">
<stop offset="0.00558659" stop-color="#67C5C9"/>
<stop offset="0.4428" stop-color="#65C4C8"/>
<stop offset="0.6236" stop-color="#5EBFC3"/>
<stop offset="0.7571" stop-color="#52B7BB"/>
<stop offset="0.8672" stop-color="#40ABB0"/>
<stop offset="0.962" stop-color="#299DA2"/>
<stop offset="1" stop-color="#1E959B"/>
</linearGradient>
</defs>
</svg>
