<svg width="36" height="126" viewBox="0 0 36 126" fill="none" xmlns="http://www.w3.org/2000/svg">
<path d="M17.2505 12.65C17.1222 11.7552 16.8657 10.7326 16.994 9.83785C17.1222 9.5822 17.2505 9.32657 17.3788 9.07092C17.6354 9.71004 18.2769 10.477 18.4052 11.1161C18.6618 12.3943 18.4052 13.6725 18.2769 14.8229C18.2769 15.0786 18.2769 15.4621 18.2769 15.7177C17.5071 15.0786 17.3788 13.8004 17.2505 12.65Z" fill="#FDBBA5"/>
<path d="M15.1973 15.9733C16.0953 16.3567 17.6349 16.9958 18.1481 17.635C18.0198 17.7628 17.8915 17.8906 17.6349 18.1462C17.6349 18.1462 16.3519 18.4019 15.3255 18.5297C15.1973 17.635 15.1973 16.7402 15.1973 15.9733Z" fill="#E69277"/>
<path d="M15.582 12.7778C15.7103 13.1613 15.8386 13.5447 15.8386 13.8004C16.0952 13.6725 16.6083 13.2891 16.8649 13.2891C16.7366 12.5221 16.48 11.1161 16.3517 9.32657C16.3517 8.43181 17.1215 7.7927 16.6083 6.131C16.6083 6.131 16.7366 6.131 16.7366 6.00317C16.9932 6.64229 17.3781 7.2814 17.5064 7.92052C17.3781 8.30398 17.3781 8.55963 17.5064 8.9431C17.3781 9.19875 17.1215 9.4544 17.1215 9.71005C16.9932 10.6048 17.2498 11.6274 17.3781 12.5221C17.6347 13.5447 17.763 14.8229 18.5328 15.5899C18.5328 16.229 18.6611 16.9959 18.4045 17.5072C17.8913 16.8681 16.3517 16.229 15.4537 15.8455C15.4537 15.5899 15.4537 15.3342 15.4537 15.2064C15.1971 15.3342 15.0688 15.0786 14.8122 14.6951C14.5556 14.1838 14.299 13.2891 14.1707 12.7778C14.1707 12.5221 14.0424 12.2665 14.0424 12.1387C13.7858 10.2213 15.3254 11.6274 15.582 12.7778Z" fill="#FDA284"/>
<path d="M33.0301 121.044C32.5169 120.532 31.8754 120.405 31.1056 120.405C30.849 120.405 30.5924 120.405 30.4641 120.405C30.3358 120.405 30.3358 120.405 30.2075 120.405C28.7963 120.277 26.8718 119.126 25.5889 118.871C23.921 120.916 21.4834 122.066 19.559 122.45C18.6609 122.578 17.8911 122.578 17.2496 122.45C16.993 122.322 16.8648 122.322 16.7365 122.066C16.7365 122.45 16.6082 122.961 16.4799 123.472C16.3516 124.111 16.3516 124.623 16.3516 125.134C17.8911 125.773 18.1477 125.901 19.9439 125.901C20.3287 125.901 21.3551 125.901 21.3551 125.901C21.74 125.645 21.6117 125.262 21.8683 125.134C22.5098 124.751 23.4078 125.134 23.921 125.39C24.4342 125.517 24.4342 125.517 24.9474 125.645C25.3323 125.645 25.8455 125.517 26.2304 125.517C27.1284 125.39 28.2831 125.262 29.1812 125.006C30.0792 124.751 30.9773 124.623 31.7471 124.239C32.6452 123.856 33.2866 122.961 33.2866 121.811C33.2866 121.811 33.2866 121.811 33.2866 121.683C33.5432 121.555 33.2866 121.299 33.0301 121.044Z" fill="#010300"/>
<path d="M35.3389 36.9363C34.6974 37.4476 34.0559 37.831 33.5427 38.3423C33.2861 38.3423 33.0295 38.3423 32.7729 38.3423C32.2598 38.7258 31.49 38.9814 30.7202 39.1093C29.3089 39.7484 26.3582 39.2371 25.0752 38.598C25.3318 37.3197 25.4601 35.9137 25.0752 34.6355C25.3318 34.3799 25.4601 33.9964 25.7167 33.7407L25.845 33.6129C25.9733 33.4851 25.9733 33.3573 26.1016 33.3573C26.2299 33.2295 26.4864 33.2294 26.6147 33.2294C27.1279 33.2294 27.5128 33.6129 28.1543 33.4851C28.6675 33.3573 29.309 32.846 29.5655 32.4625C30.0787 33.3573 29.9504 33.9964 29.4372 34.3799C29.1807 34.6355 28.7958 34.7633 28.2826 34.7633C28.1543 34.7633 28.1543 34.7633 28.026 34.7633C28.1543 34.8911 28.2826 35.019 28.2826 35.1468C28.4109 35.4024 28.4109 35.6581 28.5392 35.9137L28.6675 36.0415C30.0787 36.2972 31.3617 36.425 32.6446 36.9363C32.7729 36.8085 33.0295 36.6806 33.1578 36.6806C34.0559 36.6806 34.6974 36.8085 35.3389 36.9363Z" fill="#FDBBA5"/>
<path d="M0.314453 23.7705C0.314453 23.7705 4.67652 29.5225 14.427 40.1318L26.102 38.9814C26.102 38.9814 29.5659 35.0189 27.5132 32.7181C25.2039 30.0338 27.5132 32.7181 27.5132 32.7181L17.7627 32.5903L8.91028 21.0862C8.91028 21.0862 0.699341 16.7403 0.314453 23.7705Z" fill="url(#paint0_linear_129_700)"/>
<path d="M15.3263 18.5299C15.3263 19.2968 15.4546 20.0637 15.4546 20.575C14.5565 20.0637 13.5301 19.8081 12.3755 19.5524C11.8623 19.4246 11.3491 19.2968 10.8359 19.2968C11.2208 18.9133 11.4774 18.402 11.734 18.0186C12.1189 18.0186 12.6321 17.8908 13.017 17.7629C13.2736 17.1238 14.1716 15.5899 14.6848 14.823C14.9414 15.2065 15.0697 15.4621 15.3263 15.3343C15.3263 15.4621 15.3263 15.7178 15.3263 15.9734C15.198 16.7403 15.198 17.6351 15.3263 18.5299Z" fill="#FDA284"/>
<path d="M20.9706 69.531C19.0461 69.7867 17.1217 69.6588 15.3256 69.4032C14.5558 69.2754 13.786 69.1475 13.1445 68.8919C13.2728 72.2153 14.1709 81.0351 14.5558 87.554C14.5558 87.8097 14.5558 88.1931 14.6841 88.4488C15.069 91.3887 15.8387 94.4565 15.967 97.652C15.967 97.652 15.1973 105.066 15.4539 108.133C15.5822 110.051 15.7105 111.968 15.8388 113.502C16.2236 117.848 16.7368 120.788 16.8651 121.299C16.8651 121.555 16.8651 121.811 16.9934 121.938C17.1217 122.066 17.25 122.194 17.5066 122.322C18.0198 122.45 18.7895 122.45 19.8159 122.322C21.7404 121.938 24.178 120.788 25.8458 118.743C26.8722 102.509 27.0005 84.1028 28.2834 66.4633C25.8458 68.3806 23.4082 69.2754 20.9706 69.531Z" fill="url(#paint1_linear_129_700)"/>
<path d="M11.6047 18.0185C11.3481 18.5298 11.0916 18.9132 10.7067 19.2967C9.6803 19.1689 8.78223 19.041 7.75586 19.1689C7.88416 18.7854 7.88414 18.2741 7.88414 17.8906C8.52562 18.0184 8.91051 18.1463 9.80858 18.0185C10.3218 18.0185 10.7067 18.0185 11.2198 18.0185C11.3481 18.0185 11.4764 18.0185 11.6047 18.0185Z" fill="#FDBBA5"/>
<path d="M10.8354 19.2967C11.3486 19.4246 11.8618 19.4246 12.375 19.5524C13.5297 19.6802 14.4277 20.0637 15.4541 20.575C16.8654 21.2141 18.1483 22.2367 19.4313 23.1314C17.7634 22.4923 15.9673 21.5976 14.0428 21.2141C12.6316 20.8306 11.2203 20.575 9.93737 20.3193C8.65441 20.1915 7.49976 20.0637 6.2168 19.9359V19.6802C6.2168 19.6802 6.34508 19.6802 6.34508 19.5524C6.85827 19.2967 7.37145 19.1689 8.01293 19.1689C8.78271 19.0411 9.80907 19.1689 10.8354 19.2967Z" fill="url(#paint2_linear_129_700)"/>
<path d="M28.5402 43.4553C28.6685 48.0569 28.6685 53.042 28.6685 57.1323C28.6685 61.8617 28.6685 65.4408 28.6685 66.0799C28.5402 66.2077 28.2836 66.4634 28.027 66.5912C25.7176 68.3807 23.28 69.2755 20.8424 69.5311C18.9179 69.7868 16.9935 69.6589 15.1974 69.4033C14.4276 69.2755 13.6578 69.1477 13.0163 68.892C12.7597 68.892 12.6314 68.7642 12.3748 68.7642C11.8616 68.6364 11.2202 68.3807 10.707 68.2529C10.0655 67.9973 9.55232 67.7416 8.91084 67.486C8.26936 67.2303 7.62789 66.8468 7.1147 66.5912C6.21663 66.0799 5.70344 65.6964 5.44685 65.5686C6.08833 57.1323 5.31855 46.3952 4.67707 43.9666C4.29218 42.4327 3.9073 41.1545 3.52241 39.8762C3.52241 39.7484 3.3941 39.6206 3.3941 39.3649C2.49603 36.425 1.59797 33.7407 0.956486 30.673C0.443302 28.7557 -0.198175 25.6879 0.0584174 23.3871V23.2593C0.0584174 23.1314 0.0584174 23.0036 0.0584174 23.0036C0.31501 21.4698 1.21307 20.3194 2.75262 20.1915C3.77899 20.1915 4.67707 20.1915 5.70344 20.1915C6.9864 20.3194 8.26937 20.3194 9.42404 20.575C10.8353 20.8306 12.1183 21.0863 13.5295 21.4698C15.454 21.981 17.1218 22.748 18.9179 23.3871C19.3028 23.5149 19.6877 23.6427 20.0726 23.8984C21.2273 24.2818 22.8951 24.921 24.0498 25.5601C19.4311 23.1314 15.5822 31.9512 20.2009 34.8911C23.28 38.0867 25.9742 40.5153 28.5402 43.4553ZM10.8353 58.4105C10.8353 58.2827 10.8353 58.2827 10.8353 58.4105C10.8353 58.6662 10.8353 58.9218 10.8353 59.1775C10.8353 58.9218 10.8353 58.6662 10.8353 58.4105Z" fill="url(#paint3_linear_129_700)"/>
<path d="M0.314453 23.0035C0.442735 23.0035 0.442735 23.1314 0.314453 23.0035C0.314453 23.1314 0.314453 23.1314 0.314453 23.1314C0.314453 23.1314 0.314453 23.1314 0.314453 23.0035Z" fill="#191718"/>
<path d="M4.29216 114.652C3.39407 114.908 2.49598 114.908 1.85449 114.652V114.525C2.75258 114.652 3.52237 114.652 4.29216 114.652Z" fill="#030203"/>
<path d="M14.4273 87.4262C13.9141 80.9072 13.1443 72.0875 13.016 68.7641C12.7594 68.7641 12.6311 68.6362 12.3745 68.6362C11.8613 68.5084 11.2199 68.2528 10.7067 68.125C10.0652 67.8693 9.55201 67.6137 8.91053 67.358C8.26905 67.1024 7.62758 66.7189 7.11439 66.4633C6.08803 73.11 4.93336 82.3133 4.80506 88.7044C4.80506 88.7044 1.21277 101.359 0.827877 109.412C0.827877 110.818 0.699585 112.224 0.571289 113.502C0.571289 113.63 0.571297 113.758 0.699593 113.885C0.827889 114.141 0.956177 114.269 1.21277 114.525C1.34107 114.525 1.59767 114.525 1.72596 114.525C2.49574 114.652 3.39381 114.652 4.16358 114.652C6.21632 114.269 8.52565 112.991 9.68031 111.201L9.8086 110.818L14.4273 88.3209C14.5556 88.0653 14.5556 87.8097 14.4273 87.4262Z" fill="url(#paint4_linear_129_700)"/>
<path d="M1.855 114.525V114.652C1.59839 114.652 1.4701 114.525 1.3418 114.525C1.5984 114.525 1.7267 114.525 1.855 114.525Z" fill="#0D0A0C"/>
<path d="M15.0691 113.63C15.0691 113.374 14.9408 113.119 14.9408 112.991C15.0691 112.735 13.7861 111.585 13.6578 111.585C13.6578 111.585 12.7598 111.713 12.2466 111.84C12.1183 111.84 11.99 111.84 11.99 111.84C11.0919 111.84 10.8353 111.201 9.93726 110.946L9.80896 111.329C8.6543 113.119 6.34498 114.397 4.29224 114.78C3.39417 115.036 2.49609 115.036 1.85461 114.78C1.59801 114.78 1.46972 114.653 1.34143 114.653C1.08484 114.525 0.828232 114.269 0.828232 114.013C0.699936 114.141 0.443359 115.164 0.443359 115.675C0.443359 116.059 0.443359 116.57 0.443359 116.826C0.571656 117.209 0.828236 117.337 1.21312 117.465C1.85461 117.72 2.2395 117.72 3.26587 117.72C3.52246 117.72 4.54883 117.592 4.54883 117.592C4.80542 117.337 4.80542 116.953 5.06201 116.826C5.70349 116.442 6.34498 116.826 6.85817 116.953C7.37135 117.081 7.24305 117.081 7.75623 117.081C8.01283 117.081 8.52602 116.953 8.78261 116.953C9.55238 116.826 10.5788 116.57 11.3485 116.314C12.5032 115.931 13.9144 115.419 14.9408 114.653C15.0691 114.525 15.0691 114.013 15.0691 113.63Z" fill="#14160E"/>
<path d="M22.3815 62.6286C23.0229 62.2452 23.6644 61.8617 24.3059 61.4782C24.4342 61.2226 24.5625 61.0948 24.6908 60.8391C25.204 60.4557 25.7172 59.9444 26.2303 59.1774C27.385 58.1549 28.0265 55.2149 28.0265 53.8089C26.7435 53.5532 25.4606 53.042 24.4342 52.275C24.0493 52.4028 23.6644 52.4028 23.2795 52.5307H23.1513C23.023 52.5307 22.8947 52.6585 22.7664 52.6585C22.6381 52.7863 22.5098 52.9141 22.3815 53.1698C22.2532 53.6811 22.3815 54.1924 21.9966 54.7036C21.6117 55.0871 20.9702 55.4706 20.457 55.5984C21.0985 56.4932 21.74 56.621 22.2532 56.3653C22.5098 56.2375 22.8947 55.8541 23.0229 55.4706L23.1513 55.3428C23.2795 55.4706 23.2795 55.5984 23.4078 55.7262C23.5361 55.9819 23.7927 56.1097 23.921 56.2375L24.0493 56.3653C23.7927 57.7714 23.4078 59.0496 23.2795 60.3278C23.1512 60.4557 22.8947 60.5835 22.7664 60.7113C22.7664 61.3504 22.6381 61.9895 22.3815 62.6286Z" fill="#FDBBA5"/>
<path d="M24.4342 25.4323C24.4342 25.4323 27.8982 31.6956 33.9281 44.8613L28.2831 55.0872C28.2831 55.0872 23.2795 56.7489 21.8683 53.8089C20.3287 50.6134 21.8683 53.8089 21.8683 53.8089L25.7172 44.8613L18.7892 32.3347C18.5326 31.8234 18.4043 31.3121 18.4043 30.673C18.5326 28.5 19.559 23.0036 24.4342 25.4323Z" fill="url(#paint5_linear_129_700)"/>
<path d="M2.49645 5.3641C2.88134 4.59716 3.65113 3.95805 4.29261 3.44676C5.83216 2.04071 7.88489 1.27379 9.93762 1.14596C10.3225 1.14596 10.8357 1.14596 11.3489 1.14596C13.2733 0.634672 20.3296 -1.15485 19.3032 1.14596C18.0203 3.83024 15.0695 3.70242 15.0695 3.70242C15.0695 3.70242 19.1749 5.23628 16.609 6.13104C16.609 6.13104 16.4807 6.13105 16.4807 6.25887C16.9939 7.92057 16.2241 8.55969 16.2241 9.45444C16.2241 11.244 16.609 12.65 16.7373 13.4169C16.4807 13.4169 16.0958 13.8004 15.7109 13.9282C15.7109 13.5448 15.5826 13.1613 15.4544 12.9057C15.1978 11.7553 13.6582 10.2214 13.6582 12.3944C13.6582 12.5222 13.6582 12.7778 13.7865 13.0335C13.9148 13.5448 14.1714 14.4395 14.428 14.9508C13.9148 15.7177 13.0167 17.1238 12.7601 17.8907C12.3752 18.0186 11.8621 18.1464 11.4772 18.1464C11.3489 18.1464 11.2206 18.1464 11.0923 18.1464C10.5791 18.1464 10.1942 18.1464 9.68103 18.1464C8.78296 18.1464 8.39808 18.1464 7.7566 18.0186C7.6283 18.0186 7.37171 17.8907 7.11512 17.8907C7.11512 17.5073 6.47364 16.6125 5.83216 15.9734C5.70386 15.8456 5.70386 15.8456 5.57557 15.7178C4.5492 14.6952 3.39452 13.6726 2.49645 12.5222C2.23986 12.0109 2.11156 11.244 1.85497 10.6048C1.72668 9.96573 1.59838 9.32661 1.47008 8.6875C1.34179 8.17621 1.3418 7.66492 1.3418 7.15363C1.85498 6.51452 2.36816 5.87539 2.49645 5.3641Z" fill="url(#paint6_linear_129_700)"/>
<defs>
<linearGradient id="paint0_linear_129_700" x1="14.546" y1="28.2395" x2="12.1411" y2="35.462" gradientUnits="userSpaceOnUse">
<stop stop-color="#802E3C"/>
<stop offset="1" stop-color="#802E3C"/>
</linearGradient>
<linearGradient id="paint1_linear_129_700" x1="14.0603" y1="94.935" x2="29.2454" y2="94.3325" gradientUnits="userSpaceOnUse">
<stop stop-color="#1E959B"/>
<stop offset="0.9525" stop-color="#105154"/>
</linearGradient>
<linearGradient id="paint2_linear_129_700" x1="19.2836" y1="21.1563" x2="6.03205" y2="21.1563" gradientUnits="userSpaceOnUse">
<stop stop-color="#1E959B"/>
<stop offset="1" stop-color="#0F4A4D"/>
</linearGradient>
<linearGradient id="paint3_linear_129_700" x1="1.08096" y1="45.2202" x2="28.6097" y2="44.1279" gradientUnits="userSpaceOnUse">
<stop stop-color="#1E959B"/>
<stop offset="0.9525" stop-color="#105154"/>
</linearGradient>
<linearGradient id="paint4_linear_129_700" x1="-0.160084" y1="90.8317" x2="14.6334" y2="90.2448" gradientUnits="userSpaceOnUse">
<stop stop-color="#1E959B"/>
<stop offset="0.9525" stop-color="#105154"/>
</linearGradient>
<linearGradient id="paint5_linear_129_700" x1="22.6639" y1="40.0631" x2="30.3587" y2="40.7547" gradientUnits="userSpaceOnUse">
<stop stop-color="#1E959B"/>
<stop offset="0.9525" stop-color="#105154"/>
</linearGradient>
<linearGradient id="paint6_linear_129_700" x1="19.3924" y1="9.01" x2="1.74529" y2="9.01" gradientUnits="userSpaceOnUse">
<stop stop-color="#1E959B"/>
<stop offset="1" stop-color="#0F4A4D"/>
</linearGradient>
</defs>
</svg>
