<svg width="230" height="258" viewBox="0 0 230 258" fill="none" xmlns="http://www.w3.org/2000/svg">
<path d="M81.8343 49.3044C75.6078 45.7595 70.2708 46.498 67.454 50.6337C65.5267 47.3842 62.8582 44.5779 59.8932 42.8054C53.6667 39.2605 48.6262 42.0669 48.6262 49.1567C48.6262 49.4521 48.6262 49.7475 48.6262 50.1906C42.5479 48.4182 38.1004 51.5199 37.9521 58.462C37.9521 66.7334 44.3269 77.0727 52.3324 81.6515C55.4457 83.424 58.4107 84.0148 60.7827 83.7194C65.675 88.2982 71.605 92.7293 77.9798 96.4219C86.5783 101.444 94.4356 103.955 99.7726 104.102C100.81 104.841 101.848 105.58 102.886 106.17C110.891 110.749 117.266 108.681 117.266 101.444C117.266 95.6834 113.115 88.4459 107.482 83.4239C107.482 83.2762 107.482 83.2762 107.482 83.1285C107.482 77.0727 103.331 69.8352 97.9936 66.8811C97.1041 66.438 96.3629 66.1426 95.6216 65.8472C92.6566 59.0528 87.6161 52.7016 81.8343 49.3044Z" fill="#68C7CC"/>
<path d="M172.711 32.1707C166.485 28.6258 161.148 29.3643 158.331 33.5001C156.404 30.2506 153.735 27.4442 150.77 25.6718C144.544 22.1269 139.503 24.9332 139.503 32.023C139.503 32.3184 139.503 32.6138 139.503 33.0569C133.425 31.2845 128.977 34.3863 128.829 41.3284C128.829 49.5998 135.204 59.939 143.209 64.5178C146.323 66.2903 149.288 66.8811 151.66 66.5857C156.552 71.1645 162.482 75.5956 168.857 79.2882C177.455 84.3101 185.313 86.8211 190.65 86.9688C191.687 87.7073 192.725 88.4458 193.763 89.0367C201.768 93.6155 208.143 91.5476 208.143 84.3101C208.143 78.5497 203.992 71.3122 198.359 66.2903C198.359 66.1426 198.359 66.1426 198.359 65.9949C198.359 59.939 194.208 52.7015 188.871 49.7475C187.981 49.3044 187.24 49.0089 186.499 48.7135C183.534 41.7715 178.493 35.4202 172.711 32.1707Z" fill="#68C7CC"/>
<path d="M180.867 67.0288L185.018 64.6655C184.721 64.5178 184.277 64.2224 183.98 64.0747L179.829 66.438C180.274 66.7334 180.57 66.8811 180.867 67.0288Z" fill="#CCCCCC"/>
<path d="M179.828 66.5856L183.979 64.2223C183.682 64.0746 183.386 63.9269 183.089 63.9269L178.938 66.2901C179.235 66.2901 179.531 66.4378 179.828 66.5856Z" fill="#C7C7C7"/>
<path d="M178.939 66.2903L183.09 63.927C182.793 63.927 182.645 63.7793 182.497 63.7793L178.346 66.1426C178.494 66.1426 178.79 66.1425 178.939 66.2903Z" fill="#C2C2C2"/>
<path d="M178.346 66.1426L182.497 63.7793C182.349 63.7793 182.052 63.7793 181.904 63.7793L177.753 66.1426C177.901 66.1426 178.049 66.1426 178.346 66.1426Z" fill="#BDBDBD"/>
<path d="M177.753 65.9948L181.904 63.6316C181.756 63.6316 181.608 63.6316 181.459 63.6316L177.309 65.9948C177.457 65.9948 177.605 65.9948 177.753 65.9948Z" fill="#B8B8B8"/>
<path d="M177.308 66.1426L181.459 63.7793C181.311 63.7793 181.163 63.7793 181.014 63.7793L176.863 66.1426C176.863 66.1426 177.16 66.1426 177.308 66.1426Z" fill="#B3B3B3"/>
<path d="M176.715 66.1426L180.866 63.7793C180.718 63.7793 180.57 63.7793 180.422 63.927L176.271 66.2903C176.567 66.1425 176.715 66.1426 176.715 66.1426Z" fill="#ADADAD"/>
<path d="M176.418 66.2901L180.569 63.9269C180.421 63.9269 180.273 64.0746 180.125 64.0746L175.974 66.4378C176.122 66.2901 176.27 66.2901 176.418 66.2901Z" fill="#A8A8A8"/>
<path d="M175.974 66.2901L180.125 63.9269C179.977 63.9269 179.829 64.0746 179.68 64.0746L175.529 66.4378C175.678 66.4378 175.826 66.4378 175.974 66.2901Z" fill="#A3A3A3"/>
<path d="M175.529 66.5857L179.68 64.2224L175.529 66.5857Z" fill="#9E9E9E"/>
<path d="M186.202 84.9008L190.353 82.5375C191.687 81.799 192.577 80.0266 192.577 77.6633C192.577 77.2202 192.577 76.6294 192.429 76.1863L188.278 78.5495C188.278 78.9927 188.426 79.5835 188.426 80.0266C188.426 82.5375 187.685 84.1623 186.202 84.9008Z" fill="#858585"/>
<path d="M188.427 78.6974L192.578 76.3341C192.578 76.0387 192.429 75.5956 192.429 75.3002L188.278 77.6634C188.278 77.9589 188.278 78.2543 188.427 78.6974Z" fill="#8A8A8A"/>
<path d="M188.13 77.5158L192.281 75.1526C192.281 74.8572 192.132 74.5618 192.132 74.2664L187.981 76.6296C188.13 77.0727 188.13 77.3681 188.13 77.5158Z" fill="#8F8F8F"/>
<path d="M187.981 76.7772L192.132 74.4139C192.132 74.1185 191.984 73.9708 191.836 73.6754L187.685 76.0387C187.833 76.1864 187.833 76.4818 187.981 76.7772Z" fill="#949494"/>
<path d="M187.686 75.8911L191.837 73.5278C191.689 73.2324 191.689 73.0847 191.541 72.7893L187.39 75.1526C187.538 75.448 187.686 75.7434 187.686 75.8911Z" fill="#999999"/>
<path d="M187.537 75.3001L191.688 72.9369C191.539 72.6415 191.539 72.4938 191.391 72.1984L187.24 74.5616C187.24 74.857 187.389 75.0047 187.537 75.3001Z" fill="#9E9E9E"/>
<path d="M187.24 74.5616L191.391 72.1984C191.243 72.0507 191.243 71.7552 191.094 71.6075L186.943 73.9708C186.943 74.1185 187.092 74.4139 187.24 74.5616Z" fill="#A3A3A3"/>
<path d="M186.944 73.9709L191.095 71.6077C190.947 71.46 190.947 71.1646 190.798 71.0168L186.647 73.3801C186.647 73.5278 186.796 73.6755 186.944 73.9709Z" fill="#A8A8A8"/>
<path d="M186.647 73.2323L190.798 70.869C190.65 70.7213 190.502 70.4259 190.502 70.2782L186.351 72.6415C186.351 72.7892 186.499 73.0846 186.647 73.2323Z" fill="#ADADAD"/>
<path d="M186.203 72.6414L190.354 70.2782C190.205 70.1305 190.057 69.8351 189.909 69.6874L185.758 72.0506C185.906 72.1983 186.054 72.4937 186.203 72.6414Z" fill="#B3B3B3"/>
<path d="M185.907 72.0508L190.058 69.6875C189.909 69.5398 189.761 69.2444 189.613 69.0967L185.462 71.4599C185.61 71.6076 185.758 71.7553 185.907 72.0508Z" fill="#B8B8B8"/>
<path d="M185.461 71.3122L189.612 68.949C189.464 68.6536 189.316 68.5059 189.168 68.2104L185.017 70.5737C185.017 70.8691 185.165 71.1645 185.461 71.3122Z" fill="#BDBDBD"/>
<path d="M184.867 70.7214L189.019 68.3581C188.87 68.0627 188.574 67.915 188.426 67.6196L184.274 69.9829C184.423 70.1306 184.719 70.426 184.867 70.7214Z" fill="#C2C2C2"/>
<path d="M184.275 69.9829L188.426 67.6196C188.13 67.3242 187.833 67.0288 187.537 66.7334L183.386 69.0967C183.682 69.3921 183.979 69.6875 184.275 69.9829Z" fill="#C7C7C7"/>
<path d="M183.386 69.0967L187.537 66.7334C186.795 65.9949 185.906 65.2563 185.016 64.8132L180.865 67.1765C181.755 67.6196 182.644 68.2104 183.386 69.0967Z" fill="#CCCCCC"/>
<path d="M180.866 60.8252C173.453 56.5418 167.523 59.939 167.523 68.3581C167.523 76.7772 180.125 99.2282 180.866 100.41C181.607 99.9667 194.209 92.1384 194.357 83.7193C194.209 75.4479 188.279 65.1086 180.866 60.8252Z" fill="url(#paint0_linear_129_3)"/>
<path d="M175.529 57.5757C175.529 57.5757 175.677 57.5757 175.529 57.5757C175.825 57.428 175.974 57.2803 176.27 57.2803H176.418C176.567 57.2803 176.567 57.2803 176.715 57.1326C176.863 57.1326 177.011 56.9849 177.011 56.9849C177.16 56.9849 177.308 56.9849 177.456 56.8372C177.604 56.8372 177.604 56.8372 177.753 56.8372H177.901C178.197 56.8372 178.494 56.6895 178.642 56.6895H178.79C178.939 56.6895 179.235 56.6895 179.383 56.6895C179.383 56.6895 179.532 56.6895 179.68 56.6895C179.828 56.6895 179.976 56.6895 180.125 56.6895C180.273 56.6895 180.421 56.6895 180.569 56.6895C180.718 56.6895 180.866 56.6895 180.866 56.6895C181.014 56.6895 181.162 56.6895 181.459 56.8372C181.607 56.8372 181.607 56.8372 181.755 56.8372C181.904 56.8372 181.904 56.9849 182.052 56.9849C182.348 57.1326 182.645 57.1326 182.941 57.2803C183.09 57.2803 183.238 57.2803 183.238 57.428C183.238 57.428 183.386 57.428 183.386 57.5757C183.979 57.8711 184.424 58.0188 185.017 58.4619C185.758 58.905 186.351 59.3481 187.092 59.7912C187.241 59.9389 187.389 59.9389 187.389 60.0866C187.982 60.5298 188.723 61.1206 189.316 61.7114L189.464 61.8591C189.613 62.0068 189.613 62.0068 189.761 62.1545C190.057 62.4499 190.354 62.7453 190.65 63.0407C190.799 63.1884 190.799 63.1884 190.947 63.3361C191.095 63.4838 191.095 63.4838 191.243 63.6315C191.392 63.7792 191.54 64.0746 191.688 64.2223C191.836 64.37 191.985 64.5178 191.985 64.6655C192.133 64.8132 192.133 64.9609 192.281 64.9609C192.429 65.1086 192.578 65.2563 192.578 65.404C192.726 65.5517 192.726 65.6994 192.874 65.6994C193.022 65.8471 193.171 66.1425 193.319 66.2902C193.319 66.4379 193.467 66.4379 193.467 66.5856L193.615 66.7333C193.912 67.1764 194.06 67.4718 194.357 67.9149C194.357 67.9149 194.357 67.9149 194.357 68.0626C194.357 68.2103 194.505 68.2103 194.505 68.358C194.653 68.6535 194.801 68.9489 194.95 69.0966C194.95 69.2443 195.098 69.392 195.098 69.5397C195.098 69.6874 195.246 69.8351 195.246 69.9828C195.246 70.1305 195.394 70.2782 195.394 70.2782C195.543 70.5736 195.691 71.0167 195.839 71.3121C195.839 71.3121 195.839 71.3121 195.839 71.4598C195.987 71.9029 196.136 72.1983 196.284 72.6415C196.284 72.7892 196.284 72.7892 196.432 72.9369C196.432 73.0846 196.58 73.2323 196.58 73.38C196.58 73.5277 196.729 73.8231 196.729 73.9708C196.729 74.1185 196.877 74.2662 196.877 74.4139C196.877 74.5616 197.025 74.7093 197.025 74.857C197.025 75.0047 197.173 75.1524 197.173 75.1524C197.173 75.3001 197.322 75.5955 197.322 75.7432C197.322 75.8909 197.47 76.1863 197.47 76.334C197.47 76.4818 197.47 76.4817 197.47 76.6295C197.47 76.7772 197.47 76.9249 197.618 77.0726C197.618 77.368 197.766 77.8111 197.766 78.1065C197.766 78.2542 197.766 78.2542 197.766 78.4019C197.766 78.5496 197.766 78.5496 197.766 78.6973C197.915 79.4358 197.915 80.322 197.915 81.0606C197.915 89.4797 185.165 97.308 184.424 97.7511L180.273 100.114C181.014 99.6712 193.615 91.8429 193.764 83.4238C193.764 82.6853 193.764 81.9468 193.615 81.0606C193.615 80.9129 193.615 80.6174 193.615 80.4697C193.615 80.1743 193.467 79.7312 193.467 79.4358C193.467 79.1404 193.319 78.9927 193.319 78.6973C193.319 78.5496 193.171 78.2542 193.171 78.1065C193.022 77.8111 193.022 77.5157 192.874 77.0726C192.874 76.9249 192.726 76.7772 192.726 76.4818C192.578 76.1863 192.429 75.7432 192.429 75.4478C192.429 75.3001 192.281 75.1524 192.281 75.0047C192.133 74.5616 191.836 73.9708 191.688 73.5277C191.688 73.5277 191.688 73.5277 191.688 73.38C191.54 72.9369 191.243 72.4938 191.095 72.0506C191.095 71.9029 190.947 71.7552 190.947 71.6075C190.799 71.1644 190.502 70.869 190.354 70.4259C190.354 70.2782 190.206 70.2782 190.206 70.1305C189.909 69.6874 189.613 69.2443 189.316 68.8012C189.168 68.6535 189.168 68.5057 189.02 68.5057C188.723 68.2103 188.575 67.7672 188.278 67.4718C188.13 67.3241 187.982 67.1764 187.982 67.0287C187.834 66.7333 187.537 66.4379 187.389 66.2902C187.241 66.1425 187.092 65.8471 186.944 65.6994C186.796 65.5517 186.648 65.2563 186.499 65.1086C186.203 64.8132 185.906 64.5178 185.61 64.2223C185.462 64.0746 185.313 63.9269 185.165 63.7792C184.572 63.1884 183.979 62.5976 183.238 62.1545C183.09 62.0068 182.941 62.0068 182.941 61.8591C182.2 61.416 181.607 60.8252 180.866 60.5298C180.273 60.2343 179.68 59.9389 179.235 59.6435C179.087 59.4958 178.939 59.4958 178.79 59.4958C178.494 59.3481 178.197 59.2004 177.901 59.2004C177.753 59.2004 177.456 59.0527 177.308 59.0527C177.16 59.0527 176.863 58.905 176.715 58.905C176.418 58.905 176.27 58.7573 175.974 58.7573C175.825 58.7573 175.677 58.7573 175.529 58.7573C175.232 58.7573 174.936 58.7573 174.639 58.7573H174.491C174.195 58.7573 173.75 58.7573 173.453 58.905C173.305 58.905 173.305 58.905 173.157 58.905C172.86 58.905 172.712 59.0527 172.416 59.0527C172.416 59.0527 172.267 59.0527 172.267 59.2004C171.971 59.3481 171.674 59.4958 171.378 59.6435L175.529 57.5757Z" fill="url(#paint1_linear_129_3)"/>
<path d="M180.273 67.0287C176.122 64.6654 172.712 66.5856 172.712 71.3121C172.712 76.0386 176.122 81.9468 180.273 84.31C184.424 86.6733 187.833 84.7531 187.833 80.0266C187.833 75.3001 184.572 69.5397 180.273 67.0287Z" fill="white"/>
<path d="M230.234 226.401L232.754 224.924C232.606 224.776 232.606 224.629 232.458 224.333L229.938 225.81C230.086 225.958 230.234 226.106 230.234 226.401Z" fill="#6B1A2C"/>
<path d="M229.938 225.81L232.458 224.333C232.31 224.186 232.31 224.038 232.162 223.742L229.642 225.219C229.79 225.515 229.938 225.663 229.938 225.81Z" fill="#6B1A2C"/>
<path d="M229.79 225.219L232.31 223.742C232.162 223.595 232.162 223.447 232.013 223.151L229.493 224.629C229.493 224.924 229.641 225.072 229.79 225.219Z" fill="#802E3C"/>
<path d="M229.493 224.776L232.013 223.299C231.865 223.152 231.865 222.856 231.717 222.708L229.196 224.186C229.345 224.333 229.345 224.629 229.493 224.776Z" fill="#6B1A2C"/>
<path d="M229.196 224.186L231.716 222.709C231.568 222.561 231.568 222.266 231.568 222.118L229.048 223.595C229.048 223.743 229.196 224.038 229.196 224.186Z" fill="#6B1A2C"/>
<path d="M229.048 223.595L231.568 222.118C231.568 221.97 231.42 221.675 231.42 221.527L228.899 223.004C228.899 223.152 228.899 223.447 229.048 223.595Z" fill="#6B1A2C"/>
<path d="M248.468 214.585L251.137 213.108L231.42 221.527L228.899 223.004L248.468 214.585Z" fill="#802E3C"/>
<path d="M248.468 214.585L251.137 213.108L231.42 182.385L228.899 183.862L248.468 214.585Z" fill="#6B1A2C"/>
<path d="M228.899 183.862L231.42 182.385C231.716 181.499 232.309 180.908 232.902 180.613L230.382 182.09C229.641 182.533 229.196 183.124 228.899 183.862Z" fill="#6B1A2C"/>
<path d="M283.9 212.222L257.215 223.595L230.53 181.942C229.789 182.238 229.047 182.976 228.751 183.862L248.32 214.585L228.751 223.004C229.196 224.333 229.789 225.81 230.53 226.992L250.692 218.277L256.029 226.696C256.326 227.14 256.622 227.583 257.067 227.73C257.363 227.878 257.808 228.026 258.105 227.878L263.59 225.515L284.049 257.567C284.79 257.271 285.383 256.533 285.828 255.499L265.962 224.481L285.679 216.062C285.383 214.732 284.79 213.403 283.9 212.222Z" fill="url(#paint2_linear_129_3)"/>
<path d="M234.829 182.533C231.419 180.613 228.602 182.09 228.602 186.078L228.454 220.198C228.454 224.186 231.271 228.912 234.681 230.98L280.045 257.123C283.455 259.044 286.272 257.567 286.272 253.579L286.42 219.459C286.42 215.471 283.603 210.744 280.194 208.677L234.829 182.533ZM228.899 223.004L248.468 214.585L228.899 183.862C229.195 182.828 229.937 182.238 230.678 181.942L257.363 223.595L284.048 212.221C284.938 213.403 285.531 214.732 285.975 216.21L266.258 224.629L286.124 255.646C285.827 256.68 285.234 257.271 284.345 257.714L263.886 225.663L258.401 228.026C258.104 228.174 257.659 228.026 257.363 227.878C257.066 227.73 256.622 227.287 256.325 226.844L250.988 218.425L230.826 227.14C229.937 225.81 229.195 224.333 228.899 223.004Z" fill="white"/>
<path d="M232.012 60.5299C232.605 60.5299 233.347 60.2344 233.643 59.4959C234.088 58.6097 233.791 57.5758 232.902 56.985L212.295 46.498C211.405 46.0549 210.368 46.3503 209.775 47.2365C209.33 48.1228 209.626 49.1567 210.516 49.7475L231.123 60.2344C231.419 60.5299 231.716 60.5299 232.012 60.5299Z" fill="url(#paint3_linear_129_3)"/>
<path d="M230.233 73.2325C230.826 73.2325 231.567 72.9371 231.864 72.1986C232.308 71.3124 232.012 70.2784 231.122 69.6876L210.516 59.2006C209.626 58.7575 208.588 59.0529 207.995 59.9392C207.551 60.8254 207.847 61.8593 208.737 62.4501L229.343 72.9371C229.64 73.2325 229.936 73.2325 230.233 73.2325Z" fill="url(#paint4_linear_129_3)"/>
<path d="M59.0024 9.12884C59.2989 9.12884 59.5954 8.98114 59.7436 8.68573C60.0401 8.24262 59.7436 7.6518 59.2989 7.5041L44.9186 0.118911C44.4739 -0.176497 43.8809 0.118911 43.7326 0.562022C43.4361 1.00513 43.7326 1.59595 44.1774 1.74365L58.5576 9.12884C58.7059 9.12884 58.8541 9.12884 59.0024 9.12884Z" fill="url(#paint5_linear_129_3)"/>
<path d="M57.8169 18.1389C58.1134 18.1389 58.4099 17.9911 58.5582 17.6957C58.8547 17.2526 58.5582 16.6618 58.1134 16.5141L43.7331 9.12892C43.2883 8.83351 42.6953 9.12892 42.5471 9.57203C42.2506 10.0151 42.5471 10.606 42.9918 10.7537L57.3721 18.1389C57.5204 17.9911 57.6687 18.1389 57.8169 18.1389Z" fill="url(#paint6_linear_129_3)"/>
<path d="M67.1562 25.0807L68.0458 24.4899L67.1562 25.0807Z" fill="#6B1A2C"/>
<path d="M67.0086 25.0809L67.898 24.4901L67.7498 24.3424L66.8604 24.9332C67.0086 24.9332 67.0086 25.0809 67.0086 25.0809Z" fill="#6B1A2C"/>
<path d="M67.0086 24.9331L67.898 24.3423C67.898 24.3423 67.898 24.1946 67.7498 24.1946L66.8604 24.7854C66.8604 24.7854 66.8603 24.7854 67.0086 24.9331Z" fill="#6B1A2C"/>
<path d="M66.8602 24.6378L67.7497 24.047C67.7497 24.047 67.7497 23.8993 67.6014 23.8993L66.7119 24.4901C66.8602 24.6378 66.8602 24.6378 66.8602 24.6378Z" fill="#6B1A2C"/>
<path d="M66.7117 24.49L67.6013 23.8992C67.6013 23.8992 67.6013 23.7515 67.453 23.7515L66.5635 24.3423C66.7117 24.3423 66.7117 24.49 66.7117 24.49Z" fill="#802E3C"/>
<path d="M66.7117 24.3423L67.6013 23.7515C67.6013 23.7515 67.6013 23.6038 67.453 23.6038L66.5635 24.1946C66.5635 24.1946 66.5635 24.1946 66.7117 24.3423Z" fill="#6B1A2C"/>
<path d="M66.5633 24.047L67.4528 23.4562C67.4528 23.4562 67.4528 23.3085 67.3045 23.3085L66.415 23.8993C66.5633 23.8993 66.5633 24.047 66.5633 24.047Z" fill="#6B1A2C"/>
<path d="M66.5633 23.8992L67.4529 23.3083V23.1606L66.5633 23.7515C66.4151 23.7515 66.4151 23.7515 66.5633 23.8992Z" fill="#6B1A2C"/>
<path d="M73.6793 20.5021L74.7171 19.9113L67.4528 23.1607L66.415 23.6039L73.6793 20.5021Z" fill="#802E3C"/>
<path d="M73.6793 20.5021L74.7171 19.9113L67.4528 8.68579L66.415 9.1289L73.6793 20.5021Z" fill="#6B1A2C"/>
<path d="M74.5688 21.9791L75.6066 21.3883L68.0457 24.6378L67.1562 25.0809L74.5688 21.9791Z" fill="#802E3C"/>
<path d="M76.6439 25.0809L77.5334 24.4901L75.6061 21.3883L74.5684 21.9791L76.6439 25.0809Z" fill="#6B1A2C"/>
<path d="M66.415 9.1289L67.3045 8.53808C67.4528 8.24267 67.6011 7.94726 67.8976 7.79956L67.008 8.39038C66.7115 8.68578 66.5633 8.83349 66.415 9.1289Z" fill="#6B1A2C"/>
<path d="M67.1571 8.39038L68.0466 7.79956C68.0466 7.79956 68.0466 7.79956 67.8983 7.79956L67.1571 8.39038C67.0088 8.53808 67.0088 8.39038 67.1571 8.39038Z" fill="#802E3C"/>
<path d="M67.0088 8.5382L67.8984 7.94739L67.0088 8.5382Z" fill="#802E3C"/>
<path d="M77.0895 25.5239L77.979 24.9331C77.979 24.9331 77.9789 24.9331 77.8307 24.9331L77.6824 24.7854L76.793 25.3762C76.793 25.3762 76.9412 25.3762 77.0895 25.5239C76.9412 25.3762 76.9412 25.3762 77.0895 25.5239Z" fill="#6B1A2C"/>
<path d="M76.793 25.2288L77.6825 24.6379L76.793 25.2288Z" fill="#6B1A2C"/>
<path d="M76.6445 25.2296L77.534 24.6388L76.6445 25.2296Z" fill="#6B1A2C"/>
<path d="M76.6445 25.0809L77.534 24.4901L76.6445 25.0809Z" fill="#6B1A2C"/>
<path d="M76.6445 25.0809L77.534 24.4901L76.6445 25.0809Z" fill="#6B1A2C"/>
<path d="M76.6445 25.0809L77.534 24.4901L76.6445 25.0809Z" fill="#6B1A2C"/>
<path d="M77.3848 25.524L78.2743 24.9332L77.3848 25.524Z" fill="#802E3C"/>
<path d="M77.3848 25.524L78.2743 24.9332L77.3848 25.524Z" fill="#6B1A2C"/>
<path d="M77.2354 25.524L78.1248 24.9332L77.2354 25.524Z" fill="#6B1A2C"/>
<path d="M77.2354 25.524L78.1248 24.9332L77.2354 25.524Z" fill="#6B1A2C"/>
<path d="M77.2354 25.524L78.1248 24.9332L77.2354 25.524Z" fill="#6B1A2C"/>
<path d="M77.2354 25.524L78.1248 24.9332L77.2354 25.524Z" fill="#6B1A2C"/>
<path d="M77.0879 25.524L77.9774 24.9332L77.0879 25.524Z" fill="#6B1A2C"/>
<path d="M77.0879 25.524L77.9774 24.9332L77.0879 25.524Z" fill="#6B1A2C"/>
<path d="M77.0885 25.5241L77.978 24.9332C77.978 24.9332 77.978 24.9332 77.8297 24.9332L77.6815 24.7855L76.792 25.3763C76.792 25.3763 76.9402 25.3763 77.0885 25.5241C76.9402 25.3763 76.9402 25.3763 77.0885 25.5241Z" fill="#6B1A2C"/>
<path d="M76.9408 23.8994L77.9786 23.3086L68.0457 7.94739L67.1562 8.3905L76.9408 23.8994Z" fill="#802E3C"/>
<path d="M79.313 24.6378L80.3508 24.047L78.2753 24.9332L77.3857 25.524L79.313 24.6378Z" fill="#802E3C"/>
<path d="M87.0225 36.4541L87.912 35.8633L80.3512 24.047L79.3135 24.6378L87.0225 36.4541Z" fill="#6B1A2C"/>
<path d="M87.0215 36.4541L87.911 35.8633C88.3557 35.5679 88.6522 35.1248 88.6522 34.3862L87.7627 34.977C87.7627 35.7156 87.4662 36.1587 87.0215 36.4541Z" fill="#6B1A2C"/>
<path d="M87.0215 36.4541L87.911 35.8633C88.3557 35.5679 88.6522 35.1248 88.6522 34.3862L87.7627 34.977C87.7627 35.7156 87.4662 36.1587 87.0215 36.4541Z" fill="#6B1A2C"/>
<path d="M87.0215 36.4541L87.911 35.8633C88.3557 35.5679 88.6522 35.1248 88.6522 34.3862L87.7627 34.977C87.7627 35.7156 87.4662 36.1587 87.0215 36.4541Z" fill="#6B1A2C"/>
<path d="M87.6147 35.7155L88.5042 35.1246L81.2399 23.6038L80.2021 24.1946L87.6147 35.7155Z" fill="#802E3C"/>
<path d="M87.6147 21.093L88.5042 20.5022L81.2399 23.604L80.2021 24.1948L87.6147 21.093Z" fill="#802E3C"/>
<path d="M86.8732 19.616L87.7627 19.0251L77.9782 23.3086L76.9404 23.8994L86.8732 19.616Z" fill="#802E3C"/>
<path d="M87.0234 36.4541L87.9129 35.8633C88.2094 35.7156 88.3577 35.4202 88.5059 35.1248L87.6164 35.7156C87.4682 36.011 87.3199 36.3064 87.0234 36.4541Z" fill="#1E959B"/>
<path d="M87.7647 34.977L88.6541 34.3862C88.6541 35.1248 88.3576 35.5679 87.9129 35.8633L87.0234 36.4541C87.4682 36.1587 87.7647 35.7156 87.7647 34.977Z" fill="#1E959B"/>
<path d="M87.6164 35.7156L88.5059 35.1248C88.3577 35.4202 88.2094 35.7156 87.9129 35.8633C87.6164 36.011 87.3199 36.3064 87.0234 36.4541C87.3199 36.3064 87.4682 36.011 87.6164 35.7156Z" fill="url(#paint7_linear_129_3)"/>
<path d="M67.3053 8.24267C67.6018 8.09497 67.75 7.94726 68.0465 7.79956H68.1948H68.3431H68.4913H68.6396H68.7878H68.9361C68.9361 7.79956 68.9361 7.79956 69.0843 7.79956C69.2326 7.79956 69.2326 7.94726 69.3808 7.94726L86.1331 17.6957C86.2814 17.8434 86.4296 17.8434 86.5779 17.9911C86.5779 17.9911 86.7261 17.9911 86.7261 18.1388C86.8744 18.1388 86.8744 18.2865 87.0226 18.2865C87.1709 18.4342 87.1709 18.4342 87.3191 18.5819L87.4674 18.7296C87.4674 18.7296 87.4674 18.8773 87.6157 18.8773L87.7639 19.025L87.9121 19.1728C87.9121 19.1728 87.9121 19.1727 87.9121 19.3205C87.9121 19.3205 87.9121 19.4682 88.0604 19.4682C88.0604 19.4682 88.0604 19.6159 88.2086 19.6159V19.7636C88.2086 19.7636 88.2087 19.9113 88.3569 19.9113V20.059C88.3569 20.2067 88.3569 20.2067 88.3569 20.3544V20.5021C88.3569 20.5021 88.3569 20.5021 88.3569 20.6498C88.3569 20.7975 88.3569 20.9452 88.3569 21.0929V33.6477C88.3569 33.9431 88.3569 34.2385 88.2086 34.3862C87.9121 34.5339 87.6156 34.8293 87.3191 34.9771C87.3191 34.8293 87.4674 34.5339 87.4674 34.2385V21.6837C87.4674 21.536 87.4674 21.3883 87.4674 21.2406C87.4674 21.2406 87.4674 21.2406 87.4674 21.0929C87.4674 20.9452 87.4674 20.7975 87.3191 20.6498C87.3191 20.5021 87.1709 20.3544 87.1709 20.2067C87.1709 20.2067 87.1709 20.2067 87.1709 20.059C87.1709 19.9113 87.0226 19.7636 87.0226 19.6159C87.0226 19.6159 87.0226 19.4682 86.8744 19.4682L86.7261 19.3205L86.5779 19.1728C86.5779 19.1728 86.5779 19.1728 86.5779 19.025C86.4296 18.8773 86.4296 18.8773 86.2814 18.7296C86.1331 18.5819 86.1331 18.5819 85.9849 18.4342C85.8366 18.2865 85.8366 18.2865 85.6884 18.2865L85.5401 18.1388C85.3919 17.9911 85.2436 17.9911 85.0954 17.8434L68.3431 8.09497C68.1948 7.94727 68.0466 7.94726 67.8983 7.94726C67.8983 7.94726 67.8983 7.94726 67.75 7.94726C67.6018 7.94726 67.4535 7.94726 67.4535 7.79956C67.6018 8.39038 67.6018 8.39037 67.3053 8.24267C67.4535 8.39037 67.4535 8.39037 67.3053 8.24267C67.3053 8.24267 67.157 8.39038 67.0088 8.39038C67.157 8.39038 67.3053 8.39037 67.3053 8.24267Z" fill="url(#paint8_linear_129_3)"/>
<path d="M86.8737 19.6159L76.9408 23.8993L67.008 8.53809C66.7115 8.68579 66.415 8.9812 66.415 9.2766L73.6793 20.6498L66.415 23.7516C66.5633 24.1947 66.8598 24.7855 67.1563 25.2286L74.5688 21.9791L76.4961 25.0809C76.6444 25.2286 76.7926 25.3763 76.9408 25.524C77.0891 25.6717 77.2373 25.6717 77.3856 25.524L79.4611 24.6378L87.0219 36.4541C87.3184 36.3064 87.4667 36.011 87.6149 35.7156L80.2024 24.1947L87.4667 21.0929C87.3184 20.6498 87.1702 20.059 86.8737 19.6159Z" fill="url(#paint9_linear_129_3)"/>
<path d="M68.6386 8.68574C67.3044 7.94722 66.2666 8.53804 66.2666 10.0151V22.5699C66.2666 24.0469 67.3044 25.8194 68.6386 26.5579L85.3911 36.3063C86.7253 37.0449 87.7631 36.454 87.7631 34.977V22.4222C87.7631 20.9451 86.7253 19.1727 85.3911 18.4342L68.6386 8.68574ZM66.4149 23.6038L73.6792 20.502L66.4149 9.12885C66.5631 8.83344 66.7114 8.53803 67.0079 8.39033L76.9407 23.7515L86.8736 19.4681C87.1701 19.9112 87.4666 20.3543 87.6148 20.9451L80.3505 24.0469L87.7631 35.5678C87.6148 35.8632 87.4666 36.1586 87.1701 36.3063L79.6092 24.49L77.5337 25.3763C77.3855 25.3763 77.2372 25.3763 77.089 25.3763C76.9407 25.2286 76.7925 25.2286 76.6442 24.9332L74.7169 21.8314L67.3044 25.0809C66.8596 24.6377 66.5631 24.1946 66.4149 23.6038Z" fill="white"/>
<path d="M13.3425 27.0011L0 9.42432L3.11327 29.6597L6.96777 28.6258L28.9089 84.0147C29.2054 84.7532 29.7984 85.4918 30.5396 85.9349C31.1326 86.2303 31.7256 86.2303 32.0221 85.7872L42.2514 68.5058L57.0765 113.26C57.373 113.999 57.966 114.885 58.559 115.328C59.3002 115.771 59.8932 115.771 60.1897 115.328L66.861 105.579L75.3113 127.292C75.6078 128.03 76.2008 128.769 76.7938 129.212C77.0903 129.36 77.3868 129.507 77.6833 129.507C78.5728 129.507 78.8693 128.621 78.4245 127.44L68.4917 101.591C68.1952 100.853 67.6022 100.114 67.0092 99.6713C66.4162 99.2282 65.8232 99.3759 65.3785 99.819L58.8555 109.272L44.0304 64.2224C43.7339 63.3362 43.1409 62.5977 42.3997 62.1546C41.6584 61.7114 41.0654 61.8592 40.7689 62.3023L30.3914 79.879L9.78454 28.035L13.3425 27.0011Z" fill="url(#paint10_linear_129_3)"/>
<defs>
<linearGradient id="paint0_linear_129_3" x1="194.21" y1="79.7969" x2="167.512" y2="79.7969" gradientUnits="userSpaceOnUse">
<stop offset="0.1592" stop-color="#F05670"/>
<stop offset="1" stop-color="#802E3C"/>
</linearGradient>
<linearGradient id="paint1_linear_129_3" x1="184.887" y1="62.6884" x2="184.887" y2="89.659" gradientUnits="userSpaceOnUse">
<stop offset="0.1592" stop-color="#F05670"/>
<stop offset="1" stop-color="#802E3C"/>
</linearGradient>
<linearGradient id="paint2_linear_129_3" x1="286.024" y1="219.768" x2="228.855" y2="219.768" gradientUnits="userSpaceOnUse">
<stop stop-color="#25B8BF"/>
<stop offset="0.1495" stop-color="#29BDC4"/>
<stop offset="1" stop-color="#3ED6DE"/>
</linearGradient>
<linearGradient id="paint3_linear_129_3" x1="233.863" y1="53.5234" x2="209.611" y2="53.5234" gradientUnits="userSpaceOnUse">
<stop stop-color="#1E959B"/>
<stop offset="1" stop-color="#0F4A4D"/>
</linearGradient>
<linearGradient id="paint4_linear_129_3" x1="232.041" y1="66.2243" x2="207.79" y2="66.2243" gradientUnits="userSpaceOnUse">
<stop stop-color="#1E959B"/>
<stop offset="1" stop-color="#0F4A4D"/>
</linearGradient>
<linearGradient id="paint5_linear_129_3" x1="59.9392" y1="4.62136" x2="43.6852" y2="4.62136" gradientUnits="userSpaceOnUse">
<stop stop-color="#25B8BF"/>
<stop offset="0.1495" stop-color="#29BDC4"/>
<stop offset="1" stop-color="#3ED6DE"/>
</linearGradient>
<linearGradient id="paint6_linear_129_3" x1="58.6645" y1="13.5166" x2="42.4097" y2="13.5166" gradientUnits="userSpaceOnUse">
<stop stop-color="#25B8BF"/>
<stop offset="0.1495" stop-color="#29BDC4"/>
<stop offset="1" stop-color="#3ED6DE"/>
</linearGradient>
<linearGradient id="paint7_linear_129_3" x1="88.5655" y1="35.7871" x2="87.0565" y2="35.7871" gradientUnits="userSpaceOnUse">
<stop stop-color="#25B8BF"/>
<stop offset="0.1495" stop-color="#29BDC4"/>
<stop offset="1" stop-color="#3ED6DE"/>
</linearGradient>
<linearGradient id="paint8_linear_129_3" x1="88.7283" y1="21.7301" x2="67.1081" y2="21.7301" gradientUnits="userSpaceOnUse">
<stop stop-color="#25B8BF"/>
<stop offset="0.1495" stop-color="#29BDC4"/>
<stop offset="1" stop-color="#3ED6DE"/>
</linearGradient>
<linearGradient id="paint9_linear_129_3" x1="87.6038" y1="22.4518" x2="66.4311" y2="22.4518" gradientUnits="userSpaceOnUse">
<stop stop-color="#25B8BF"/>
<stop offset="0.1495" stop-color="#29BDC4"/>
<stop offset="1" stop-color="#3ED6DE"/>
</linearGradient>
<linearGradient id="paint10_linear_129_3" x1="78.6817" y1="69.4229" x2="0.0674564" y2="69.4229" gradientUnits="userSpaceOnUse">
<stop stop-color="#1E959B"/>
<stop offset="1" stop-color="#0F4A4D"/>
</linearGradient>
</defs>
</svg>
