<svg width="221" height="19" viewBox="0 0 221 19" fill="none" xmlns="http://www.w3.org/2000/svg">
<path d="M6.7509 18.336C5.1029 18.336 3.7109 17.968 2.5749 17.232C1.4389 16.496 0.630895 15.48 0.150895 14.184L2.9829 12.528C3.6389 14.24 4.9269 15.096 6.8469 15.096C7.7429 15.096 8.4149 14.936 8.8629 14.616C9.3109 14.296 9.5349 13.864 9.5349 13.32C9.5349 12.728 9.2709 12.272 8.7429 11.952C8.2149 11.616 7.2709 11.256 5.9109 10.872C4.4389 10.424 3.2789 9.904 2.4309 9.312C1.3749 8.528 0.846895 7.376 0.846895 5.856C0.846895 4.32 1.3829 3.112 2.4549 2.232C3.5269 1.32 4.8309 0.863999 6.3669 0.863999C7.7109 0.863999 8.9029 1.192 9.9429 1.848C10.9829 2.504 11.7909 3.432 12.3669 4.632L9.5829 6.24C8.9109 4.8 7.8389 4.08 6.3669 4.08C5.6949 4.08 5.1589 4.24 4.7589 4.56C4.3589 4.864 4.1589 5.264 4.1589 5.76C4.1589 6.288 4.3749 6.72 4.8069 7.056C5.2869 7.392 6.1349 7.744 7.3509 8.112L8.5029 8.496C8.7109 8.56 9.0709 8.696 9.5829 8.904C10.0629 9.08 10.4149 9.248 10.6389 9.408C11.4229 9.888 11.9509 10.384 12.2229 10.896C12.6389 11.568 12.8469 12.36 12.8469 13.272C12.8469 14.824 12.2789 16.056 11.1429 16.968C10.0069 17.88 8.5429 18.336 6.7509 18.336ZM29.1493 18H25.5493L24.5413 14.976H17.8453L16.8373 18H13.2613L19.1413 1.2H23.2453L29.1493 18ZM21.2053 5.016L18.9013 11.88H23.5093L21.2053 5.016ZM45.368 18H41.768L40.76 14.976H34.064L33.056 18H29.48L35.36 1.2H39.464L45.368 18ZM37.424 5.016L35.12 11.88H39.728L37.424 5.016ZM52.3603 18.336C50.7123 18.336 49.3203 17.968 48.1843 17.232C47.0483 16.496 46.2403 15.48 45.7603 14.184L48.5923 12.528C49.2483 14.24 50.5363 15.096 52.4563 15.096C53.3523 15.096 54.0243 14.936 54.4723 14.616C54.9203 14.296 55.1443 13.864 55.1443 13.32C55.1443 12.728 54.8803 12.272 54.3523 11.952C53.8243 11.616 52.8803 11.256 51.5203 10.872C50.0483 10.424 48.8883 9.904 48.0403 9.312C46.9843 8.528 46.4563 7.376 46.4563 5.856C46.4563 4.32 46.9923 3.112 48.0643 2.232C49.1363 1.32 50.4403 0.863999 51.9763 0.863999C53.3203 0.863999 54.5123 1.192 55.5523 1.848C56.5923 2.504 57.4003 3.432 57.9763 4.632L55.1923 6.24C54.5203 4.8 53.4483 4.08 51.9763 4.08C51.3043 4.08 50.7683 4.24 50.3683 4.56C49.9683 4.864 49.7683 5.264 49.7683 5.76C49.7683 6.288 49.9843 6.72 50.4163 7.056C50.8963 7.392 51.7443 7.744 52.9603 8.112L54.1123 8.496C54.3203 8.56 54.6803 8.696 55.1923 8.904C55.6723 9.08 56.0243 9.248 56.2483 9.408C57.0323 9.888 57.5603 10.384 57.8323 10.896C58.2483 11.568 58.4563 12.36 58.4563 13.272C58.4563 14.824 57.8883 16.056 56.7523 16.968C55.6163 17.88 54.1523 18.336 52.3603 18.336ZM69.3586 12.24H60.3586V9.264H69.3586V12.24ZM72.4758 1.2H85.0278V18H81.7158V4.368H75.7878V18H72.4758V1.2ZM86.8595 18V14.928C87.8835 15.072 88.6355 14.864 89.1155 14.304C89.5955 13.728 89.8355 12.672 89.8355 11.136V1.2H101.26V18H97.9715V4.368H93.1235V11.04C93.1235 13.936 92.4595 15.896 91.1315 16.92C89.9955 17.816 88.5715 18.176 86.8595 18ZM118.774 18H115.174L114.166 14.976H107.47L106.462 18H102.886L108.766 1.2H112.87L118.774 18ZM110.83 5.016L108.526 11.88H113.134L110.83 5.016ZM117.939 1.2H130.299V4.368H125.763V18H122.451V4.368H117.939V1.2ZM140.817 16.416V18.36H137.577V16.416C135.225 16.176 133.361 15.464 131.985 14.28C130.609 13.08 129.921 11.52 129.921 9.6C129.921 7.68 130.609 6.128 131.985 4.944C133.345 3.744 135.209 3.024 137.577 2.784V0.839999H140.817V2.784C143.137 2.992 145.001 3.704 146.409 4.92C147.801 6.12 148.497 7.68 148.497 9.6C148.497 11.52 147.801 13.08 146.409 14.28C145.001 15.496 143.137 16.208 140.817 16.416ZM140.817 5.784V13.392C143.729 13.056 145.185 11.792 145.185 9.6C145.185 7.392 143.729 6.12 140.817 5.784ZM133.209 9.6C133.209 11.792 134.665 13.048 137.577 13.368V5.808C134.665 6.128 133.209 7.392 133.209 9.6ZM164.729 15.816C163.033 17.496 160.969 18.336 158.537 18.336C156.105 18.336 154.041 17.496 152.345 15.816C150.665 14.104 149.825 12.032 149.825 9.6C149.825 7.152 150.665 5.088 152.345 3.408C154.041 1.712 156.105 0.863999 158.537 0.863999C160.969 0.863999 163.033 1.712 164.729 3.408C166.425 5.088 167.273 7.152 167.273 9.6C167.273 12.048 166.425 14.12 164.729 15.816ZM154.673 13.56C155.697 14.584 156.985 15.096 158.537 15.096C160.089 15.096 161.377 14.584 162.401 13.56C163.441 12.52 163.961 11.2 163.961 9.6C163.961 8 163.441 6.68 162.401 5.64C161.361 4.6 160.073 4.08 158.537 4.08C157.001 4.08 155.713 4.6 154.673 5.64C153.633 6.68 153.113 8 153.113 9.6C153.113 11.2 153.633 12.52 154.673 13.56ZM169.601 1.2H175.865C177.465 1.2 178.825 1.744 179.945 2.832C181.049 3.92 181.601 5.256 181.601 6.84C181.601 8.424 181.049 9.76 179.945 10.848C178.825 11.936 177.465 12.48 175.865 12.48H172.913V18H169.601V1.2ZM172.913 9.384H175.865C176.569 9.384 177.153 9.144 177.617 8.664C178.081 8.168 178.313 7.56 178.313 6.84C178.313 6.104 178.081 5.496 177.617 5.016C177.153 4.536 176.569 4.296 175.865 4.296H172.913V9.384ZM196.789 1.2H200.197V18H196.909V7.104L192.181 14.904H191.797L187.069 7.128V18H183.757V1.2H187.165L191.989 9.144L196.789 1.2ZM209.591 18H203.327V1.2H206.639V6.72H209.591C211.191 6.72 212.551 7.264 213.671 8.352C214.775 9.44 215.327 10.776 215.327 12.36C215.327 13.944 214.775 15.28 213.671 16.368C212.551 17.456 211.191 18 209.591 18ZM220.151 18H216.863V1.2H220.151V18ZM206.639 9.816V14.904H209.591C210.295 14.904 210.879 14.664 211.343 14.184C211.807 13.704 212.039 13.096 212.039 12.36C212.039 11.624 211.807 11.016 211.343 10.536C210.879 10.056 210.295 9.816 209.591 9.816H206.639Z" fill="#1E959B"/>
</svg>
