<svg width="277" height="90" viewBox="0 0 277 90" fill="none" xmlns="http://www.w3.org/2000/svg" id="sectionSignUp">
<g filter="url(#filter0_d_120_777)">
<path d="M10 25C10 13.9543 18.9543 5 30 5H247C258.046 5 267 13.9543 267 25V55C267 66.0457 258.046 75 247 75H30C18.9543 75 10 66.0457 10 55V25Z" fill="#F05670"/>
</g>
<path d="M37.976 38.208C39.0427 38.7627 39.576 39.648 39.576 40.864C39.576 41.856 39.1973 42.6667 38.44 43.296C37.6933 43.9147 36.7173 44.224 35.512 44.224C33.432 44.224 32.04 43.344 31.336 41.584L33.24 40.512C33.5707 41.6 34.328 42.144 35.512 42.144C36.1093 42.144 36.568 42.0213 36.888 41.776C37.2187 41.52 37.384 41.168 37.384 40.72C37.384 40.272 37.224 39.9253 36.904 39.68C36.584 39.424 36.136 39.296 35.56 39.296H34.168V37.328H35.224C35.7787 37.328 36.2107 37.2107 36.52 36.976C36.8293 36.7307 36.984 36.4 36.984 35.984C36.984 35.5573 36.8453 35.2267 36.568 34.992C36.3013 34.7573 35.912 34.64 35.4 34.64C34.44 34.64 33.768 35.1093 33.384 36.048L31.512 34.96C32.2693 33.3707 33.5653 32.576 35.4 32.576C36.4987 32.576 37.4053 32.8747 38.12 33.472C38.824 34.0587 39.176 34.848 39.176 35.84C39.176 36.8427 38.776 37.632 37.976 38.208ZM50.6088 44H48.2088L47.5368 41.984H43.0728L42.4008 44H40.0168L43.9368 32.8H46.6728L50.6088 44ZM45.3128 35.344L43.7768 39.92H46.8488L45.3128 35.344ZM51.6963 32.8H60.0642V44H57.8563V34.912H53.9043V44H51.6963V32.8ZM70.8374 44H68.6294V37.168L63.8294 44H62.1494V32.8H64.3574V39.648L69.1574 32.8H70.8374V44ZM78.227 44.224C76.5523 44.224 75.1603 43.664 74.051 42.544C72.9523 41.4347 72.403 40.0533 72.403 38.4C72.403 36.736 72.9523 35.3547 74.051 34.256C75.1603 33.136 76.5523 32.576 78.227 32.576C79.2403 32.576 80.1737 32.816 81.027 33.296C81.891 33.7653 82.563 34.4053 83.043 35.216L81.139 36.32C80.8617 35.8187 80.467 35.4293 79.955 35.152C79.443 34.864 78.867 34.72 78.227 34.72C77.139 34.72 76.259 35.0613 75.587 35.744C74.9257 36.4373 74.595 37.3227 74.595 38.4C74.595 39.4667 74.9257 40.3467 75.587 41.04C76.259 41.7227 77.139 42.064 78.227 42.064C78.867 42.064 79.443 41.9253 79.955 41.648C80.4777 41.36 80.8723 40.9707 81.139 40.48L83.043 41.584C82.563 42.3947 81.891 43.04 81.027 43.52C80.1737 43.9893 79.2403 44.224 78.227 44.224ZM93.9525 44H91.5525L90.8805 41.984H86.4165L85.7445 44H83.3605L87.2805 32.8H90.0165L93.9525 44ZM88.6565 35.344L87.1205 39.92H90.1925L88.6565 35.344ZM93.3955 32.8H101.635V34.912H98.6115V44H96.4035V34.912H93.3955V32.8ZM105.076 36.48H107.044C108.111 36.48 109.017 36.8427 109.764 37.568C110.5 38.2933 110.868 39.184 110.868 40.24C110.868 41.296 110.5 42.1867 109.764 42.912C109.017 43.6373 108.111 44 107.044 44H102.868V32.8H105.076V36.48ZM105.076 41.936H107.044C107.513 41.936 107.903 41.776 108.212 41.456C108.521 41.136 108.676 40.7307 108.676 40.24C108.676 39.76 108.521 39.36 108.212 39.04C107.903 38.7093 107.513 38.544 107.044 38.544H105.076V41.936ZM117.618 44.224C115.943 44.224 114.551 43.664 113.442 42.544C112.343 41.4347 111.794 40.0533 111.794 38.4C111.794 36.736 112.343 35.3547 113.442 34.256C114.551 33.136 115.943 32.576 117.618 32.576C118.631 32.576 119.564 32.816 120.418 33.296C121.282 33.7653 121.954 34.4053 122.434 35.216L120.53 36.32C120.252 35.8187 119.858 35.4293 119.346 35.152C118.834 34.864 118.258 34.72 117.618 34.72C116.53 34.72 115.65 35.0613 114.978 35.744C114.316 36.4373 113.986 37.3227 113.986 38.4C113.986 39.4667 114.316 40.3467 114.978 41.04C115.65 41.7227 116.53 42.064 117.618 42.064C118.258 42.064 118.834 41.9253 119.346 41.648C119.868 41.36 120.263 40.9707 120.53 40.48L122.434 41.584C121.954 42.3947 121.282 43.04 120.418 43.52C119.564 43.9893 118.631 44.224 117.618 44.224ZM127.058 32.8H131.538V44H129.33V40.112H128.066L125.49 44H123.01L125.746 39.872C125.031 39.616 124.45 39.1787 124.002 38.56C123.554 37.9413 123.33 37.2587 123.33 36.512C123.33 35.488 123.692 34.6133 124.418 33.888C125.143 33.1627 126.023 32.8 127.058 32.8ZM127.058 38.176H129.33V34.864H127.058C126.642 34.864 126.284 35.024 125.986 35.344C125.687 35.664 125.538 36.0533 125.538 36.512C125.538 36.9707 125.687 37.3653 125.986 37.696C126.284 38.016 126.642 38.176 127.058 38.176ZM143.986 37.248V32.8H146.178V44H143.986V39.36H139.826V44H137.618V32.8H139.826V37.248H143.986ZM157.859 44H155.459L154.787 41.984H150.323L149.651 44H147.267L151.187 32.8H153.923L157.859 44ZM152.563 35.344L151.027 39.92H154.099L152.563 35.344ZM171.634 44H169.426V37.168L164.626 44H162.946V32.8H165.154V39.648L169.954 32.8H171.634V44ZM180.08 37.248V32.8H182.272V44H180.08V39.36H175.92V44H173.712V32.8H175.92V37.248H180.08ZM183.521 32.8H191.76V34.912H188.737V44H186.529V34.912H183.521V32.8ZM195.201 39.376V41.888H199.921V44H192.993V32.8H199.841V34.912H195.201V37.296H199.441V39.376H195.201ZM201.478 32.8H205.654C206.72 32.8 207.627 33.1627 208.374 33.888C209.11 34.6133 209.477 35.504 209.477 36.56C209.477 37.616 209.11 38.5067 208.374 39.232C207.627 39.9573 206.72 40.32 205.654 40.32H203.686V44H201.478V32.8ZM203.686 38.256H205.654C206.123 38.256 206.512 38.096 206.822 37.776C207.131 37.4453 207.286 37.04 207.286 36.56C207.286 36.0693 207.131 35.664 206.822 35.344C206.512 35.024 206.123 34.864 205.654 34.864H203.686V38.256ZM217.683 38.192C218.664 38.7573 219.155 39.6107 219.155 40.752C219.155 41.7013 218.819 42.48 218.147 43.088C217.475 43.696 216.648 44 215.667 44H210.915V32.8H215.331C216.28 32.8 217.086 33.0987 217.747 33.696C218.408 34.2933 218.739 35.0453 218.739 35.952C218.739 36.88 218.387 37.6267 217.683 38.192ZM215.331 34.864H213.123V37.328H215.331C215.672 37.328 215.955 37.2107 216.179 36.976C216.414 36.7413 216.531 36.448 216.531 36.096C216.531 35.744 216.419 35.4507 216.195 35.216C215.971 34.9813 215.683 34.864 215.331 34.864ZM213.123 41.936H215.667C216.04 41.936 216.35 41.8133 216.595 41.568C216.84 41.312 216.963 40.992 216.963 40.608C216.963 40.2347 216.84 39.9253 216.595 39.68C216.35 39.424 216.04 39.296 215.667 39.296H213.123V41.936ZM222.811 36.48H224.779C225.845 36.48 226.752 36.8427 227.499 37.568C228.235 38.2933 228.602 39.184 228.602 40.24C228.602 41.296 228.235 42.1867 227.499 42.912C226.752 43.6373 225.845 44 224.779 44H220.603V32.8H222.811V36.48ZM222.811 41.936H224.779C225.248 41.936 225.637 41.776 225.947 41.456C226.256 41.136 226.411 40.7307 226.411 40.24C226.411 39.76 226.256 39.36 225.947 39.04C225.637 38.7093 225.248 38.544 224.779 38.544H222.811V41.936ZM239.544 32.576C241.165 32.576 242.541 33.1413 243.672 34.272C244.803 35.392 245.368 36.768 245.368 38.4C245.368 40.0213 244.803 41.3973 243.672 42.528C242.541 43.6587 241.165 44.224 239.544 44.224C238.104 44.224 236.845 43.76 235.768 42.832C234.712 41.904 234.077 40.7253 233.864 39.296H232.248V44H230.04V32.8H232.248V37.184H233.912C234.179 35.84 234.835 34.736 235.88 33.872C236.925 33.008 238.147 32.576 239.544 32.576ZM239.544 34.72C238.499 34.72 237.635 35.0613 236.952 35.744C236.269 36.4267 235.928 37.312 235.928 38.4C235.928 39.4667 236.275 40.3467 236.968 41.04C237.651 41.7227 238.509 42.064 239.544 42.064C240.579 42.064 241.437 41.7227 242.12 41.04C242.813 40.3467 243.16 39.4667 243.16 38.4C243.16 37.3333 242.813 36.4533 242.12 35.76C241.427 35.0667 240.568 34.72 239.544 34.72Z" fill="white"/>
<defs>
<filter id="filter0_d_120_777" x="0" y="0" width="277" height="90" filterUnits="userSpaceOnUse" color-interpolation-filters="sRGB">
<feFlood flood-opacity="0" result="BackgroundImageFix"/>
<feColorMatrix in="SourceAlpha" type="matrix" values="0 0 0 0 0 0 0 0 0 0 0 0 0 0 0 0 0 0 127 0" result="hardAlpha"/>
<feOffset dy="5"/>
<feGaussianBlur stdDeviation="5"/>
<feColorMatrix type="matrix" values="0 0 0 0 0.117647 0 0 0 0 0.584314 0 0 0 0 0.607843 0 0 0 0.5 0"/>
<feBlend mode="normal" in2="BackgroundImageFix" result="effect1_dropShadow_120_777"/>
<feBlend mode="normal" in="SourceGraphic" in2="effect1_dropShadow_120_777" result="shape"/>
</filter>
</defs>
</svg>
