<svg width="127" height="152" viewBox="0 0 127 152" fill="none" xmlns="http://www.w3.org/2000/svg">
<path opacity="0.6" d="M121.541 64.5818L-32.1088 151.01L-67 118.48L75.6059 36.1978L121.541 64.5818Z" fill="url(#paint0_linear_133_829)"/>
<path d="M62.1621 5.90006L71.9253 0.318917C72.0853 0.318917 72.0853 0.159447 72.2454 0.159447C72.4054 0.159447 72.4054 0.159461 72.5655 0C72.7255 0 72.7255 0 72.8856 0C73.0456 0 73.0456 0 73.2057 0C73.3657 0 73.5258 0 73.5258 0H73.6858C73.6858 0 73.6858 0 73.8459 0H74.0059C74.166 0 74.3261 -1.46015e-05 74.4861 0.159447C74.6462 0.159447 74.6462 0.159456 74.8062 0.318917H74.9663H75.1263C75.4464 0.478379 75.6065 0.478374 75.9266 0.637835C76.2467 0.797296 76.5668 1.11621 76.8869 1.27567C77.0469 1.43513 77.0469 1.43515 77.207 1.59461C77.367 1.75407 77.5271 1.91351 77.6871 2.07298C77.6871 2.07298 77.6871 2.23245 77.8472 2.23245L78.0072 2.39192C78.1673 2.55138 78.1673 2.55137 78.3274 2.71084C78.4874 2.8703 78.6474 3.02976 78.8075 3.18922C78.8075 3.18922 78.8075 3.18921 78.8075 3.34867C78.9676 3.50813 78.9676 3.50813 79.1276 3.66759C79.2877 3.82705 79.2877 3.98651 79.4477 4.14598C79.6078 4.30544 79.6078 4.4649 79.7678 4.62436L70.0046 10.2055C69.6845 9.72712 69.5245 9.40819 69.2044 8.92981C68.8843 8.61089 68.7242 8.29198 68.4041 7.97306L68.2441 7.81359C68.084 7.65413 67.7639 7.33521 67.6039 7.17575C67.4438 7.01629 67.4438 7.01627 67.2838 6.85681C66.9637 6.53789 66.6436 6.37844 66.3235 6.21898C66.0034 6.05951 65.6832 5.90005 65.3631 5.74059H65.2031C64.883 5.58113 64.5629 5.58114 64.2428 5.58114C64.2428 5.58114 64.2428 5.58114 64.0827 5.58114C63.7626 5.58114 63.4425 5.58114 63.1224 5.58114C62.8023 5.7406 62.4822 5.7406 62.1621 5.90006Z" fill="url(#paint1_linear_133_829)"/>
<path d="M99.1343 59.479L108.737 53.8979L79.768 4.78394L70.0049 10.3651L99.1343 59.479Z" fill="url(#paint2_linear_133_829)"/>
<path d="M106.976 54.8546L116.739 49.2734L108.737 53.8978L99.1338 59.4789L106.976 54.8546Z" fill="#9E9E9E"/>
<path d="M116.1 66.8143C116.1 66.6548 116.26 66.4953 116.26 66.3359C116.26 66.0169 116.42 65.8575 116.42 65.5386C116.42 65.3791 116.42 65.2196 116.42 65.0602C116.42 64.7413 116.42 64.4223 116.42 64.1034C116.42 63.944 116.42 63.7845 116.42 63.625V63.4656C116.42 63.1466 116.26 62.6683 116.1 62.1899C116.1 62.1899 116.1 62.1899 116.1 62.0304C115.94 61.552 115.78 61.0736 115.62 60.7547C115.459 60.2763 115.139 59.798 114.979 59.3196C114.659 58.8412 114.499 58.5223 114.179 58.0439C114.179 58.0439 114.179 58.0439 114.179 57.8844C113.859 57.5655 113.699 57.2466 113.379 56.9277L113.219 56.7682C113.059 56.6087 112.739 56.2898 112.579 56.1304C112.419 55.9709 112.419 55.9709 112.258 55.8114C111.938 55.4925 111.618 55.333 111.298 55.1736C110.978 55.0141 110.658 54.8546 110.338 54.6952H110.178C109.858 54.5357 109.538 54.5357 109.217 54.5357C109.217 54.5357 109.217 54.5357 109.057 54.5357C108.737 54.5357 108.417 54.5357 108.097 54.5357C107.777 54.5357 107.457 54.6952 107.297 54.8547L117.06 49.2735C117.22 49.2735 117.22 49.114 117.38 49.114C117.54 49.114 117.54 49.1141 117.7 48.9546C117.86 48.9546 117.86 48.9546 118.02 48.9546C118.18 48.9546 118.18 48.9546 118.34 48.9546C118.5 48.9546 118.661 48.9546 118.661 48.9546H118.821C118.821 48.9546 118.821 48.9546 118.981 48.9546H119.141C119.301 48.9546 119.461 48.9546 119.621 49.114C119.781 49.114 119.781 49.114 119.941 49.2735H120.101H120.261C120.581 49.433 120.741 49.433 121.061 49.5924C121.381 49.7519 121.701 50.0708 122.022 50.2303C122.182 50.3897 122.182 50.3897 122.342 50.5492C122.502 50.7087 122.662 50.8681 122.822 51.0276L122.982 51.187L123.142 51.3465C123.302 51.506 123.302 51.506 123.462 51.6654C123.622 51.8249 123.782 51.9844 123.942 52.1438C123.942 52.1438 123.942 52.3033 124.102 52.3033C124.102 52.3033 124.102 52.3033 124.102 52.4627C124.102 52.6222 124.262 52.6222 124.262 52.7817C124.422 52.9411 124.422 53.1006 124.582 53.26C124.742 53.4195 124.742 53.579 124.903 53.7384C125.063 53.8979 125.063 54.0574 125.063 54.2168C125.223 54.3763 125.223 54.5357 125.383 54.6952C125.383 54.8546 125.543 55.0141 125.543 55.1736C125.543 55.333 125.703 55.4925 125.703 55.652C125.703 55.8114 125.863 55.9709 125.863 56.1304C125.863 56.2898 125.863 56.4493 126.023 56.4493C126.023 56.4493 126.023 56.4493 126.023 56.6087C126.023 56.6087 126.023 56.6087 126.023 56.7682C126.023 56.9276 126.183 57.2466 126.183 57.406C126.183 57.5655 126.183 57.725 126.183 57.8844V58.0439V58.2034C126.183 58.3628 126.183 58.3628 126.183 58.5223C126.183 58.8412 126.183 59.1601 126.183 59.479C126.183 59.6385 126.183 59.798 126.183 59.9574C126.183 60.2763 126.183 60.4358 126.023 60.7547C126.023 60.9142 126.023 61.0737 125.863 61.2331C125.703 61.552 125.703 61.7115 125.543 61.8709C125.543 62.0304 125.383 62.0304 125.383 62.1899C125.223 62.5088 124.903 62.6683 124.582 62.8277L114.819 68.4089C115.139 68.2494 115.299 67.9305 115.62 67.771C115.62 67.6116 115.78 67.6116 115.78 67.4521C115.94 67.2926 116.1 66.9737 116.1 66.8143Z" fill="url(#paint3_linear_133_829)"/>
<path d="M66.1634 6.37853C64.723 5.58122 63.2825 5.42174 62.1621 6.05959C60.0815 7.33528 60.0815 11.4813 62.3222 15.1489L95.2928 70.9603C96.4132 72.7144 97.6936 74.1495 99.1341 74.9468C100.575 75.7441 102.015 75.9036 103.135 75.2658L114.979 68.5684C117.22 67.2927 117.22 63.3062 114.979 59.4791C113.859 57.5655 112.418 56.1304 111.138 55.3331C109.697 54.5358 108.257 54.3763 107.137 55.0142L99.2941 59.4791L70.3248 10.3651C69.0444 8.61099 67.6039 7.17583 66.1634 6.37853Z" fill="white"/>
<defs>
<linearGradient id="paint0_linear_133_829" x1="-13.8831" y1="190.597" x2="103.806" y2="32.8167" gradientUnits="userSpaceOnUse">
<stop offset="0.354167" stop-color="#4BF6FF" stop-opacity="0.03"/>
<stop offset="0.8542" stop-color="#1E959B"/>
<stop offset="1" stop-color="#026D73"/>
</linearGradient>
<linearGradient id="paint1_linear_133_829" x1="79.7683" y1="5.1541" x2="62.21" y2="5.1541" gradientUnits="userSpaceOnUse">
<stop offset="0.1592" stop-color="#F05670"/>
<stop offset="1" stop-color="#802E3C"/>
</linearGradient>
<linearGradient id="paint2_linear_133_829" x1="108.775" y1="32.0958" x2="70.0686" y2="32.0958" gradientUnits="userSpaceOnUse">
<stop offset="0.1592" stop-color="#F05670"/>
<stop offset="1" stop-color="#802E3C"/>
</linearGradient>
<linearGradient id="paint3_linear_133_829" x1="126.195" y1="58.6862" x2="106.996" y2="58.6862" gradientUnits="userSpaceOnUse">
<stop offset="0.1592" stop-color="#F05670"/>
<stop offset="1" stop-color="#802E3C"/>
</linearGradient>
</defs>
</svg>
