<svg width="197" height="298" viewBox="0 0 197 298" fill="none" xmlns="http://www.w3.org/2000/svg">
<path d="M11.0304 194.121C7.82942 196.035 7.66938 198.746 10.3903 200.34L162.599 288.522C165.32 290.117 170.122 289.957 173.323 288.203L279.757 226.97C282.958 225.057 283.118 222.346 280.397 220.751L128.188 132.729C125.467 131.134 120.666 131.134 117.465 133.048L11.0304 194.121Z" fill="url(#paint0_linear_129_129)"/>
<path d="M1.26758 198.427V201.457C1.26758 201.775 1.26756 202.094 1.42758 202.254V199.224C1.26756 198.905 1.26758 198.746 1.26758 198.427Z" fill="#802E3C"/>
<path d="M5.26887 204.008L157.478 292.031C163.08 295.22 172.523 295.06 178.445 291.712L284.879 230.479V233.508L178.445 294.741C172.523 298.25 163.08 298.409 157.478 295.06L5.26887 206.878C5.26887 206.878 5.10881 206.878 5.10881 206.719C2.54798 205.124 1.26758 203.211 1.26758 201.138V198.108C1.26758 200.34 2.54799 202.413 5.26887 204.008Z" fill="url(#paint1_linear_129_129)"/>
<path d="M1.26739 197.948C1.26739 197.63 1.26737 197.311 1.42743 197.151C1.42743 196.992 1.58749 196.832 1.58749 196.832C1.58749 196.673 1.58747 196.513 1.74752 196.513C1.74752 196.354 1.90758 196.194 1.90758 196.035C1.90758 195.875 2.06765 195.875 2.06765 195.716C2.2277 195.557 2.22769 195.397 2.38774 195.238C2.38774 195.078 2.54778 195.078 2.54778 194.919C2.70783 194.759 2.86789 194.44 3.02794 194.281L3.188 194.121C3.50811 193.802 3.8282 193.484 4.30836 193.165C4.46841 193.005 4.4684 193.005 4.62846 193.005C5.10861 192.686 5.42872 192.367 5.90887 192.048L112.343 130.815C112.663 130.656 112.983 130.496 113.143 130.337C113.303 130.177 113.624 130.177 113.784 130.018C114.264 129.859 114.744 129.54 115.224 129.38C115.544 129.221 116.024 129.061 116.344 129.061C116.825 128.902 117.305 128.742 117.945 128.742C118.105 128.742 118.425 128.583 118.585 128.583C118.905 128.583 119.225 128.583 119.385 128.423C119.706 128.423 120.026 128.264 120.346 128.264C120.986 128.264 121.626 128.104 122.266 128.104C122.586 128.104 122.747 128.104 123.067 128.104C123.867 128.104 124.827 128.104 125.627 128.264C125.787 128.264 125.948 128.264 126.108 128.264C126.748 128.264 127.228 128.423 127.868 128.583C128.028 128.583 128.028 128.583 128.188 128.583C128.828 128.742 129.469 128.902 129.949 129.061C130.269 129.221 130.589 129.221 130.909 129.38C131.709 129.699 132.51 130.018 133.31 130.496L285.519 218.519C285.839 218.678 286.159 218.997 286.479 219.157C286.639 219.157 286.639 219.316 286.799 219.316C286.959 219.476 287.119 219.635 287.28 219.795C287.6 220.114 287.92 220.432 288.24 220.751L288.4 220.911C288.72 221.23 288.88 221.549 289.04 222.027V222.187C289.2 222.505 289.2 222.824 289.36 223.143V223.303C289.36 223.622 289.36 224.1 289.36 224.419C289.36 224.578 289.36 224.578 289.36 224.738C289.36 224.897 289.36 225.057 289.2 225.216C289.2 225.376 289.2 225.535 289.04 225.535C289.04 225.695 288.88 225.854 288.88 226.014C288.88 226.173 288.72 226.333 288.72 226.333C288.72 226.492 288.56 226.651 288.4 226.811C288.4 226.97 288.24 227.13 288.08 227.13C287.92 227.289 287.92 227.449 287.76 227.608L287.6 227.768C287.6 227.768 287.6 227.768 287.44 227.927C287.119 228.246 286.639 228.724 286.319 229.043L286.159 229.203C285.679 229.522 285.199 230 284.559 230.319L178.124 291.552C178.124 291.552 177.964 291.552 177.964 291.712C177.484 292.031 177.004 292.19 176.524 292.349C176.204 292.509 175.884 292.668 175.724 292.828C175.083 293.147 174.443 293.306 173.643 293.466C172.523 293.785 171.242 293.944 170.122 294.104C169.802 294.104 169.482 294.104 169.161 294.104C168.521 294.104 167.721 294.263 167.081 294.263C166.921 294.263 166.761 294.263 166.601 294.263C166.281 294.263 165.96 294.263 165.64 294.263C165.32 294.263 164.84 294.263 164.52 294.104C164.04 294.104 163.4 293.944 162.919 293.785C162.599 293.785 162.279 293.625 161.959 293.625C161.319 293.466 160.839 293.306 160.359 293.147C160.039 292.987 159.878 292.987 159.558 292.987C158.758 292.668 158.118 292.349 157.318 292.031L5.10862 204.008C4.78851 203.849 4.30836 203.53 3.98826 203.37C3.82821 203.37 3.82821 203.211 3.66816 203.211C3.50811 203.051 3.18799 202.892 3.02794 202.732C2.86789 202.573 2.86789 202.573 2.70784 202.413C2.54779 202.254 2.38773 202.094 2.22768 201.935C2.06763 201.776 2.06764 201.776 1.90758 201.616C1.74753 201.457 1.74754 201.297 1.58749 201.138L1.42743 200.978V200.819C1.26737 200.659 1.26739 200.5 1.26739 200.34C1.26739 200.181 1.10733 200.181 1.10733 200.021C1.10733 199.862 0.947266 199.543 0.947266 199.384C0.947266 199.224 0.947266 199.224 0.947266 199.065C1.26737 198.586 1.26739 198.267 1.26739 197.948ZM8.46971 197.948C8.46971 198.108 8.62975 198.267 8.62975 198.427C8.62975 198.586 8.78981 198.586 8.78981 198.746C8.94986 198.905 9.10991 199.065 9.10991 199.224C9.10991 199.384 9.26997 199.384 9.26997 199.543C9.59007 199.862 9.91016 200.021 10.2303 200.181L162.439 288.363C162.759 288.522 163.08 288.682 163.56 288.841C163.72 288.841 163.88 289.001 164.04 289.001C164.36 289.16 164.52 289.16 164.84 289.16C165 289.16 165.16 289.16 165.32 289.32C165.64 289.32 165.8 289.479 166.12 289.479C166.281 289.479 166.441 289.479 166.601 289.479C166.921 289.479 167.081 289.479 167.401 289.479C167.721 289.479 168.041 289.479 168.521 289.479C168.681 289.479 168.841 289.479 169.001 289.479C169.482 289.479 170.122 289.32 170.602 289.16H170.762C171.242 289.001 171.562 289.001 171.882 288.841C172.042 288.841 172.202 288.682 172.202 288.682C172.523 288.522 172.843 288.363 173.163 288.203L279.597 226.97C279.917 226.811 280.237 226.492 280.557 226.333C280.717 226.173 280.717 226.173 280.877 226.014C281.037 225.854 281.198 225.695 281.358 225.535C281.518 225.376 281.518 225.216 281.678 225.057C281.678 224.897 281.838 224.897 281.838 224.738C281.838 224.578 281.998 224.419 281.998 224.26C281.998 224.1 281.998 224.1 282.158 223.941V223.781C282.158 223.622 282.158 223.462 282.158 223.143C282.158 222.984 282.158 222.984 282.158 222.824C282.158 222.665 281.998 222.505 281.998 222.346C281.998 222.346 281.998 222.187 281.838 222.187C281.678 222.027 281.518 221.708 281.358 221.549C281.038 221.389 280.877 221.07 280.557 220.911L128.348 132.888C128.028 132.729 127.548 132.569 127.228 132.41C127.068 132.41 126.908 132.25 126.748 132.25C126.428 132.091 126.108 132.091 125.787 132.091C125.627 132.091 125.467 132.091 125.467 132.091C124.827 131.932 124.187 131.932 123.547 131.932C123.387 131.932 123.387 131.932 123.227 131.932C122.586 131.932 121.786 132.091 121.146 132.091C120.986 132.091 120.826 132.091 120.506 132.25C120.186 132.25 120.026 132.41 119.706 132.41C119.545 132.41 119.225 132.569 119.065 132.569C118.745 132.729 118.585 132.729 118.265 132.888C117.945 133.048 117.625 133.207 117.465 133.207L11.0305 194.44C10.7104 194.6 10.3903 194.919 10.0702 195.078C9.91017 195.078 9.91016 195.238 9.91016 195.238C9.75011 195.397 9.59005 195.557 9.43 195.716C9.26995 195.875 9.26996 196.035 9.10991 196.035C8.94985 196.194 8.94986 196.354 8.78981 196.513C8.78981 196.673 8.62975 196.832 8.62975 196.832C8.62975 196.992 8.62976 197.151 8.46971 197.151C8.46971 197.311 8.46971 197.47 8.46971 197.63C8.46971 197.789 8.46971 197.789 8.46971 197.948Z" fill="url(#paint2_linear_129_129)"/>
<path d="M191.409 186.627C190.929 186.946 192.05 187.902 193.81 188.859L197.651 191.092C199.412 192.048 201.172 192.686 201.653 192.527L210.455 187.424C210.936 187.105 209.815 186.148 208.055 185.192L204.213 182.959C202.453 182.002 200.692 181.364 200.212 181.524L191.409 186.627Z" fill="white"/>
<path d="M180.046 179.77C179.566 180.089 180.686 181.046 182.286 182.002L186.288 184.235C188.048 185.192 189.809 185.829 190.289 185.511L199.092 180.408C199.572 180.089 198.452 179.132 196.691 178.175L192.69 175.943C190.929 174.986 189.169 174.348 188.849 174.667L180.046 179.77Z" fill="white"/>
<path d="M168.041 172.913C167.561 173.232 168.681 174.189 170.442 175.145L174.443 177.378C176.204 178.335 177.964 178.973 178.285 178.654L187.087 173.551C187.568 173.232 186.447 172.275 184.847 171.318L180.845 169.086C179.085 168.129 177.324 167.491 176.844 167.81L168.041 172.913Z" fill="white"/>
<path d="M156.037 166.056C155.557 166.375 156.678 167.332 158.438 168.289L162.279 170.521C164.04 171.478 165.8 172.116 166.281 171.797L175.083 166.694C175.564 166.375 174.443 165.418 172.683 164.462L168.841 162.229C167.081 161.272 165.32 160.634 164.84 160.794L156.037 166.056Z" fill="white"/>
<path d="M144.674 159.199C144.194 159.518 145.314 160.475 147.075 161.432L150.916 163.664C152.677 164.621 154.437 165.259 154.917 165.099L163.72 159.997C164.2 159.678 163.08 158.721 161.319 157.764L157.478 155.532C155.718 154.575 153.957 153.937 153.477 154.256L144.674 159.199Z" fill="white"/>
<path d="M132.67 152.343C132.19 152.662 133.31 153.618 135.071 154.575L138.912 156.808C140.673 157.764 142.433 158.402 142.913 158.243L151.716 153.14C152.196 152.821 151.076 151.864 149.315 150.907L145.474 148.675C143.714 147.718 141.953 147.08 141.473 147.24L132.67 152.343Z" fill="white"/>
<path d="M121.306 145.486C120.826 145.805 121.947 146.761 123.547 147.718L127.548 149.951C129.309 150.907 131.07 151.545 131.55 151.226L140.353 146.124C140.833 145.805 139.712 144.848 137.952 143.891L133.95 141.659C132.19 140.702 130.429 140.064 130.109 140.383L121.306 145.486Z" fill="white"/>
<path d="M185.967 197.629C185.487 197.948 186.607 198.905 188.368 199.862L192.209 202.094C193.97 203.051 195.73 203.689 196.21 203.37L205.013 198.267C205.493 197.948 204.373 196.992 202.612 196.035L198.771 193.802C197.011 192.846 195.25 192.208 194.77 192.527L185.967 197.629Z" fill="white"/>
<path d="M174.603 190.773C174.123 191.092 175.243 192.048 177.003 193.005L181.005 195.238C182.765 196.194 184.526 196.832 185.006 196.673L193.809 191.57C194.289 191.251 193.169 190.294 191.408 189.338L187.407 187.105C185.646 186.148 183.886 185.51 183.406 185.829L174.603 190.773Z" fill="white"/>
<path d="M162.6 183.916C162.12 184.235 163.24 185.191 165.001 186.148L169.002 188.381C170.762 189.337 172.523 189.975 173.003 189.656L181.806 184.554C182.286 184.235 181.166 183.278 179.405 182.321L175.404 180.089C173.643 179.132 171.883 178.494 171.403 178.654L162.6 183.916Z" fill="white"/>
<path d="M150.596 177.059C150.116 177.378 151.236 178.335 152.997 179.291L156.998 181.524C158.759 182.481 160.519 183.119 160.839 182.8L169.642 177.697C170.122 177.378 169.002 176.421 167.401 175.464L163.4 173.232C161.639 172.275 159.879 171.637 159.399 171.956L150.596 177.059Z" fill="white"/>
<path d="M139.232 170.202C138.751 170.521 139.872 171.478 141.632 172.435L145.474 174.667C147.234 175.624 148.995 176.262 149.475 176.102L158.278 170.999C158.758 170.68 157.638 169.724 155.877 168.767L152.036 166.535C150.275 165.578 148.515 164.94 148.034 165.099L139.232 170.202Z" fill="white"/>
<path d="M127.228 163.345C126.748 163.664 127.868 164.621 129.628 165.578L133.47 167.81C135.23 168.767 136.991 169.405 137.471 169.246L146.274 164.143C146.754 163.824 145.634 162.867 143.873 161.91L140.032 159.678C138.271 158.721 136.511 158.083 136.031 158.402L127.228 163.345Z" fill="white"/>
<path d="M109.302 152.343C108.822 152.661 110.743 154.097 113.464 155.691L119.706 159.359C122.426 160.953 124.987 162.07 125.467 161.751L134.27 156.648C134.75 156.329 132.83 154.894 130.109 153.299L123.867 149.632C121.146 148.037 118.585 146.921 118.105 147.24L109.302 152.343Z" fill="white"/>
<path d="M189.808 213.895C189.328 214.214 190.449 215.17 192.049 216.127L196.05 218.36C197.811 219.316 199.572 219.954 200.052 219.635L208.855 214.533C209.335 214.214 208.214 213.257 206.454 212.3L202.452 210.068C200.692 209.111 198.931 208.473 198.451 208.792L189.808 213.895Z" fill="white"/>
<path d="M178.445 207.038C177.964 207.357 179.085 208.313 180.845 209.27L184.847 211.503C186.607 212.459 188.368 213.097 188.688 212.778L197.491 207.676C197.971 207.357 196.851 206.4 195.25 205.443L191.249 203.211C189.488 202.254 187.728 201.616 187.247 201.935L178.445 207.038Z" fill="white"/>
<path d="M165.641 200.181C165.161 200.5 166.281 201.457 168.042 202.413L171.883 204.646C173.643 205.603 175.404 206.24 175.884 206.081L184.687 200.978C185.167 200.659 184.047 199.703 182.286 198.746L178.445 196.513C176.684 195.557 174.924 194.919 174.444 195.238L165.641 200.181Z" fill="white"/>
<path d="M154.278 193.324C153.797 193.643 154.918 194.6 156.678 195.557L160.52 197.789C162.28 198.746 164.041 199.384 164.521 199.224L173.324 194.121C173.804 193.802 172.683 192.846 170.923 191.889L167.082 189.656C165.321 188.7 163.56 188.062 163.08 188.381L154.278 193.324Z" fill="white"/>
<path d="M142.274 186.467C141.793 186.786 142.914 187.743 144.674 188.7L148.516 190.932C150.276 191.889 152.037 192.527 152.517 192.208L161.32 187.105C161.8 186.786 160.68 185.829 158.919 184.873L155.078 182.64C153.317 181.683 151.557 181.046 151.076 181.205L142.274 186.467Z" fill="white"/>
<path d="M130.27 179.61C129.79 179.929 130.91 180.886 132.67 181.843L136.512 184.075C138.272 185.032 140.033 185.67 140.513 185.511L149.316 180.408C149.796 180.089 148.676 179.132 146.915 178.175L143.074 175.943C141.313 174.986 139.553 174.348 139.073 174.508L130.27 179.61Z" fill="white"/>
<path d="M118.906 172.913C118.426 173.232 119.546 174.189 121.147 175.146L125.148 177.378C126.909 178.335 128.669 178.973 129.149 178.654L137.952 173.551C138.432 173.232 137.312 172.275 135.551 171.319L131.55 169.086C129.79 168.129 128.029 167.491 127.709 167.81L118.906 172.913Z" fill="white"/>
<path d="M106.902 166.056C106.421 166.375 107.542 167.332 109.302 168.289L113.304 170.521C115.064 171.478 116.825 172.116 117.145 171.797L125.948 166.694C126.428 166.375 125.307 165.418 123.707 164.462L119.706 162.229C117.945 161.272 116.185 160.635 115.704 160.954L106.902 166.056Z" fill="white"/>
<path d="M95.5383 159.199C95.0581 159.518 96.1785 160.475 97.939 161.432L101.78 163.664C103.541 164.621 105.301 165.259 105.782 165.1L114.584 159.997C115.065 159.678 113.944 158.721 112.184 157.764L108.342 155.532C106.582 154.575 104.821 153.937 104.341 154.097L95.5383 159.199Z" fill="white"/>
<path d="M196.21 232.073C195.73 232.392 197.49 233.827 200.211 235.262L206.133 238.771C208.694 240.365 211.255 241.322 211.735 241.003L220.538 235.9C221.018 235.581 219.257 234.146 216.536 232.711L210.614 229.203C208.054 227.608 205.493 226.651 205.013 226.97L196.21 232.073Z" fill="white"/>
<path d="M184.205 224.897C183.725 225.216 184.845 226.173 186.606 227.13L190.447 229.362C192.208 230.319 193.968 230.957 194.449 230.798L203.251 225.695C203.732 225.376 202.611 224.419 200.851 223.462L197.009 221.23C195.249 220.273 193.488 219.635 193.008 219.795L184.205 224.897Z" fill="white"/>
<path d="M172.842 218.041C172.362 218.359 173.482 219.316 175.243 220.273L179.244 222.505C181.005 223.462 182.765 224.1 183.245 223.781L192.048 218.678C192.528 218.359 191.408 217.403 189.647 216.446L185.646 214.213C183.886 213.257 182.125 212.619 181.645 212.778L172.842 218.041Z" fill="white"/>
<path d="M160.198 211.184C159.718 211.503 160.839 212.459 162.599 213.416L166.6 215.649C168.361 216.605 170.122 217.243 170.602 216.924L179.405 211.822C179.885 211.503 178.764 210.546 177.004 209.589L173.003 207.357C171.242 206.4 169.481 205.762 169.001 205.922L160.198 211.184Z" fill="white"/>
<path d="M148.835 204.327C148.355 204.646 149.475 205.603 151.236 206.559L155.077 208.792C156.838 209.749 158.598 210.386 159.078 210.067L167.881 204.965C168.361 204.646 167.241 203.689 165.481 202.732L161.639 200.5C159.879 199.543 158.118 198.905 157.638 199.065L148.835 204.327Z" fill="white"/>
<path d="M136.831 197.47C136.351 197.789 137.471 198.746 139.232 199.703L143.073 201.935C144.834 202.892 146.594 203.53 147.075 203.37L155.877 198.267C156.358 197.948 155.237 196.992 153.477 196.035L149.635 193.802C147.875 192.846 146.114 192.208 145.634 192.367L136.831 197.47Z" fill="white"/>
<path d="M124.827 190.613C124.347 190.932 125.468 191.889 127.228 192.846L131.069 195.078C132.83 196.035 134.591 196.673 135.071 196.354L143.874 191.251C144.354 190.932 143.233 189.975 141.473 189.019L137.631 186.786C135.871 185.829 134.11 185.192 133.63 185.51L124.827 190.613Z" fill="white"/>
<path d="M113.464 183.756C112.984 184.075 114.104 185.032 115.865 185.989L119.866 188.221C121.627 189.178 123.387 189.816 123.867 189.657L132.67 184.554C133.15 184.235 132.03 183.278 130.269 182.321L126.268 180.089C124.508 179.132 122.747 178.494 122.267 178.813L113.464 183.756Z" fill="white"/>
<path d="M101.459 176.9C100.979 177.219 102.099 178.175 103.86 179.132L107.861 181.365C109.622 182.321 111.382 182.959 111.863 182.64L120.665 177.538C121.146 177.219 120.025 176.262 118.265 175.305L114.263 173.073C112.503 172.116 110.742 171.478 110.262 171.637L101.459 176.9Z" fill="white"/>
<path d="M83.5337 165.897C83.0535 166.216 84.9741 167.651 87.695 169.246L93.937 172.913C96.6579 174.508 99.2187 175.624 99.6989 175.305L108.502 170.202C108.982 169.883 107.061 168.448 104.34 166.854L98.0983 163.186C95.3775 161.591 92.8166 160.475 92.3365 160.794L83.5337 165.897Z" fill="white"/>
<path d="M192.529 242.757C192.049 243.076 193.17 244.033 194.93 244.99L198.771 247.222C200.532 248.179 202.293 248.817 202.773 248.498L211.576 243.395C212.056 243.076 210.935 242.119 209.175 241.162L205.334 238.93C203.573 237.973 201.812 237.335 201.332 237.495L192.529 242.757Z" fill="white"/>
<path d="M181.166 235.9C180.686 236.219 181.806 237.176 183.567 238.133L187.568 240.365C189.329 241.322 191.089 241.96 191.57 241.641L200.372 236.538C200.852 236.219 199.732 235.262 197.972 234.306L193.97 232.073C192.21 231.116 190.449 230.479 189.969 230.638L181.166 235.9Z" fill="white"/>
<path d="M168.522 229.043C168.042 229.362 169.162 230.319 170.922 231.276L174.924 233.508C176.684 234.465 178.445 235.103 178.925 234.784L187.728 229.681C188.208 229.362 187.088 228.406 185.327 227.449L181.326 225.216C179.565 224.26 177.805 223.622 177.325 223.781L168.522 229.043Z" fill="white"/>
<path d="M157.158 222.187C156.678 222.506 157.799 223.462 159.559 224.419L163.4 226.652C165.161 227.608 166.922 228.246 167.402 228.087L176.205 222.984C176.685 222.665 175.564 221.708 173.804 220.752L169.963 218.519C168.202 217.562 166.441 216.924 165.961 217.243L157.158 222.187Z" fill="white"/>
<path d="M144.514 215.33C144.034 215.649 145.154 216.606 146.915 217.562L150.756 219.795C152.516 220.751 154.277 221.389 154.757 221.07L163.56 215.968C164.04 215.649 162.92 214.692 161.159 213.735L157.318 211.503C155.557 210.546 153.797 209.908 153.317 210.227L144.514 215.33Z" fill="white"/>
<path d="M133.151 208.473C132.67 208.792 133.791 209.749 135.551 210.705L139.393 212.938C141.153 213.895 142.914 214.532 143.394 214.373L152.197 209.27C152.677 208.951 151.557 207.995 149.796 207.038L145.955 204.805C144.194 203.849 142.434 203.211 141.953 203.53L133.151 208.473Z" fill="white"/>
<path d="M121.146 201.616C120.666 201.935 121.787 202.892 123.387 203.849L127.388 206.081C129.149 207.038 130.909 207.676 131.39 207.357L140.192 202.254C140.673 201.935 139.552 200.978 137.792 200.022L133.79 197.789C132.03 196.832 130.269 196.194 129.949 196.513L121.146 201.616Z" fill="white"/>
<path d="M109.143 194.759C108.663 195.078 109.783 196.035 111.544 196.992L115.545 199.224C117.305 200.181 119.066 200.819 119.386 200.5L128.189 195.397C128.669 195.078 127.549 194.122 125.948 193.165L121.947 190.932C120.186 189.975 118.426 189.338 117.946 189.657L109.143 194.759Z" fill="white"/>
<path d="M97.7785 187.902C97.2984 188.221 98.4187 189.178 100.179 190.135L104.021 192.367C105.781 193.324 107.542 193.962 108.022 193.803L116.825 188.7C117.305 188.381 116.184 187.424 114.424 186.467L110.583 184.235C108.822 183.278 107.061 182.64 106.581 182.8L97.7785 187.902Z" fill="white"/>
<path d="M85.7746 181.046C85.2944 181.365 86.4148 182.321 88.1754 183.278L92.0166 185.511C93.7772 186.467 95.5378 187.105 96.0179 186.946L104.821 181.843C105.301 181.524 104.181 180.567 102.42 179.611L98.5787 177.378C96.8182 176.421 95.0576 175.783 94.5774 176.102L85.7746 181.046Z" fill="white"/>
<path d="M74.4113 174.189C73.9312 174.508 75.0515 175.465 76.8121 176.421L80.6533 178.654C82.4139 179.61 84.1745 180.248 84.6546 180.089L93.4575 174.986C93.9376 174.667 92.8172 173.71 91.0567 172.754L87.2155 170.521C85.4549 169.564 83.6943 168.927 83.2142 169.086L74.4113 174.189Z" fill="white"/>
<path d="M175.243 246.903C174.763 247.222 176.524 248.498 179.084 250.092L184.846 253.441C187.407 254.876 189.808 255.833 190.288 255.673L199.091 250.571C199.571 250.252 197.81 248.976 195.249 247.381L189.488 244.033C186.927 242.598 184.526 241.641 184.046 241.8L175.243 246.903Z" fill="white"/>
<path d="M163.079 239.887C162.599 240.206 163.719 241.162 165.48 242.119L169.481 244.352C171.242 245.308 173.002 245.946 173.323 245.627L182.125 240.525C182.606 240.206 181.485 239.249 179.725 238.292L175.723 236.06C173.963 235.103 172.202 234.465 171.722 234.625L163.079 239.887Z" fill="white"/>
<path d="M151.716 233.03C151.236 233.349 152.356 234.306 154.117 235.262L158.118 237.495C159.879 238.452 161.639 239.089 162.119 238.77L170.922 233.668C171.402 233.349 170.282 232.392 168.521 231.435L164.52 229.203C162.76 228.246 160.999 227.608 160.519 227.768L151.716 233.03Z" fill="white"/>
<path d="M138.912 226.332C138.432 226.651 139.553 227.608 141.313 228.565L145.154 230.797C146.915 231.754 148.675 232.392 149.156 232.233L157.958 227.13C158.439 226.811 157.318 225.854 155.558 224.897L151.716 222.665C149.956 221.708 148.195 221.07 147.715 221.23L138.912 226.332Z" fill="white"/>
<path d="M127.708 219.476C127.228 219.795 128.348 220.751 130.109 221.708L133.95 223.941C135.711 224.897 137.471 225.535 137.951 225.216L146.754 220.114C147.234 219.795 146.114 218.838 144.354 217.881L140.512 215.649C138.752 214.692 136.991 214.054 136.511 214.214L127.708 219.476Z" fill="white"/>
<path d="M115.544 212.619C115.064 212.938 116.184 213.894 117.945 214.851L121.786 217.084C123.547 218.04 125.307 218.678 125.787 218.519L134.59 213.416C135.07 213.097 133.95 212.14 132.189 211.184L128.348 208.951C126.588 207.994 124.827 207.357 124.347 207.675L115.544 212.619Z" fill="white"/>
<path d="M103.54 205.762C103.06 206.081 104.18 207.038 105.941 207.994L109.942 210.227C111.703 211.184 113.463 211.822 113.944 211.503L122.746 206.4C123.226 206.081 122.106 205.124 120.346 204.167L116.344 201.935C114.584 200.978 112.823 200.34 112.343 200.5L103.54 205.762Z" fill="white"/>
<path d="M92.1769 198.905C91.6968 199.224 92.8172 200.181 94.5777 201.138L98.579 203.37C100.34 204.327 102.1 204.965 102.42 204.646L111.223 199.543C111.703 199.224 110.583 198.267 108.982 197.311L104.981 195.078C103.22 194.121 101.46 193.484 100.98 193.802L92.1769 198.905Z" fill="white"/>
<path d="M80.173 192.048C79.6929 192.367 80.8132 193.324 82.5738 194.281L86.415 196.513C88.1756 197.47 89.9362 198.108 90.4163 197.789L99.2191 192.686C99.6993 192.367 98.5789 191.41 96.8184 190.454L92.9771 188.221C91.2166 187.265 89.456 186.627 88.9759 186.786L80.173 192.048Z" fill="white"/>
<path d="M62.7275 181.843C62.2473 182.162 64.0079 183.437 66.5687 185.032L72.4907 188.381C75.0515 189.816 77.6123 190.932 77.9324 190.613L86.7353 185.51C87.2154 185.192 85.4549 183.756 82.894 182.321L76.9721 178.973C74.4113 177.537 71.8504 176.421 71.5303 176.74L62.7275 181.843Z" fill="white"/>
<path d="M69.4495 225.216C68.1691 226.014 73.9309 230.479 82.4137 235.262L101.46 246.265C109.782 251.049 117.625 254.398 118.905 253.76L144.194 239.249C145.474 238.452 139.712 233.987 131.229 229.203L112.183 218.2C103.861 213.257 96.018 210.068 94.7376 210.705L69.4495 225.216Z" fill="white"/>
<path d="M129.628 6.91399C127.708 5.79776 126.107 6.75452 126.107 8.98697L125.787 122.523C125.787 124.756 127.388 127.467 129.308 128.583L285.198 218.359C287.119 219.476 288.72 218.519 288.72 216.286L289.04 102.75C289.04 100.518 287.439 97.8068 285.519 96.6906L129.628 6.91399Z" fill="white"/>
<path d="M125.787 122.523L121.306 119.812C121.306 125.075 124.987 131.294 129.468 134.005L129.308 128.742C127.388 127.467 125.787 124.756 125.787 122.523Z" fill="#D62D5A"/>
<path d="M125.787 122.523L121.306 119.812C121.306 119.972 121.306 120.131 121.306 120.291L125.787 122.842C125.787 122.683 125.787 122.523 125.787 122.523Z" fill="#D62D5A"/>
<path d="M129.308 128.583L285.198 218.359C285.358 218.519 285.679 218.519 285.839 218.678H285.999C286.159 218.678 286.319 218.678 286.479 218.838H286.639C286.799 218.838 286.959 218.838 286.959 218.838H287.119C287.279 218.838 287.279 218.838 287.439 218.678C287.439 218.678 287.599 218.678 287.599 218.519C287.759 218.519 287.759 218.359 287.919 218.2C287.919 218.2 287.919 218.2 288.079 218.04C288.239 217.881 288.239 217.722 288.399 217.562C288.399 217.562 288.399 217.562 288.399 217.403C288.399 217.243 288.559 217.084 288.559 216.924C288.559 216.605 288.72 216.446 288.72 216.127L289.04 102.591C289.04 102.272 289.04 101.953 288.88 101.634C288.88 101.474 288.88 101.474 288.88 101.315C288.88 101.156 288.72 100.837 288.72 100.677C288.72 100.518 288.559 100.518 288.559 100.358C288.399 100.199 288.399 99.8798 288.239 99.7204C288.239 99.5609 288.079 99.5609 288.079 99.4014C287.919 99.0825 287.759 98.9231 287.599 98.6041C287.599 98.6041 287.599 98.4447 287.439 98.4447C287.119 98.1257 286.959 97.8068 286.639 97.4879L286.479 97.3284C286.159 97.0095 285.839 96.8501 285.519 96.5311L129.628 6.75453C129.308 6.59507 129.148 6.43561 128.828 6.43561C128.668 6.43561 128.668 6.43561 128.508 6.43561C128.348 6.43561 128.188 6.43561 128.188 6.27615C127.868 6.27615 127.708 6.27615 127.388 6.43561H127.227C127.067 6.59507 126.747 6.59508 126.587 6.914C126.427 7.07346 126.267 7.39237 126.267 7.55183V7.7113C126.107 8.03023 126.107 8.34915 126.107 8.66807L125.787 122.204L121.306 119.494L121.626 5.95722C121.626 5.31938 121.626 4.84099 121.786 4.36261C121.786 4.20315 121.786 4.0437 121.946 3.88423C122.106 3.56531 122.106 3.24639 122.266 2.92747C122.266 2.76801 122.426 2.60854 122.426 2.60854C122.586 2.28962 122.906 1.81124 123.066 1.49232C123.386 1.1734 123.546 1.01393 123.866 0.85447C124.026 0.85447 124.026 0.695012 124.186 0.695012C124.507 0.535551 124.667 0.535543 124.987 0.376082C125.147 0.376082 125.147 0.376085 125.307 0.216624C125.627 0.216624 126.107 0.0571624 126.587 0.216624C127.067 0.216624 127.548 0.376092 128.028 0.535553C128.508 0.695014 129.148 1.01394 129.628 1.33286L285.519 91.1095C285.999 91.4284 286.479 91.7473 286.959 92.0662C287.119 92.2257 287.279 92.3852 287.439 92.3852C287.759 92.7041 288.079 93.023 288.399 93.3419C288.559 93.5014 288.719 93.6608 288.88 93.8203C289.2 94.2987 289.68 94.6176 290 95.096L290.16 95.2554C290.48 95.7338 290.8 96.2122 291.12 96.8501C291.12 97.0095 291.28 97.0095 291.28 97.169C291.6 97.8068 291.921 98.2852 292.081 98.9231C292.081 98.9231 292.081 99.0825 292.241 99.0825C292.401 99.5609 292.721 100.199 292.881 100.677C292.881 100.837 292.881 100.837 293.041 100.996C293.201 101.634 293.361 102.112 293.521 102.75C293.521 102.91 293.521 103.069 293.521 103.069C293.681 103.707 293.681 104.345 293.681 104.823L293.361 218.359C293.361 218.997 293.361 219.476 293.201 219.954C293.201 220.113 293.201 220.114 293.201 220.273V220.432C293.041 220.751 293.041 221.07 292.881 221.389C292.881 221.549 292.881 221.549 292.721 221.708C292.561 222.186 292.241 222.505 292.081 222.824C292.081 222.984 291.921 222.984 291.761 222.984C291.6 223.143 291.28 223.303 291.12 223.462C290.96 223.462 290.8 223.622 290.64 223.622C290.48 223.781 290.16 223.781 290 223.941C289.84 223.941 289.68 223.941 289.52 224.1C289.2 224.1 289.04 224.1 288.72 224.1C288.559 224.1 288.399 224.1 288.239 224.1C287.919 224.1 287.599 223.941 287.279 223.941C287.119 223.941 286.959 223.941 286.799 223.781C286.319 223.622 285.839 223.303 285.198 223.143L129.308 133.367C124.827 130.815 121.306 124.756 121.146 119.653L125.627 122.204C125.947 124.915 127.388 127.626 129.308 128.583Z" fill="url(#paint3_linear_129_129)"/>
<path d="M124.507 0.695064L125.307 0.216675C125.147 0.216675 124.987 0.376134 124.827 0.376134L124.026 0.854523C124.186 0.854523 124.346 0.854525 124.507 0.695064Z" fill="#D62D5A"/>
<path d="M124.026 0.854719L124.827 0.376343L124.026 0.854719C124.026 1.01418 124.026 1.01418 124.026 0.854719Z" fill="#D62D5A"/>
<path d="M124.827 0.535578C126.267 -0.261728 128.348 -0.261738 130.589 1.17341L286.479 90.9501C290.96 93.5014 294.641 99.8799 294.641 105.142L294.321 218.678L293.521 219.157L293.841 105.62C293.841 100.358 290.16 94.1393 285.678 91.4284L129.948 1.49234C127.708 0.216653 125.627 0.0571892 124.187 0.854495C124.347 0.854495 124.507 0.695039 124.827 0.535578Z" fill="#D62D5A"/>
<path d="M136.35 111.202C133.309 109.448 130.748 108.81 130.748 109.766V120.291C130.748 121.248 133.149 123.48 136.35 125.234L196.049 159.518C199.09 161.272 201.651 161.91 201.651 160.953V150.429C201.651 149.472 199.25 147.24 196.049 145.486L136.35 111.202Z" fill="#68C7CC"/>
<path d="M137.151 23.0195C133.95 21.2655 131.549 20.4682 131.549 21.2655V30.3548C131.549 31.1521 134.11 33.3845 137.151 35.1386L197.81 70.0606C201.011 71.8147 203.412 72.612 203.412 71.6552V62.5659C203.412 61.7686 200.851 59.5361 197.81 57.7821L137.151 23.0195Z" fill="#68C7CC"/>
<path d="M133.629 42.9521C132.668 42.4738 132.028 45.663 131.868 50.1279L131.708 96.85C131.708 101.315 132.348 105.461 133.309 105.939L151.234 116.304C152.195 116.783 152.995 113.593 152.995 109.129L153.155 62.4064C153.155 57.9415 152.355 53.7955 151.554 53.3171L133.629 42.9521Z" fill="#68C7CC"/>
<path d="M162.118 59.3767C160.197 58.2605 158.597 60.8118 158.597 65.2768L158.437 110.404C158.437 114.71 160.037 119.175 161.958 120.291L199.57 141.978C201.49 143.094 203.091 140.542 203.091 136.077L203.251 90.95C203.251 86.6445 201.65 82.1796 199.73 81.0634L162.118 59.3767Z" fill="#68C7CC"/>
<defs>
<linearGradient id="paint0_linear_129_129" x1="27.5076" y1="193.265" x2="270.436" y2="228.969" gradientUnits="userSpaceOnUse">
<stop stop-color="#1E959B"/>
<stop offset="0.9525" stop-color="#105154"/>
</linearGradient>
<linearGradient id="paint1_linear_129_129" x1="34.0365" y1="236.163" x2="290.449" y2="273.685" gradientUnits="userSpaceOnUse">
<stop stop-color="#1E959B"/>
<stop offset="0.9525" stop-color="#105154"/>
</linearGradient>
<linearGradient id="paint2_linear_129_129" x1="289.53" y1="211.155" x2="1.24639" y2="211.155" gradientUnits="userSpaceOnUse">
<stop stop-color="#1E959B"/>
<stop offset="0.9525" stop-color="#105154"/>
</linearGradient>
<linearGradient id="paint3_linear_129_129" x1="294.028" y1="112.529" x2="121.343" y2="112.529" gradientUnits="userSpaceOnUse">
<stop stop-color="#1E959B"/>
<stop offset="0.9525" stop-color="#105154"/>
</linearGradient>
</defs>
</svg>
