<svg width="184" height="126" viewBox="0 0 184 126" fill="none" xmlns="http://www.w3.org/2000/svg">
<path d="M-11.9485 69.087C-19.0048 72.5382 -22.4688 77.012 -19.518 78.9294L47.8375 124.179C50.7883 126.096 58.8709 124.946 65.9272 121.367L169.719 70.4931C176.775 67.0419 180.239 62.568 177.288 60.6507L109.933 15.4015C106.982 13.4841 98.8993 14.6345 91.843 18.2136L-11.9485 69.087Z" fill="#68C7CC"/>
<path d="M-8.8694 69.087C-15.9257 72.5382 -19.3897 77.012 -16.4389 78.9294L50.9166 124.179C53.8674 126.096 61.95 124.946 69.0063 121.367L172.798 70.4931C179.854 67.0419 183.318 62.568 180.367 60.6507L113.012 15.4015C110.061 13.4841 101.978 14.6345 94.9221 18.2136L-8.8694 69.087Z" fill="white"/>
<path d="M-7.07364 68.8313C-13.8733 72.7938 -16.9524 77.3954 -14.0016 79.1849L56.3046 119.833C59.3837 121.622 67.3381 119.833 74.1378 115.87L174.337 58.222C181.137 54.2595 184.216 49.6579 181.265 47.8684L110.959 7.34852C107.88 5.559 99.9253 7.34853 93.1256 11.311L-7.07364 68.8313Z" fill="#25B5BD"/>
<path d="M-5.53361 65.7635C-12.3333 69.726 -15.4124 74.3277 -12.4616 76.1172L57.8446 116.765C60.9237 118.554 68.8781 116.765 75.6778 112.802L175.877 55.1542C182.677 51.1917 185.756 46.5901 182.805 44.8006L112.499 4.15297C109.42 2.36345 101.465 4.15297 94.6656 8.11548L-5.53361 65.7635Z" fill="#68C7CC"/>
<path d="M-5.53361 62.568C-12.3333 66.5305 -15.4124 71.1321 -12.4616 72.9216L57.8446 113.569C60.9237 115.359 68.8781 113.569 75.6778 109.607L175.877 51.9587C182.677 47.9962 185.756 43.3946 182.805 41.6051L112.499 0.957409C109.42 -0.83211 101.465 0.957417 94.6656 4.91992L-5.53361 62.568Z" fill="white"/>
<path d="M102.364 9.39368C101.851 9.64932 109.805 14.6344 119.941 20.6421L139.955 32.274C150.219 38.1538 158.815 42.7554 159.328 42.4998L164.203 39.6877C164.716 39.4321 156.762 34.447 146.626 28.4393L126.612 16.8074C116.349 10.9275 107.753 6.32592 107.24 6.58157L102.364 9.39368Z" fill="#68C7CC"/>
<path d="M118.914 31.8905C118.657 32.0183 124.174 35.4695 131.23 39.5598L144.958 47.4848C152.014 51.5752 157.916 54.7707 158.172 54.6429L160.61 53.2369C160.867 53.1091 155.35 49.6578 148.294 45.5675L134.566 37.6425C127.51 33.5522 121.608 30.3566 121.48 30.4844L118.914 31.8905Z" fill="#68C7CC"/>
<path d="M114.552 45.6953C114.295 45.8231 118.657 48.5074 124.174 51.8308L135.079 58.0941C140.596 61.2897 145.343 63.8461 145.599 63.7183L148.037 62.3123C148.294 62.1844 143.932 59.5002 138.415 56.1768L127.51 49.9135C121.993 46.7179 117.246 44.1614 116.989 44.2893L114.552 45.6953Z" fill="#68C7CC"/>
<path d="M77.7305 66.9139C77.4739 67.0417 81.836 69.726 87.3527 73.0494L98.2579 79.3127C103.775 82.5083 108.522 85.0648 108.778 84.9369L111.216 83.5309C111.472 83.4031 107.11 80.7188 101.594 77.5232L90.6884 71.2599C85.1717 68.0643 80.4247 65.5079 80.1681 65.6357L77.7305 66.9139Z" fill="#68C7CC"/>
<path d="M102.619 30.4845C102.363 30.6123 109.291 34.8305 118.143 39.9434L135.463 49.9136C144.315 55.0265 151.628 58.989 151.885 58.8611L154.322 57.4551C154.579 57.3273 147.651 53.1091 138.799 47.9962L121.479 38.026C112.755 32.9131 105.313 28.9506 105.185 29.0784L102.619 30.4845Z" fill="#68C7CC"/>
<path d="M96.4623 60.395C96.2057 60.5228 100.055 62.9515 104.93 65.8914L114.68 71.5156C119.556 74.3277 123.789 76.6285 124.046 76.5007L126.484 75.0946C126.74 74.9668 122.891 72.5382 118.016 69.7261L108.266 64.1019C103.262 61.2898 99.1565 58.989 98.9 59.1168L96.4623 60.395Z" fill="#68C7CC"/>
<path d="M81.4512 43.1389C81.1946 43.2667 88.1226 47.4849 96.9751 52.5978L114.167 62.568C123.019 67.6809 130.332 71.6434 130.589 71.5156L133.026 70.1096C133.283 69.9817 126.355 65.7636 117.502 60.6507L100.311 50.6805C91.4583 45.5676 84.1454 41.605 83.8889 41.7329L81.4512 43.1389Z" fill="#68C7CC"/>
<path d="M67.3389 51.5752C67.0823 51.703 74.0103 55.9212 82.8628 61.0341L100.054 71.0042C108.907 76.1172 116.22 80.0797 116.476 79.9518L118.914 78.5458C119.171 78.418 112.243 74.1998 103.39 69.0869L86.1984 59.1167C77.4743 54.0038 70.0331 50.0413 69.7766 50.1691L67.3389 51.5752Z" fill="#68C7CC"/>
</svg>
