<svg width="41" height="59" viewBox="0 0 41 59" fill="none" xmlns="http://www.w3.org/2000/svg">
<path d="M24.751 31.2562C24.751 34.5248 27.0943 37.2097 29.9063 37.2097C32.7184 37.2097 35.0617 34.5248 35.0617 31.2562C35.0617 27.9876 32.7184 25.3027 29.9063 25.3027C27.0943 25.3027 24.751 27.9876 24.751 31.2562Z" fill="white"/>
<path d="M15.4951 24.719C15.4951 27.9876 17.8385 30.6725 20.6505 30.6725C23.4625 30.6725 25.8059 27.9876 25.8059 24.719C25.8059 21.4504 23.4625 18.7655 20.6505 18.7655C17.8385 18.7655 15.4951 21.4504 15.4951 24.719Z" fill="white"/>
<path d="M4.94922 19.466C4.94922 22.7345 7.29256 25.4194 10.1046 25.4194C12.9166 25.4194 15.2599 22.7345 15.2599 19.466C15.2599 16.1974 12.9166 13.5125 10.1046 13.5125C7.17539 13.5125 4.94922 16.1974 4.94922 19.466Z" fill="white"/>
<path d="M3.77772 0.438077C2.0202 -0.495807 0.262683 0.0878742 0.262683 1.95564L0.145508 23.5517C0.145508 25.5362 2.02019 28.4546 3.66054 29.3885L19.2439 38.3771L34.71 58.5724L36.7018 48.4164L37.1705 48.6498C38.928 49.5837 40.4512 48.6498 40.4512 46.6653L40.5684 25.186C40.5684 23.2015 39.0452 20.7501 37.4049 19.6994L3.77772 0.438077ZM21.0014 27.7542C19.4782 26.8203 18.1893 24.7191 18.1893 22.8513C18.1893 21.1003 19.4782 20.2831 21.0014 21.217C22.5246 22.1509 23.8134 24.3689 23.8134 26.1199C23.8134 27.8709 22.5246 28.5713 21.0014 27.7542ZM30.492 33.2407C28.9688 32.3069 27.6799 30.2056 27.6799 28.3379C27.6799 26.5868 28.9688 25.7697 30.492 26.7036C32.0151 27.6374 33.304 29.8554 33.304 31.6064C33.304 33.3575 32.0151 34.0579 30.492 33.2407ZM11.3936 22.2676C9.87044 21.3337 8.58158 19.2325 8.58158 17.3647C8.58158 15.6137 9.87044 14.7965 11.3936 15.7304C12.9168 16.6643 14.2056 18.8823 14.2056 20.6333C14.3228 22.3844 13.034 23.0848 11.3936 22.2676Z" fill="url(#paint0_linear_129_420)"/>
<defs>
<linearGradient id="paint0_linear_129_420" x1="40.5603" y1="29.3033" x2="0.202687" y2="29.3033" gradientUnits="userSpaceOnUse">
<stop stop-color="#25B8BF"/>
<stop offset="0.1495" stop-color="#29BDC4"/>
<stop offset="1" stop-color="#3ED6DE"/>
</linearGradient>
</defs>
</svg>
