<svg width="139" height="86" viewBox="0 0 139 86" fill="none" xmlns="http://www.w3.org/2000/svg">
<path d="M0.264648 53.7945C0.264648 53.6778 0.264648 53.4443 0.264648 53.3276C3.31101 55.779 6.9432 57.5301 10.3411 59.5146C19.0115 64.5342 28.1506 69.4371 36.821 74.4568C39.1644 75.8576 41.039 77.6086 43.3824 78.776C47.7176 80.9939 52.2871 78.4258 56.388 76.6747C57.9112 76.091 58.6142 74.6902 60.0202 73.7563C61.7777 72.589 64.1211 72.2388 65.8786 71.1881C72.0885 67.9195 77.9469 64.184 84.0396 60.7987C91.0697 56.8296 98.0998 52.7439 105.13 48.6582C110.168 45.7398 115.323 42.8214 120.362 39.903C125.166 37.1013 130.321 34.5331 134.89 31.2645C136.062 30.4474 138.171 29.747 138.171 28.1127L138.523 32.4319C138.523 33.8327 135.125 36.0507 131.024 38.3854C131.024 38.3854 56.6223 82.1613 56.2708 82.278C56.1537 82.278 51.2326 85.4299 48.0691 85.4299C45.4914 85.4299 42.4451 83.6789 40.336 82.5115C36.821 80.527 4.59985 61.7325 2.13932 60.215C0.733309 59.3978 0.264638 58.9309 0.381806 57.2966C0.381806 56.0125 0.381816 54.9619 0.264648 53.7945Z" fill="url(#paint0_linear_129_393)"/>
<path d="M7.52987 47.4908C2.37449 50.4092 -1.72639 52.5104 1.2028 54.4949L45.2579 79.9432C48.4214 81.6943 52.288 79.2428 57.4433 76.3244L131.259 33.8327C136.414 30.9143 139.929 28.5796 137.586 26.8286L93.531 1.38022C90.2503 -0.95449 86.5009 2.08062 81.3456 4.99901L7.52987 47.4908Z" fill="url(#paint1_linear_129_393)"/>
<path d="M16.0828 45.156C11.5133 47.8409 7.64675 49.8254 10.3416 51.4597L50.1787 74.4566C53.1079 76.2077 56.5057 73.8729 61.1925 71.188L127.978 32.782C132.548 30.0971 136.297 28.6963 133.719 26.4783L93.8823 3.36465C90.7187 1.26341 87.5552 3.94833 82.8685 6.63325L16.0828 45.156Z" fill="white"/>
<path d="M23.4647 63.3668C22.293 64.0673 22.293 65.1178 23.4647 65.8183C24.6364 66.5187 26.5111 66.5187 27.7999 65.8183C28.9716 65.1178 28.9716 64.0673 27.7999 63.3668C26.6282 62.7832 24.6364 62.7832 23.4647 63.3668Z" fill="url(#paint2_linear_129_393)"/>
<path d="M95.4063 12.1198C95.172 12.2365 99.6243 15.0382 105.366 18.4235L116.614 24.9607C122.355 28.2293 127.159 30.9142 127.393 30.7975L129.619 29.5134C129.854 29.3967 125.401 26.595 119.66 23.2097L108.412 16.6725C102.671 13.4039 97.8668 10.719 97.6325 10.8357L95.4063 12.1198Z" fill="#68C7CC"/>
<path d="M85.0946 12.7035C84.8603 12.8202 90.0156 15.9721 96.577 19.8244L109.465 27.2954C116.027 31.1477 121.534 34.0661 121.768 33.9494L123.994 32.6653C124.229 32.5485 119.073 29.3967 112.512 25.5444L99.6234 18.0733C93.062 14.221 87.5551 11.3027 87.3208 11.4194L85.0946 12.7035Z" fill="#68C7CC"/>
<path d="M33.3066 40.6033C33.1894 40.72 35.7671 42.3543 39.2821 44.3388L45.9607 48.1911C49.3586 50.1756 52.2878 51.6931 52.4049 51.5764L53.9281 50.7592C54.0453 50.6425 51.4676 49.0082 47.9525 47.0237L41.274 43.1714C37.8761 41.1869 34.9469 39.6694 34.8298 39.7861L33.3066 40.6033Z" fill="#68C7CC"/>
<path d="M33.1895 45.9731C33.0723 46.0899 35.0642 47.374 37.759 48.8915L43.0316 51.9267C45.7264 53.4442 47.9526 54.6116 48.0698 54.6116L49.4758 53.7944C49.593 53.6777 47.6011 52.3936 44.9063 50.8761L39.6337 47.8409C36.9389 46.3233 34.7127 45.156 34.5955 45.156L33.1895 45.9731Z" fill="#68C7CC"/>
<path d="M24.6367 46.0899C24.5195 46.2067 27.0972 47.841 30.495 49.7087L37.0564 53.561C40.4543 55.5455 43.2663 57.0631 43.3835 56.9464L44.7895 56.1292C44.9067 56.0125 42.329 54.3782 38.9311 52.5104L32.3697 48.6581C28.9719 46.6736 26.1598 45.1561 26.0427 45.2728L24.6367 46.0899Z" fill="#68C7CC"/>
<path d="M65.7626 43.5217C63.0677 45.0392 63.5364 47.8409 66.8171 49.7086L73.1442 53.4442C76.4249 55.3119 81.2287 55.5454 83.9236 54.0279L110.989 38.502C113.684 36.9845 113.216 34.1828 109.935 32.315L103.608 28.5795C100.327 26.7117 95.5232 26.3615 92.8284 27.9958L65.7626 43.5217Z" fill="#68C7CC"/>
<path d="M44.6718 31.7314C41.9769 33.2489 42.4456 36.0506 45.7263 37.9184L52.0533 41.6539C55.334 43.5217 60.1379 43.8719 62.8328 42.2376L89.8986 26.7117C92.5934 25.1942 92.1247 22.3925 88.844 20.5248L82.517 16.7892C79.2363 14.9214 74.4324 14.5712 71.7375 16.2055L44.6718 31.7314Z" fill="#68C7CC"/>
<path d="M42.7981 59.748C41.5093 60.4484 42.5638 62.3162 45.1415 63.8337L50.1797 66.7521C52.7574 68.2697 55.9209 68.8534 57.2098 68.0362L70.4497 60.4484C71.7386 59.748 70.6841 57.8802 68.1064 56.3627L63.0681 53.4443C60.4905 51.9267 57.3269 51.343 56.0381 52.1602L42.7981 59.748Z" fill="#68C7CC"/>
<defs>
<linearGradient id="paint0_linear_129_393" x1="-2.02856" y1="71.8297" x2="151.789" y2="47.3046" gradientUnits="userSpaceOnUse">
<stop stop-color="#1E959B"/>
<stop offset="0.9525" stop-color="#105154"/>
</linearGradient>
<linearGradient id="paint1_linear_129_393" x1="138.324" y1="40.5287" x2="0.264635" y2="40.5287" gradientUnits="userSpaceOnUse">
<stop stop-color="#1E959B"/>
<stop offset="0.9525" stop-color="#105154"/>
</linearGradient>
<linearGradient id="paint2_linear_129_393" x1="28.6265" y1="64.6583" x2="22.5645" y2="64.6583" gradientUnits="userSpaceOnUse">
<stop stop-color="#1E959B"/>
<stop offset="0.9525" stop-color="#105154"/>
</linearGradient>
</defs>
</svg>
