<svg width="319" height="46" viewBox="0 0 319 46" fill="none" xmlns="http://www.w3.org/2000/svg">
<path d="M1.12 1.2H4.62C5.49733 1.2 6.23 1.494 6.818 2.082C7.406 2.67 7.7 3.40267 7.7 4.28C7.7 5.15733 7.406 5.89 6.818 6.478C6.23 7.066 5.49733 7.36 4.62 7.36H2.1V11H1.12V1.2ZM2.1 6.436H4.62C5.22667 6.436 5.726 6.23533 6.118 5.834C6.51933 5.43267 6.72 4.91467 6.72 4.28C6.72 3.65467 6.51933 3.14133 6.118 2.74C5.726 2.32933 5.22667 2.124 4.62 2.124H2.1V6.436ZM14.6973 5.372V4H15.6213V11H14.6973V9.628C14.0533 10.6547 13.1106 11.168 11.8693 11.168C10.8706 11.168 10.0166 10.8133 9.30727 10.104C8.60727 9.39467 8.25727 8.52667 8.25727 7.5C8.25727 6.47333 8.60727 5.60533 9.30727 4.896C10.0166 4.18667 10.8706 3.832 11.8693 3.832C13.1106 3.832 14.0533 4.34533 14.6973 5.372ZM9.97927 9.474C10.5113 10.006 11.1646 10.272 11.9393 10.272C12.7139 10.272 13.3673 10.006 13.8993 9.474C14.4313 8.92333 14.6973 8.26533 14.6973 7.5C14.6973 6.72533 14.4313 6.072 13.8993 5.54C13.3673 4.99867 12.7139 4.728 11.9393 4.728C11.1646 4.728 10.5113 4.99867 9.97927 5.54C9.44727 6.072 9.18127 6.72533 9.18127 7.5C9.18127 8.26533 9.44727 8.92333 9.97927 9.474ZM21.1897 7.402C22.0017 7.71 22.4077 8.27 22.4077 9.082C22.4077 9.67 22.179 10.1647 21.7217 10.566C21.283 10.9673 20.639 11.168 19.7897 11.168C18.371 11.168 17.447 10.608 17.0177 9.488L17.8017 9.026C18.1003 9.85667 18.763 10.272 19.7897 10.272C20.3217 10.272 20.737 10.16 21.0357 9.936C21.3343 9.70267 21.4837 9.39933 21.4837 9.026C21.4837 8.69 21.3623 8.424 21.1197 8.228C20.877 8.02267 20.5503 7.92 20.1397 7.92H19.1177V7.024H19.8597C20.261 7.024 20.5737 6.926 20.7977 6.73C21.031 6.52467 21.1477 6.24467 21.1477 5.89C21.1477 5.554 21.0077 5.27867 20.7277 5.064C20.457 4.84 20.0977 4.728 19.6497 4.728C18.7817 4.728 18.1983 5.078 17.8997 5.778L17.1297 5.33C17.5963 4.33133 18.4363 3.832 19.6497 3.832C20.3963 3.832 20.9843 4.028 21.4137 4.42C21.8523 4.80267 22.0717 5.274 22.0717 5.834C22.0717 6.55267 21.7777 7.07533 21.1897 7.402ZM27.564 3.832C28.5627 3.832 29.412 4.18667 30.112 4.896C30.8214 5.60533 31.176 6.47333 31.176 7.5C31.176 8.52667 30.8214 9.39467 30.112 10.104C29.412 10.8133 28.5627 11.168 27.564 11.168C26.3227 11.168 25.38 10.6547 24.736 9.628V13.8H23.812V4H24.736V5.372C25.38 4.34533 26.3227 3.832 27.564 3.832ZM25.534 9.474C26.066 10.006 26.7194 10.272 27.494 10.272C28.2687 10.272 28.922 10.006 29.454 9.474C29.986 8.92333 30.252 8.26533 30.252 7.5C30.252 6.72533 29.986 6.072 29.454 5.54C28.922 4.99867 28.2687 4.728 27.494 4.728C26.7194 4.728 26.066 4.99867 25.534 5.54C25.002 6.072 24.736 6.72533 24.736 7.5C24.736 8.26533 25.002 8.92333 25.534 9.474ZM38.7324 5.372V4H39.6564V11H38.7324V9.628C38.0884 10.6547 37.1458 11.168 35.9044 11.168C34.9058 11.168 34.0518 10.8133 33.3424 10.104C32.6424 9.39467 32.2924 8.52667 32.2924 7.5C32.2924 6.47333 32.6424 5.60533 33.3424 4.896C34.0518 4.18667 34.9058 3.832 35.9044 3.832C37.1458 3.832 38.0884 4.34533 38.7324 5.372ZM34.0144 9.474C34.5464 10.006 35.1998 10.272 35.9744 10.272C36.7491 10.272 37.4024 10.006 37.9344 9.474C38.4664 8.92333 38.7324 8.26533 38.7324 7.5C38.7324 6.72533 38.4664 6.072 37.9344 5.54C37.4024 4.99867 36.7491 4.728 35.9744 4.728C35.1998 4.728 34.5464 4.99867 34.0144 5.54C33.4824 6.072 33.2164 6.72533 33.2164 7.5C33.2164 8.26533 33.4824 8.92333 34.0144 9.474ZM44.7208 11.168C43.7221 11.168 42.8821 10.8367 42.2008 10.174C41.5288 9.502 41.1928 8.634 41.1928 7.57C41.1928 6.37533 41.3701 5.46067 41.7248 4.826C42.0795 4.182 42.7981 3.59867 43.8808 3.076C44.2261 2.91733 44.4968 2.796 44.6928 2.712C45.0195 2.58133 45.2761 2.46933 45.4628 2.376C46.2748 2.00267 46.6855 1.54067 46.6948 0.99L47.4228 1.41C47.3761 1.64333 47.3015 1.85333 47.1988 2.04C47.0775 2.24533 46.9561 2.40867 46.8348 2.53C46.7228 2.65133 46.5455 2.782 46.3028 2.922C46.1441 3.01533 45.9528 3.118 45.7288 3.23L45.0288 3.524L44.3708 3.804C43.7268 4.084 43.2461 4.378 42.9288 4.686C42.6208 4.98467 42.4015 5.37667 42.2708 5.862C42.5695 5.46067 42.9615 5.15733 43.4468 4.952C43.9321 4.73733 44.4221 4.63 44.9168 4.63C45.8501 4.63 46.6201 4.938 47.2268 5.554C47.8428 6.16067 48.1508 6.94 48.1508 7.892C48.1508 8.83467 47.8241 9.61867 47.1708 10.244C46.5268 10.86 45.7101 11.168 44.7208 11.168ZM42.9008 9.558C43.3861 10.0153 43.9928 10.244 44.7208 10.244C45.4488 10.244 46.0461 10.0247 46.5128 9.586C46.9888 9.138 47.2268 8.57333 47.2268 7.892C47.2268 7.20133 47.0028 6.63667 46.5548 6.198C46.1161 5.75 45.5281 5.526 44.7908 5.526C44.1281 5.526 43.5261 5.736 42.9848 6.156C42.4435 6.55733 42.1728 7.108 42.1728 7.808C42.1728 8.51733 42.4155 9.10067 42.9008 9.558ZM55.4222 10.118C54.7035 10.818 53.8355 11.168 52.8182 11.168C51.7822 11.168 50.9095 10.818 50.2002 10.118C49.4908 9.40867 49.1362 8.536 49.1362 7.5C49.1362 6.464 49.4908 5.596 50.2002 4.896C50.9095 4.18667 51.7822 3.832 52.8182 3.832C53.8448 3.832 54.7128 4.18667 55.4222 4.896C56.1408 5.596 56.5002 6.464 56.5002 7.5C56.5002 8.52667 56.1408 9.39933 55.4222 10.118ZM50.8582 9.474C51.3902 10.006 52.0435 10.272 52.8182 10.272C53.5928 10.272 54.2462 10.006 54.7782 9.474C55.3102 8.92333 55.5762 8.26533 55.5762 7.5C55.5762 6.72533 55.3102 6.072 54.7782 5.54C54.2462 4.99867 53.5928 4.728 52.8182 4.728C52.0435 4.728 51.3902 4.99867 50.8582 5.54C50.3262 6.072 50.0602 6.72533 50.0602 7.5C50.0602 8.26533 50.3262 8.92333 50.8582 9.474ZM56.933 4H62.813V4.896H60.335V11H59.411V4.896H56.933V4ZM69.6855 5.372V4H70.6095V11H69.6855V9.628C69.0415 10.6547 68.0989 11.168 66.8575 11.168C65.8589 11.168 65.0049 10.8133 64.2955 10.104C63.5955 9.39467 63.2455 8.52667 63.2455 7.5C63.2455 6.47333 63.5955 5.60533 64.2955 4.896C65.0049 4.18667 65.8589 3.832 66.8575 3.832C68.0989 3.832 69.0415 4.34533 69.6855 5.372ZM64.9675 9.474C65.4995 10.006 66.1529 10.272 66.9275 10.272C67.7022 10.272 68.3555 10.006 68.8875 9.474C69.4195 8.92333 69.6855 8.26533 69.6855 7.5C69.6855 6.72533 69.4195 6.072 68.8875 5.54C68.3555 4.99867 67.7022 4.728 66.9275 4.728C66.1529 4.728 65.4995 4.99867 64.9675 5.54C64.4355 6.072 64.1695 6.72533 64.1695 7.5C64.1695 8.26533 64.4355 8.92333 64.9675 9.474ZM75.7999 3.832C76.8453 3.832 77.6806 4.20067 78.3059 4.938C78.9499 5.666 79.2719 6.52933 79.2719 7.528C79.2719 7.57467 79.2626 7.71933 79.2439 7.962H73.0979C73.1913 8.662 73.4899 9.222 73.9939 9.642C74.4979 10.062 75.1279 10.272 75.8839 10.272C76.9479 10.272 77.6993 9.87533 78.1379 9.082L78.9499 9.558C78.6419 10.062 78.2173 10.4587 77.6759 10.748C77.1439 11.028 76.5419 11.168 75.8699 11.168C74.7686 11.168 73.8726 10.8227 73.1819 10.132C72.4913 9.44133 72.1459 8.564 72.1459 7.5C72.1459 6.44533 72.4866 5.57267 73.1679 4.882C73.8493 4.182 74.7266 3.832 75.7999 3.832ZM75.7999 4.728C75.0719 4.728 74.4606 4.94267 73.9659 5.372C73.4806 5.80133 73.1913 6.366 73.0979 7.066H78.3199C78.2173 6.31933 77.9326 5.74533 77.4659 5.344C76.9806 4.93333 76.4253 4.728 75.7999 4.728ZM86.5377 4H87.6017V11H86.6777V5.414L84.2277 9.39H84.1157L81.6657 5.414V11H80.7417V4H81.8057L84.1717 7.836L86.5377 4ZM93.0601 4H98.9401V11H98.0161V4.896H93.9841V11H93.0601V4ZM104.646 3.832C105.645 3.832 106.494 4.18667 107.194 4.896C107.903 5.60533 108.258 6.47333 108.258 7.5C108.258 8.52667 107.903 9.39467 107.194 10.104C106.494 10.8133 105.645 11.168 104.646 11.168C103.405 11.168 102.462 10.6547 101.818 9.628V13.8H100.894V4H101.818V5.372C102.462 4.34533 103.405 3.832 104.646 3.832ZM102.616 9.474C103.148 10.006 103.801 10.272 104.576 10.272C105.351 10.272 106.004 10.006 106.536 9.474C107.068 8.92333 107.334 8.26533 107.334 7.5C107.334 6.72533 107.068 6.072 106.536 5.54C106.004 4.99867 105.351 4.728 104.576 4.728C103.801 4.728 103.148 4.99867 102.616 5.54C102.084 6.072 101.818 6.72533 101.818 7.5C101.818 8.26533 102.084 8.92333 102.616 9.474ZM115.66 10.118C114.942 10.818 114.074 11.168 113.056 11.168C112.02 11.168 111.148 10.818 110.438 10.118C109.729 9.40867 109.374 8.536 109.374 7.5C109.374 6.464 109.729 5.596 110.438 4.896C111.148 4.18667 112.02 3.832 113.056 3.832C114.083 3.832 114.951 4.18667 115.66 4.896C116.379 5.596 116.738 6.464 116.738 7.5C116.738 8.52667 116.379 9.39933 115.66 10.118ZM111.096 9.474C111.628 10.006 112.282 10.272 113.056 10.272C113.831 10.272 114.484 10.006 115.016 9.474C115.548 8.92333 115.814 8.26533 115.814 7.5C115.814 6.72533 115.548 6.072 115.016 5.54C114.484 4.99867 113.831 4.728 113.056 4.728C112.282 4.728 111.628 4.99867 111.096 5.54C110.564 6.072 110.298 6.72533 110.298 7.5C110.298 8.26533 110.564 8.92333 111.096 9.474ZM121.519 3.832C122.564 3.832 123.399 4.20067 124.025 4.938C124.669 5.666 124.991 6.52933 124.991 7.528C124.991 7.57467 124.981 7.71933 124.963 7.962H118.817C118.91 8.662 119.209 9.222 119.713 9.642C120.217 10.062 120.847 10.272 121.603 10.272C122.667 10.272 123.418 9.87533 123.857 9.082L124.669 9.558C124.361 10.062 123.936 10.4587 123.395 10.748C122.863 11.028 122.261 11.168 121.589 11.168C120.487 11.168 119.591 10.8227 118.901 10.132C118.21 9.44133 117.865 8.564 117.865 7.5C117.865 6.44533 118.205 5.57267 118.887 4.882C119.568 4.182 120.445 3.832 121.519 3.832ZM121.519 4.728C120.791 4.728 120.179 4.94267 119.685 5.372C119.199 5.80133 118.91 6.366 118.817 7.066H124.039C123.936 6.31933 123.651 5.74533 123.185 5.344C122.699 4.93333 122.144 4.728 121.519 4.728ZM128.364 7.36L132.116 11H130.884L127.384 7.626V11H126.46V4H127.384V7.094L130.716 4H131.976L128.364 7.36ZM132.538 4H138.418V4.896H135.94V11H135.016V4.896H132.538V4ZM146.306 11.168C145.252 11.168 144.374 10.818 143.674 10.118C142.974 9.39933 142.624 8.52667 142.624 7.5C142.624 6.464 142.974 5.596 143.674 4.896C144.374 4.18667 145.252 3.832 146.306 3.832C146.997 3.832 147.618 4 148.168 4.336C148.719 4.66267 149.12 5.106 149.372 5.666L148.616 6.1C148.43 5.68 148.126 5.34867 147.706 5.106C147.296 4.854 146.829 4.728 146.306 4.728C145.532 4.728 144.878 4.99867 144.346 5.54C143.814 6.072 143.548 6.72533 143.548 7.5C143.548 8.26533 143.814 8.92333 144.346 9.474C144.878 10.006 145.532 10.272 146.306 10.272C146.82 10.272 147.282 10.1507 147.692 9.908C148.112 9.66533 148.439 9.32933 148.672 8.9L149.442 9.348C149.153 9.908 148.728 10.3513 148.168 10.678C147.608 11.0047 146.988 11.168 146.306 11.168ZM159.225 7.052V4H160.149V11H159.225V7.948H155.193V11H154.269V4H155.193V7.052H159.225ZM164.875 9.866L167.143 4H168.123L165.127 11.644C164.847 12.3533 164.455 12.8993 163.951 13.282C163.456 13.674 162.906 13.8467 162.299 13.8V12.932C163.139 13.0347 163.778 12.5493 164.217 11.476L164.399 11.042L161.263 4H162.243L164.875 9.866ZM169.544 4H174.556V11H173.632V4.896H170.468V8.018C170.468 9.18467 170.244 9.98733 169.796 10.426C169.357 10.8647 168.751 11.056 167.976 11V10.132C168.517 10.188 168.914 10.0573 169.166 9.74C169.418 9.42267 169.544 8.84867 169.544 8.018V4ZM178.711 4H181.553V11H180.629V8.312H179.425L177.269 11H176.093L178.305 8.284C177.736 8.2 177.269 7.96667 176.905 7.584C176.551 7.192 176.373 6.72067 176.373 6.17C176.373 5.54467 176.597 5.02667 177.045 4.616C177.512 4.20533 178.067 4 178.711 4ZM178.711 7.444H180.629V4.896H178.711C178.31 4.896 177.974 5.01733 177.703 5.26C177.433 5.49333 177.297 5.79667 177.297 6.17C177.297 6.54333 177.433 6.85133 177.703 7.094C177.974 7.32733 178.31 7.444 178.711 7.444ZM183.933 9.81H185.053L184.213 12.96H183.373L183.933 9.81ZM6.86 20V26.104H7.84V28.876H6.916V27H1.204V28.876H0.28V26.104H1.134C1.61 25.4693 1.848 24.5873 1.848 23.458V20H6.86ZM2.254 26.104H5.936V20.896H2.772V23.458C2.772 24.5407 2.59933 25.4227 2.254 26.104ZM14.8304 26.118C14.1117 26.818 13.2437 27.168 12.2264 27.168C11.1904 27.168 10.3177 26.818 9.60838 26.118C8.89904 25.4087 8.54438 24.536 8.54438 23.5C8.54438 22.464 8.89904 21.596 9.60838 20.896C10.3177 20.1867 11.1904 19.832 12.2264 19.832C13.253 19.832 14.121 20.1867 14.8304 20.896C15.549 21.596 15.9084 22.464 15.9084 23.5C15.9084 24.5267 15.549 25.3993 14.8304 26.118ZM10.2664 25.474C10.7984 26.006 11.4517 26.272 12.2264 26.272C13.001 26.272 13.6544 26.006 14.1864 25.474C14.7184 24.9233 14.9844 24.2653 14.9844 23.5C14.9844 22.7253 14.7184 22.072 14.1864 21.54C13.6544 20.9987 13.001 20.728 12.2264 20.728C11.4517 20.728 10.7984 20.9987 10.2664 21.54C9.73438 22.072 9.46838 22.7253 9.46838 23.5C9.46838 24.2653 9.73438 24.9233 10.2664 25.474ZM21.2066 19.832C22.2053 19.832 23.0546 20.1867 23.7546 20.896C24.4639 21.6053 24.8186 22.4733 24.8186 23.5C24.8186 24.5267 24.4639 25.3947 23.7546 26.104C23.0546 26.8133 22.2053 27.168 21.2066 27.168C19.9653 27.168 19.0226 26.6547 18.3786 25.628V29.8H17.4546V20H18.3786V21.372C19.0226 20.3453 19.9653 19.832 21.2066 19.832ZM19.1766 25.474C19.7086 26.006 20.3619 26.272 21.1366 26.272C21.9113 26.272 22.5646 26.006 23.0966 25.474C23.6286 24.9233 23.8946 24.2653 23.8946 23.5C23.8946 22.7253 23.6286 22.072 23.0966 21.54C22.5646 20.9987 21.9113 20.728 21.1366 20.728C20.3619 20.728 19.7086 20.9987 19.1766 21.54C18.6446 22.072 18.3786 22.7253 18.3786 23.5C18.3786 24.2653 18.6446 24.9233 19.1766 25.474ZM32.375 21.372V20H33.299V27H32.375V25.628C31.731 26.6547 30.7883 27.168 29.547 27.168C28.5483 27.168 27.6943 26.8133 26.985 26.104C26.285 25.3947 25.935 24.5267 25.935 23.5C25.935 22.4733 26.285 21.6053 26.985 20.896C27.6943 20.1867 28.5483 19.832 29.547 19.832C30.7883 19.832 31.731 20.3453 32.375 21.372ZM27.657 25.474C28.189 26.006 28.8423 26.272 29.617 26.272C30.3917 26.272 31.045 26.006 31.577 25.474C32.109 24.9233 32.375 24.2653 32.375 23.5C32.375 22.7253 32.109 22.072 31.577 21.54C31.045 20.9987 30.3917 20.728 29.617 20.728C28.8423 20.728 28.189 20.9987 27.657 21.54C27.125 22.072 26.859 22.7253 26.859 23.5C26.859 24.2653 27.125 24.9233 27.657 25.474ZM38.3634 27.168C37.3647 27.168 36.5247 26.8367 35.8434 26.174C35.1714 25.502 34.8354 24.634 34.8354 23.57C34.8354 22.3753 35.0127 21.4607 35.3674 20.826C35.7221 20.182 36.4407 19.5987 37.5234 19.076C37.8687 18.9173 38.1394 18.796 38.3354 18.712C38.6621 18.5813 38.9187 18.4693 39.1054 18.376C39.9174 18.0027 40.3281 17.5407 40.3374 16.99L41.0654 17.41C41.0187 17.6433 40.9441 17.8533 40.8414 18.04C40.7201 18.2453 40.5987 18.4087 40.4774 18.53C40.3654 18.6513 40.1881 18.782 39.9454 18.922C39.7867 19.0153 39.5954 19.118 39.3714 19.23L38.6714 19.524L38.0134 19.804C37.3694 20.084 36.8887 20.378 36.5714 20.686C36.2634 20.9847 36.0441 21.3767 35.9134 21.862C36.2121 21.4607 36.6041 21.1573 37.0894 20.952C37.5747 20.7373 38.0647 20.63 38.5594 20.63C39.4927 20.63 40.2627 20.938 40.8694 21.554C41.4854 22.1607 41.7934 22.94 41.7934 23.892C41.7934 24.8347 41.4667 25.6187 40.8134 26.244C40.1694 26.86 39.3527 27.168 38.3634 27.168ZM36.5434 25.558C37.0287 26.0153 37.6354 26.244 38.3634 26.244C39.0914 26.244 39.6887 26.0247 40.1554 25.586C40.6314 25.138 40.8694 24.5733 40.8694 23.892C40.8694 23.2013 40.6454 22.6367 40.1974 22.198C39.7587 21.75 39.1707 21.526 38.4334 21.526C37.7707 21.526 37.1687 21.736 36.6274 22.156C36.0861 22.5573 35.8154 23.108 35.8154 23.808C35.8154 24.5173 36.0581 25.1007 36.5434 25.558ZM49.0648 26.118C48.3461 26.818 47.4781 27.168 46.4608 27.168C45.4248 27.168 44.5521 26.818 43.8428 26.118C43.1334 25.4087 42.7788 24.536 42.7788 23.5C42.7788 22.464 43.1334 21.596 43.8428 20.896C44.5521 20.1867 45.4248 19.832 46.4608 19.832C47.4874 19.832 48.3554 20.1867 49.0648 20.896C49.7834 21.596 50.1428 22.464 50.1428 23.5C50.1428 24.5267 49.7834 25.3993 49.0648 26.118ZM44.5008 25.474C45.0328 26.006 45.6861 26.272 46.4608 26.272C47.2354 26.272 47.8888 26.006 48.4208 25.474C48.9528 24.9233 49.2188 24.2653 49.2188 23.5C49.2188 22.7253 48.9528 22.072 48.4208 21.54C47.8888 20.9987 47.2354 20.728 46.4608 20.728C45.6861 20.728 45.0328 20.9987 44.5008 21.54C43.9688 22.072 43.7028 22.7253 43.7028 23.5C43.7028 24.2653 43.9688 24.9233 44.5008 25.474ZM50.5755 20H56.4555V20.896H53.9775V27H53.0535V20.896H50.5755V20ZM63.3281 21.372V20H64.2521V27H63.3281V25.628C62.6841 26.6547 61.7415 27.168 60.5001 27.168C59.5015 27.168 58.6475 26.8133 57.9381 26.104C57.2381 25.3947 56.8881 24.5267 56.8881 23.5C56.8881 22.4733 57.2381 21.6053 57.9381 20.896C58.6475 20.1867 59.5015 19.832 60.5001 19.832C61.7415 19.832 62.6841 20.3453 63.3281 21.372ZM58.6101 25.474C59.1421 26.006 59.7955 26.272 60.5701 26.272C61.3448 26.272 61.9981 26.006 62.5301 25.474C63.0621 24.9233 63.3281 24.2653 63.3281 23.5C63.3281 22.7253 63.0621 22.072 62.5301 21.54C61.9981 20.9987 61.3448 20.728 60.5701 20.728C59.7955 20.728 59.1421 20.9987 58.6101 21.54C58.0781 22.072 57.8121 22.7253 57.8121 23.5C57.8121 24.2653 58.0781 24.9233 58.6101 25.474ZM69.4425 19.832C70.4878 19.832 71.3232 20.2007 71.9485 20.938C72.5925 21.666 72.9145 22.5293 72.9145 23.528C72.9145 23.5747 72.9052 23.7193 72.8865 23.962H66.7405C66.8338 24.662 67.1325 25.222 67.6365 25.642C68.1405 26.062 68.7705 26.272 69.5265 26.272C70.5905 26.272 71.3418 25.8753 71.7805 25.082L72.5925 25.558C72.2845 26.062 71.8598 26.4587 71.3185 26.748C70.7865 27.028 70.1845 27.168 69.5125 27.168C68.4112 27.168 67.5152 26.8227 66.8245 26.132C66.1338 25.4413 65.7885 24.564 65.7885 23.5C65.7885 22.4453 66.1292 21.5727 66.8105 20.882C67.4918 20.182 68.3692 19.832 69.4425 19.832ZM69.4425 20.728C68.7145 20.728 68.1032 20.9427 67.6085 21.372C67.1232 21.8013 66.8338 22.366 66.7405 23.066H71.9625C71.8598 22.3193 71.5752 21.7453 71.1085 21.344C70.6232 20.9333 70.0678 20.728 69.4425 20.728ZM80.1803 20H81.2443V27H80.3203V21.414L77.8703 25.39H77.7583L75.3083 21.414V27H74.3843V20H75.4483L77.8143 23.836L80.1803 20ZM85.8627 20H91.7427V20.896H89.2647V27H88.3407V20.896H85.8627V20ZM95.8292 19.832C96.8746 19.832 97.7099 20.2007 98.3352 20.938C98.9792 21.666 99.3012 22.5293 99.3012 23.528C99.3012 23.5747 99.2919 23.7193 99.2732 23.962H93.1272C93.2206 24.662 93.5192 25.222 94.0232 25.642C94.5272 26.062 95.1572 26.272 95.9132 26.272C96.9772 26.272 97.7286 25.8753 98.1672 25.082L98.9792 25.558C98.6712 26.062 98.2466 26.4587 97.7052 26.748C97.1732 27.028 96.5712 27.168 95.8992 27.168C94.7979 27.168 93.9019 26.8227 93.2112 26.132C92.5206 25.4413 92.1752 24.564 92.1752 23.5C92.1752 22.4453 92.5159 21.5727 93.1972 20.882C93.8786 20.182 94.7559 19.832 95.8292 19.832ZM95.8292 20.728C95.1012 20.728 94.4899 20.9427 93.9952 21.372C93.5099 21.8013 93.2206 22.366 93.1272 23.066H98.3492C98.2466 22.3193 97.9619 21.7453 97.4952 21.344C97.0099 20.9333 96.4546 20.728 95.8292 20.728ZM102.675 23.36L106.427 27H105.195L101.695 23.626V27H100.771V20H101.695V23.094L105.027 20H106.287L102.675 23.36ZM110.188 25.866L112.456 20H113.436L110.44 27.644C110.16 28.3533 109.768 28.8993 109.264 29.282C108.769 29.674 108.218 29.8467 107.612 29.8V28.932C108.452 29.0347 109.091 28.5493 109.53 27.476L109.712 27.042L106.576 20H107.556L110.188 25.866ZM123.932 20V26.104H124.912V28.876H123.988V27H114.552V20H115.476V26.104H118.78V20H119.704V26.104H123.008V20H123.932ZM127.234 25.39L131.406 20H132.19V27H131.266V21.61L127.094 27H126.31V20H127.234V25.39ZM138.904 18.88H135.264V18.068H138.904V18.88ZM135.068 25.39L139.24 20H140.024V27H139.1V21.61L134.928 27H134.144V20H135.068V25.39ZM145.478 20H151.358V27H150.434V20.896H146.402V27H145.478V20ZM157.064 19.832C158.063 19.832 158.912 20.1867 159.612 20.896C160.321 21.6053 160.676 22.4733 160.676 23.5C160.676 24.5267 160.321 25.3947 159.612 26.104C158.912 26.8133 158.063 27.168 157.064 27.168C155.823 27.168 154.88 26.6547 154.236 25.628V29.8H153.312V20H154.236V21.372C154.88 20.3453 155.823 19.832 157.064 19.832ZM155.034 25.474C155.566 26.006 156.219 26.272 156.994 26.272C157.769 26.272 158.422 26.006 158.954 25.474C159.486 24.9233 159.752 24.2653 159.752 23.5C159.752 22.7253 159.486 22.072 158.954 21.54C158.422 20.9987 157.769 20.728 156.994 20.728C156.219 20.728 155.566 20.9987 155.034 21.54C154.502 22.072 154.236 22.7253 154.236 23.5C154.236 24.2653 154.502 24.9233 155.034 25.474ZM168.078 26.118C167.36 26.818 166.492 27.168 165.474 27.168C164.438 27.168 163.566 26.818 162.856 26.118C162.147 25.4087 161.792 24.536 161.792 23.5C161.792 22.464 162.147 21.596 162.856 20.896C163.566 20.1867 164.438 19.832 165.474 19.832C166.501 19.832 167.369 20.1867 168.078 20.896C168.797 21.596 169.156 22.464 169.156 23.5C169.156 24.5267 168.797 25.3993 168.078 26.118ZM163.514 25.474C164.046 26.006 164.7 26.272 165.474 26.272C166.249 26.272 166.902 26.006 167.434 25.474C167.966 24.9233 168.232 24.2653 168.232 23.5C168.232 22.7253 167.966 22.072 167.434 21.54C166.902 20.9987 166.249 20.728 165.474 20.728C164.7 20.728 164.046 20.9987 163.514 21.54C162.982 22.072 162.716 22.7253 162.716 23.5C162.716 24.2653 162.982 24.9233 163.514 25.474ZM173.937 19.832C174.982 19.832 175.817 20.2007 176.443 20.938C177.087 21.666 177.409 22.5293 177.409 23.528C177.409 23.5747 177.399 23.7193 177.381 23.962H171.235C171.328 24.662 171.627 25.222 172.131 25.642C172.635 26.062 173.265 26.272 174.021 26.272C175.085 26.272 175.836 25.8753 176.275 25.082L177.087 25.558C176.779 26.062 176.354 26.4587 175.813 26.748C175.281 27.028 174.679 27.168 174.007 27.168C172.905 27.168 172.009 26.8227 171.319 26.132C170.628 25.4413 170.283 24.564 170.283 23.5C170.283 22.4453 170.623 21.5727 171.305 20.882C171.986 20.182 172.863 19.832 173.937 19.832ZM173.937 20.728C173.209 20.728 172.597 20.9427 172.103 21.372C171.617 21.8013 171.328 22.366 171.235 23.066H176.457C176.354 22.3193 176.069 21.7453 175.603 21.344C175.117 20.9333 174.562 20.728 173.937 20.728ZM180.782 23.36L184.534 27H183.302L179.802 23.626V27H178.878V20H179.802V23.094L183.134 20H184.394L180.782 23.36ZM184.956 20H190.836V20.896H188.358V27H187.434V20.896H184.956V20ZM196.386 25.39L200.558 20H201.342V27H200.418V21.61L196.246 27H195.462V20H196.386V25.39ZM204.024 20H209.036V27H208.112V20.896H204.948V24.018C204.948 25.1847 204.724 25.9873 204.276 26.426C203.838 26.8647 203.231 27.056 202.456 27V26.132C202.998 26.188 203.394 26.0573 203.646 25.74C203.898 25.4227 204.024 24.8487 204.024 24.018V20ZM211.918 25.39L216.09 20H216.874V27H215.95V21.61L211.778 27H210.994V20H211.918V25.39ZM225.1 25.866L227.368 20H228.348L225.352 27.644C225.072 28.3533 224.68 28.8993 224.176 29.282C223.681 29.674 223.13 29.8467 222.524 29.8V28.932C223.364 29.0347 224.003 28.5493 224.442 27.476L224.624 27.042L221.488 20H222.468L225.1 25.866ZM232.453 27.168C231.398 27.168 230.521 26.818 229.821 26.118C229.121 25.3993 228.771 24.5267 228.771 23.5C228.771 22.464 229.121 21.596 229.821 20.896C230.521 20.1867 231.398 19.832 232.453 19.832C233.144 19.832 233.764 20 234.315 20.336C234.866 20.6627 235.267 21.106 235.519 21.666L234.763 22.1C234.576 21.68 234.273 21.3487 233.853 21.106C233.442 20.854 232.976 20.728 232.453 20.728C231.678 20.728 231.025 20.9987 230.493 21.54C229.961 22.072 229.695 22.7253 229.695 23.5C229.695 24.2653 229.961 24.9233 230.493 25.474C231.025 26.006 231.678 26.272 232.453 26.272C232.966 26.272 233.428 26.1507 233.839 25.908C234.259 25.6653 234.586 25.3293 234.819 24.9L235.589 25.348C235.3 25.908 234.875 26.3513 234.315 26.678C233.755 27.0047 233.134 27.168 232.453 27.168ZM237.84 25.39L242.012 20H242.796V27H241.872V21.61L237.7 27H236.916V20H237.84V25.39ZM245.478 20H250.49V27H249.566V20.896H246.402V24.018C246.402 25.1847 246.178 25.9873 245.73 26.426C245.291 26.8647 244.684 27.056 243.91 27V26.132C244.451 26.188 244.848 26.0573 245.1 25.74C245.352 25.4227 245.478 24.8487 245.478 24.018V20ZM253.371 25.39L257.543 20H258.327V27H257.403V21.61L253.231 27H252.447V20H253.371V25.39ZM266.077 20H267.141V27H266.217V21.414L263.767 25.39H263.655L261.205 21.414V27H260.281V20H261.345L263.711 23.836L266.077 20ZM277.051 23.402C277.816 23.682 278.199 24.228 278.199 25.04C278.199 25.6187 278.003 26.09 277.611 26.454C277.228 26.818 276.692 27 276.001 27H272.599V20H275.721C276.393 20 276.916 20.1727 277.289 20.518C277.672 20.8633 277.863 21.316 277.863 21.876C277.863 22.576 277.592 23.0847 277.051 23.402ZM275.721 20.896H273.523V23.024H275.721C276.533 23.024 276.939 22.66 276.939 21.932C276.939 21.6053 276.832 21.3533 276.617 21.176C276.412 20.9893 276.113 20.896 275.721 20.896ZM273.523 26.104H276.001C276.412 26.104 276.724 26.006 276.939 25.81C277.163 25.614 277.275 25.3387 277.275 24.984C277.275 24.648 277.163 24.3867 276.939 24.2C276.724 24.0133 276.412 23.92 276.001 23.92H273.523V26.104ZM285.619 21.372V20H286.543V27H285.619V25.628C284.975 26.6547 284.032 27.168 282.791 27.168C281.792 27.168 280.938 26.8133 280.229 26.104C279.529 25.3947 279.179 24.5267 279.179 23.5C279.179 22.4733 279.529 21.6053 280.229 20.896C280.938 20.1867 281.792 19.832 282.791 19.832C284.032 19.832 284.975 20.3453 285.619 21.372ZM280.901 25.474C281.433 26.006 282.086 26.272 282.861 26.272C283.636 26.272 284.289 26.006 284.821 25.474C285.353 24.9233 285.619 24.2653 285.619 23.5C285.619 22.7253 285.353 22.072 284.821 21.54C284.289 20.9987 283.636 20.728 282.861 20.728C282.086 20.728 281.433 20.9987 280.901 21.54C280.369 22.072 280.103 22.7253 280.103 23.5C280.103 24.2653 280.369 24.9233 280.901 25.474ZM296.956 26.104V20H297.88V27H288.5V20H289.424V26.104H292.728V20H293.652V26.104H296.956ZM302.606 25.866L304.874 20H305.854L302.858 27.644C302.578 28.3533 302.186 28.8993 301.682 29.282C301.187 29.674 300.636 29.8467 300.03 29.8V28.932C300.87 29.0347 301.509 28.5493 301.948 27.476L302.13 27.042L298.994 20H299.974L302.606 25.866ZM8.4 43H7.42V35.02L1.96 43H1.12V33.2H2.1V41.18L7.56 33.2H8.4V43ZM9.79563 33.2H16.7956V34.124H13.7856V43H12.8056V34.124H9.79563V33.2ZM22.5389 39.122H17.4989V38.226H22.5389V39.122ZM26.5363 39.36L30.2883 43H29.0563L25.5563 39.626V43H24.6323V36H25.5563V39.094L28.8883 36H30.1483L26.5363 39.36ZM36.719 42.118C36.0004 42.818 35.1324 43.168 34.115 43.168C33.079 43.168 32.2064 42.818 31.497 42.118C30.7877 41.4087 30.433 40.536 30.433 39.5C30.433 38.464 30.7877 37.596 31.497 36.896C32.2064 36.1867 33.079 35.832 34.115 35.832C35.1417 35.832 36.0097 36.1867 36.719 36.896C37.4377 37.596 37.797 38.464 37.797 39.5C37.797 40.5267 37.4377 41.3993 36.719 42.118ZM32.155 41.474C32.687 42.006 33.3404 42.272 34.115 42.272C34.8897 42.272 35.543 42.006 36.075 41.474C36.607 40.9233 36.873 40.2653 36.873 39.5C36.873 38.7253 36.607 38.072 36.075 37.54C35.543 36.9987 34.8897 36.728 34.115 36.728C33.3404 36.728 32.687 36.9987 32.155 37.54C31.623 38.072 31.357 38.7253 31.357 39.5C31.357 40.2653 31.623 40.9233 32.155 41.474ZM45.1393 36H46.2033V43H45.2793V37.414L42.8293 41.39H42.7173L40.2673 37.414V43H39.3433V36H40.4073L42.7733 39.836L45.1393 36ZM54.1816 37.372V36H55.1056V43H54.1816V41.628C53.5376 42.6547 52.595 43.168 51.3536 43.168C50.355 43.168 49.501 42.8133 48.7916 42.104C48.0916 41.3947 47.7416 40.5267 47.7416 39.5C47.7416 38.4733 48.0916 37.6053 48.7916 36.896C49.501 36.1867 50.355 35.832 51.3536 35.832C52.595 35.832 53.5376 36.3453 54.1816 37.372ZM49.4636 41.474C49.9956 42.006 50.649 42.272 51.4236 42.272C52.1983 42.272 52.8516 42.006 53.3836 41.474C53.9156 40.9233 54.1816 40.2653 54.1816 39.5C54.1816 38.7253 53.9156 38.072 53.3836 37.54C52.8516 36.9987 52.1983 36.728 51.4236 36.728C50.649 36.728 49.9956 36.9987 49.4636 37.54C48.9316 38.072 48.6656 38.7253 48.6656 39.5C48.6656 40.2653 48.9316 40.9233 49.4636 41.474ZM62.018 39.052V36H62.942V43H62.018V39.948H57.986V43H57.062V36H57.986V39.052H62.018ZM70.776 36V42.104H71.756V44.876H70.832V43H65.12V44.876H64.196V42.104H65.05C65.526 41.4693 65.764 40.5873 65.764 39.458V36H70.776ZM66.17 42.104H69.852V36.896H66.688V39.458C66.688 40.5407 66.5153 41.4227 66.17 42.104ZM75.6524 41.866L77.9204 36H78.9004L75.9044 43.644C75.6244 44.3533 75.2324 44.8993 74.7284 45.282C74.2337 45.674 73.6831 45.8467 73.0764 45.8V44.932C73.9164 45.0347 74.5557 44.5493 74.9944 43.476L75.1764 43.042L72.0404 36H73.0204L75.6524 41.866ZM84.2451 36H89.2571V43H88.3331V36.896H85.1691V40.018C85.1691 41.1847 84.9451 41.9873 84.4971 42.426C84.0584 42.8647 83.4518 43.056 82.6771 43V42.132C83.2184 42.188 83.6151 42.0573 83.8671 41.74C84.1191 41.4227 84.2451 40.8487 84.2451 40.018V36ZM93.9864 41.866L96.2544 36H97.2344L94.2384 43.644C93.9584 44.3533 93.5664 44.8993 93.0624 45.282C92.5677 45.674 92.017 45.8467 91.4104 45.8V44.932C92.2504 45.0347 92.8897 44.5493 93.3284 43.476L93.5104 43.042L90.3744 36H91.3544L93.9864 41.866ZM102.887 39.486V36H103.811V43H102.887V40.34C102.346 40.62 101.678 40.76 100.885 40.76C99.9611 40.76 99.2611 40.55 98.7851 40.13C98.3091 39.7007 98.0711 39.0707 98.0711 38.24V36H98.9951V38.24C98.9951 38.8187 99.1444 39.2387 99.4431 39.5C99.7511 39.7613 100.222 39.892 100.857 39.892C101.566 39.892 102.243 39.7567 102.887 39.486ZM114.231 42.104V36H115.155V43H105.775V36H106.699V42.104H110.003V36H110.927V42.104H114.231ZM118.033 41.39L122.205 36H122.989V43H122.065V37.61L117.893 43H117.109V36H118.033V41.39ZM130.739 36H131.803V43H130.879V37.414L128.429 41.39H128.317L125.867 37.414V43H124.943V36H126.007L128.373 39.836L130.739 36ZM134.685 41.39L138.857 36H139.641V43H138.717V37.61L134.545 43H133.761V36H134.685V41.39ZM148.847 35.832C149.846 35.832 150.695 36.1867 151.395 36.896C152.105 37.6053 152.459 38.4733 152.459 39.5C152.459 40.5267 152.105 41.3947 151.395 42.104C150.695 42.8133 149.846 43.168 148.847 43.168C147.606 43.168 146.663 42.6547 146.019 41.628V45.8H145.095V36H146.019V37.372C146.663 36.3453 147.606 35.832 148.847 35.832ZM146.817 41.474C147.349 42.006 148.003 42.272 148.777 42.272C149.552 42.272 150.205 42.006 150.737 41.474C151.269 40.9233 151.535 40.2653 151.535 39.5C151.535 38.7253 151.269 38.072 150.737 37.54C150.205 36.9987 149.552 36.728 148.777 36.728C148.003 36.728 147.349 36.9987 146.817 37.54C146.285 38.072 146.019 38.7253 146.019 39.5C146.019 40.2653 146.285 40.9233 146.817 41.474ZM160.016 37.372V36H160.94V43H160.016V41.628C159.372 42.6547 158.429 43.168 157.188 43.168C156.189 43.168 155.335 42.8133 154.626 42.104C153.926 41.3947 153.576 40.5267 153.576 39.5C153.576 38.4733 153.926 37.6053 154.626 36.896C155.335 36.1867 156.189 35.832 157.188 35.832C158.429 35.832 159.372 36.3453 160.016 37.372ZM155.298 41.474C155.83 42.006 156.483 42.272 157.258 42.272C158.032 42.272 158.686 42.006 159.218 41.474C159.75 40.9233 160.016 40.2653 160.016 39.5C160.016 38.7253 159.75 38.072 159.218 37.54C158.686 36.9987 158.032 36.728 157.258 36.728C156.483 36.728 155.83 36.9987 155.298 37.54C154.766 38.072 154.5 38.7253 154.5 39.5C154.5 40.2653 154.766 40.9233 155.298 41.474ZM166.508 39.402C167.32 39.71 167.726 40.27 167.726 41.082C167.726 41.67 167.497 42.1647 167.04 42.566C166.601 42.9673 165.957 43.168 165.108 43.168C163.689 43.168 162.765 42.608 162.336 41.488L163.12 41.026C163.419 41.8567 164.081 42.272 165.108 42.272C165.64 42.272 166.055 42.16 166.354 41.936C166.653 41.7027 166.802 41.3993 166.802 41.026C166.802 40.69 166.681 40.424 166.438 40.228C166.195 40.0227 165.869 39.92 165.458 39.92H164.436V39.024H165.178C165.579 39.024 165.892 38.926 166.116 38.73C166.349 38.5247 166.466 38.2447 166.466 37.89C166.466 37.554 166.326 37.2787 166.046 37.064C165.775 36.84 165.416 36.728 164.968 36.728C164.1 36.728 163.517 37.078 163.218 37.778L162.448 37.33C162.915 36.3313 163.755 35.832 164.968 35.832C165.715 35.832 166.303 36.028 166.732 36.42C167.171 36.8027 167.39 37.274 167.39 37.834C167.39 38.5527 167.096 39.0753 166.508 39.402ZM172.882 35.832C173.881 35.832 174.73 36.1867 175.43 36.896C176.14 37.6053 176.494 38.4733 176.494 39.5C176.494 40.5267 176.14 41.3947 175.43 42.104C174.73 42.8133 173.881 43.168 172.882 43.168C171.641 43.168 170.698 42.6547 170.054 41.628V45.8H169.13V36H170.054V37.372C170.698 36.3453 171.641 35.832 172.882 35.832ZM170.852 41.474C171.384 42.006 172.038 42.272 172.812 42.272C173.587 42.272 174.24 42.006 174.772 41.474C175.304 40.9233 175.57 40.2653 175.57 39.5C175.57 38.7253 175.304 38.072 174.772 37.54C174.24 36.9987 173.587 36.728 172.812 36.728C172.038 36.728 171.384 36.9987 170.852 37.54C170.32 38.072 170.054 38.7253 170.054 39.5C170.054 40.2653 170.32 40.9233 170.852 41.474ZM184.051 37.372V36H184.975V43H184.051V41.628C183.407 42.6547 182.464 43.168 181.223 43.168C180.224 43.168 179.37 42.8133 178.661 42.104C177.961 41.3947 177.611 40.5267 177.611 39.5C177.611 38.4733 177.961 37.6053 178.661 36.896C179.37 36.1867 180.224 35.832 181.223 35.832C182.464 35.832 183.407 36.3453 184.051 37.372ZM179.333 41.474C179.865 42.006 180.518 42.272 181.293 42.272C182.067 42.272 182.721 42.006 183.253 41.474C183.785 40.9233 184.051 40.2653 184.051 39.5C184.051 38.7253 183.785 38.072 183.253 37.54C182.721 36.9987 182.067 36.728 181.293 36.728C180.518 36.728 179.865 36.9987 179.333 37.54C178.801 38.072 178.535 38.7253 178.535 39.5C178.535 40.2653 178.801 40.9233 179.333 41.474ZM190.039 43.168C189.041 43.168 188.201 42.8367 187.519 42.174C186.847 41.502 186.511 40.634 186.511 39.57C186.511 38.3753 186.689 37.4607 187.043 36.826C187.398 36.182 188.117 35.5987 189.199 35.076C189.545 34.9173 189.815 34.796 190.011 34.712C190.338 34.5813 190.595 34.4693 190.781 34.376C191.593 34.0027 192.004 33.5407 192.013 32.99L192.741 33.41C192.695 33.6433 192.62 33.8533 192.517 34.04C192.396 34.2453 192.275 34.4087 192.153 34.53C192.041 34.6513 191.864 34.782 191.621 34.922C191.463 35.0153 191.271 35.118 191.047 35.23L190.347 35.524L189.689 35.804C189.045 36.084 188.565 36.378 188.247 36.686C187.939 36.9847 187.72 37.3767 187.589 37.862C187.888 37.4607 188.28 37.1573 188.765 36.952C189.251 36.7373 189.741 36.63 190.235 36.63C191.169 36.63 191.939 36.938 192.545 37.554C193.161 38.1607 193.469 38.94 193.469 39.892C193.469 40.8347 193.143 41.6187 192.489 42.244C191.845 42.86 191.029 43.168 190.039 43.168ZM188.219 41.558C188.705 42.0153 189.311 42.244 190.039 42.244C190.767 42.244 191.365 42.0247 191.831 41.586C192.307 41.138 192.545 40.5733 192.545 39.892C192.545 39.2013 192.321 38.6367 191.873 38.198C191.435 37.75 190.847 37.526 190.109 37.526C189.447 37.526 188.845 37.736 188.303 38.156C187.762 38.5573 187.491 39.108 187.491 39.808C187.491 40.5173 187.734 41.1007 188.219 41.558ZM200.741 42.118C200.022 42.818 199.154 43.168 198.137 43.168C197.101 43.168 196.228 42.818 195.519 42.118C194.809 41.4087 194.455 40.536 194.455 39.5C194.455 38.464 194.809 37.596 195.519 36.896C196.228 36.1867 197.101 35.832 198.137 35.832C199.163 35.832 200.031 36.1867 200.741 36.896C201.459 37.596 201.819 38.464 201.819 39.5C201.819 40.5267 201.459 41.3993 200.741 42.118ZM196.177 41.474C196.709 42.006 197.362 42.272 198.137 42.272C198.911 42.272 199.565 42.006 200.097 41.474C200.629 40.9233 200.895 40.2653 200.895 39.5C200.895 38.7253 200.629 38.072 200.097 37.54C199.565 36.9987 198.911 36.728 198.137 36.728C197.362 36.728 196.709 36.9987 196.177 37.54C195.645 38.072 195.379 38.7253 195.379 39.5C195.379 40.2653 195.645 40.9233 196.177 41.474ZM202.251 36H208.131V36.896H205.653V43H204.729V36.896H202.251V36ZM213.793 39.486V36H214.717V43H213.793V40.34C213.252 40.62 212.585 40.76 211.791 40.76C210.867 40.76 210.167 40.55 209.691 40.13C209.215 39.7007 208.977 39.0707 208.977 38.24V36H209.901V38.24C209.901 38.8187 210.051 39.2387 210.349 39.5C210.657 39.7613 211.129 39.892 211.763 39.892C212.473 39.892 213.149 39.7567 213.793 39.486ZM217.605 41.39L221.777 36H222.561V43H221.637V37.61L217.465 43H216.681V36H217.605V41.39ZM226.419 39.36L230.171 43H228.939L225.439 39.626V43H224.515V36H225.439V39.094L228.771 36H230.031L226.419 39.36ZM236.756 37.372V36H237.68V43H236.756V41.628C236.112 42.6547 235.169 43.168 233.928 43.168C232.929 43.168 232.075 42.8133 231.366 42.104C230.666 41.3947 230.316 40.5267 230.316 39.5C230.316 38.4733 230.666 37.6053 231.366 36.896C232.075 36.1867 232.929 35.832 233.928 35.832C235.169 35.832 236.112 36.3453 236.756 37.372ZM232.038 41.474C232.57 42.006 233.223 42.272 233.998 42.272C234.773 42.272 235.426 42.006 235.958 41.474C236.49 40.9233 236.756 40.2653 236.756 39.5C236.756 38.7253 236.49 38.072 235.958 37.54C235.426 36.9987 234.773 36.728 233.998 36.728C233.223 36.728 232.57 36.9987 232.038 37.54C231.506 38.072 231.24 38.7253 231.24 39.5C231.24 40.2653 231.506 40.9233 232.038 41.474ZM245.432 36H246.496V43H245.572V37.414L243.122 41.39H243.01L240.56 37.414V43H239.636V36H240.7L243.066 39.836L245.432 36ZM249.379 41.39L253.551 36H254.335V43H253.411V37.61L249.239 43H248.455V36H249.379V41.39ZM264.745 39.052V36H265.669V43H264.745V39.948H260.713V43H259.789V36H260.713V39.052H264.745ZM273.643 37.372V36H274.567V43H273.643V41.628C272.999 42.6547 272.056 43.168 270.815 43.168C269.816 43.168 268.962 42.8133 268.253 42.104C267.553 41.3947 267.203 40.5267 267.203 39.5C267.203 38.4733 267.553 37.6053 268.253 36.896C268.962 36.1867 269.816 35.832 270.815 35.832C272.056 35.832 272.999 36.3453 273.643 37.372ZM268.925 41.474C269.457 42.006 270.11 42.272 270.885 42.272C271.659 42.272 272.313 42.006 272.845 41.474C273.377 40.9233 273.643 40.2653 273.643 39.5C273.643 38.7253 273.377 38.072 272.845 37.54C272.313 36.9987 271.659 36.728 270.885 36.728C270.11 36.728 269.457 36.9987 268.925 37.54C268.393 38.072 268.127 38.7253 268.127 39.5C268.127 40.2653 268.393 40.9233 268.925 41.474ZM283.775 35.832C284.774 35.832 285.623 36.1867 286.323 36.896C287.032 37.6053 287.387 38.4733 287.387 39.5C287.387 40.5267 287.032 41.3947 286.323 42.104C285.623 42.8133 284.774 43.168 283.775 43.168C282.534 43.168 281.591 42.6547 280.947 41.628V45.8H280.023V36H280.947V37.372C281.591 36.3453 282.534 35.832 283.775 35.832ZM281.745 41.474C282.277 42.006 282.93 42.272 283.705 42.272C284.48 42.272 285.133 42.006 285.665 41.474C286.197 40.9233 286.463 40.2653 286.463 39.5C286.463 38.7253 286.197 38.072 285.665 37.54C285.133 36.9987 284.48 36.728 283.705 36.728C282.93 36.728 282.277 36.9987 281.745 37.54C281.213 38.072 280.947 38.7253 280.947 39.5C280.947 40.2653 281.213 40.9233 281.745 41.474ZM289.847 38.66H291.765C292.409 38.66 292.96 38.8653 293.417 39.276C293.875 39.6773 294.103 40.1953 294.103 40.83C294.103 41.474 293.875 41.9967 293.417 42.398C292.979 42.7993 292.428 43 291.765 43H288.923V36H289.847V38.66ZM295.083 43V36H296.007V43H295.083ZM289.847 42.104H291.765C292.167 42.104 292.503 41.9873 292.773 41.754C293.044 41.5113 293.179 41.2033 293.179 40.83C293.179 40.4567 293.044 40.1533 292.773 39.92C292.503 39.6773 292.167 39.556 291.765 39.556H289.847V42.104ZM302.93 39.052V36H303.854V43H302.93V39.948H298.898V43H297.974V36H298.898V39.052H302.93ZM307.712 39.36L311.464 43H310.232L306.732 39.626V43H305.808V36H306.732V39.094L310.064 36H311.324L307.712 39.36ZM315.263 35.832C316.308 35.832 317.143 36.2007 317.769 36.938C318.413 37.666 318.735 38.5293 318.735 39.528C318.735 39.5747 318.725 39.7193 318.707 39.962H312.561C312.654 40.662 312.953 41.222 313.457 41.642C313.961 42.062 314.591 42.272 315.347 42.272C316.411 42.272 317.162 41.8753 317.601 41.082L318.413 41.558C318.105 42.062 317.68 42.4587 317.139 42.748C316.607 43.028 316.005 43.168 315.333 43.168C314.231 43.168 313.335 42.8227 312.645 42.132C311.954 41.4413 311.609 40.564 311.609 39.5C311.609 38.4453 311.949 37.5727 312.631 36.882C313.312 36.182 314.189 35.832 315.263 35.832ZM315.263 36.728C314.535 36.728 313.923 36.9427 313.429 37.372C312.943 37.8013 312.654 38.366 312.561 39.066H317.783C317.68 38.3193 317.395 37.7453 316.929 37.344C316.443 36.9333 315.888 36.728 315.263 36.728Z" fill="#3C3C3C"/>
</svg>
